G04 #@! TF.GenerationSoftware,KiCad,Pcbnew,(5.1.5)-3*
G04 #@! TF.CreationDate,2020-12-30T13:43:59+08:00*
G04 #@! TF.ProjectId,45ortho,34356f72-7468-46f2-9e6b-696361645f70,rev?*
G04 #@! TF.SameCoordinates,Original*
G04 #@! TF.FileFunction,Legend,Bot*
G04 #@! TF.FilePolarity,Positive*
%FSLAX46Y46*%
G04 Gerber Fmt 4.6, Leading zero omitted, Abs format (unit mm)*
G04 Created by KiCad (PCBNEW (5.1.5)-3) date 2020-12-30 13:43:59*
%MOMM*%
%LPD*%
G04 APERTURE LIST*
%ADD10C,0.250000*%
%ADD11C,0.120000*%
%ADD12C,0.381000*%
%ADD13C,0.150000*%
%ADD14C,0.125000*%
%ADD15C,2.102000*%
%ADD16R,2.102000X3.002000*%
%ADD17R,2.102000X3.302000*%
%ADD18R,2.102000X2.102000*%
%ADD19C,1.854600*%
%ADD20R,1.854600X1.854600*%
%ADD21C,1.852000*%
%ADD22C,2.352000*%
%ADD23C,4.089800*%
%ADD24C,0.100000*%
%ADD25C,1.802000*%
%ADD26O,1.802000X1.802000*%
%ADD27O,1.100000X1.700000*%
%ADD28O,1.100000X2.200000*%
%ADD29C,0.750000*%
%ADD30R,0.400000X1.550000*%
%ADD31R,0.700000X1.550000*%
%ADD32C,3.150000*%
%ADD33R,1.802000X1.802000*%
%ADD34R,1.702000X1.702000*%
%ADD35C,1.702000*%
%ADD36R,1.302000X1.702000*%
%ADD37C,0.889400*%
%ADD38O,6.102000X0.889400*%
%ADD39C,2.002000*%
%ADD40R,1.702000X1.302000*%
G04 APERTURE END LIST*
D10*
X159133095Y-100306250D02*
X159228333Y-100258630D01*
X159371190Y-100258630D01*
X159514047Y-100306250D01*
X159609285Y-100401488D01*
X159656904Y-100496726D01*
X159704523Y-100687202D01*
X159704523Y-100830059D01*
X159656904Y-101020535D01*
X159609285Y-101115773D01*
X159514047Y-101211011D01*
X159371190Y-101258630D01*
X159275952Y-101258630D01*
X159133095Y-101211011D01*
X159085476Y-101163392D01*
X159085476Y-100830059D01*
X159275952Y-100830059D01*
X157235952Y-100877678D02*
X156474047Y-100877678D01*
X156855000Y-101258630D02*
X156855000Y-100496726D01*
X154695952Y-100877678D02*
X153934047Y-100877678D01*
X152108333Y-100258630D02*
X151775000Y-101258630D01*
X151441666Y-100258630D01*
D11*
X336550000Y-89150000D02*
X336550000Y-88150000D01*
X337050000Y-88650000D02*
X336050000Y-88650000D01*
X333050000Y-82550000D02*
X330650000Y-82550000D01*
X337850000Y-82550000D02*
X335250000Y-82550000D01*
X342450000Y-82550000D02*
X340050000Y-82550000D01*
X340650000Y-95850000D02*
X340350000Y-96150000D01*
X340650000Y-96450000D02*
X340650000Y-95850000D01*
X340350000Y-96150000D02*
X340650000Y-96450000D01*
X342450000Y-94750000D02*
X330650000Y-94750000D01*
X342450000Y-90650000D02*
X342450000Y-94750000D01*
X330650000Y-90650000D02*
X330650000Y-94750000D01*
X330650000Y-82550000D02*
X330650000Y-86650000D01*
X342450000Y-86650000D02*
X342450000Y-82550000D01*
X339550000Y-88650000D02*
G75*
G03X339550000Y-88650000I-3000000J0D01*
G01*
X339550000Y-69600000D02*
G75*
G03X339550000Y-69600000I-3000000J0D01*
G01*
X342450000Y-67600000D02*
X342450000Y-63500000D01*
X330650000Y-63500000D02*
X330650000Y-67600000D01*
X330650000Y-71600000D02*
X330650000Y-75700000D01*
X342450000Y-71600000D02*
X342450000Y-75700000D01*
X342450000Y-75700000D02*
X330650000Y-75700000D01*
X340350000Y-77100000D02*
X340650000Y-77400000D01*
X340650000Y-77400000D02*
X340650000Y-76800000D01*
X340650000Y-76800000D02*
X340350000Y-77100000D01*
X342450000Y-63500000D02*
X340050000Y-63500000D01*
X337850000Y-63500000D02*
X335250000Y-63500000D01*
X333050000Y-63500000D02*
X330650000Y-63500000D01*
X337050000Y-69600000D02*
X336050000Y-69600000D01*
X336550000Y-70100000D02*
X336550000Y-69100000D01*
D12*
X180975000Y-139700000D02*
X180975000Y-137160000D01*
X178435000Y-139700000D02*
X180975000Y-139700000D01*
X208915000Y-154940000D02*
X178435000Y-154940000D01*
X208915000Y-137160000D02*
X208915000Y-154940000D01*
X178435000Y-137160000D02*
X208915000Y-137160000D01*
X178435000Y-154940000D02*
X178435000Y-137160000D01*
D11*
X96553750Y-69687221D02*
X96553750Y-70012779D01*
X95533750Y-69687221D02*
X95533750Y-70012779D01*
X101316250Y-69687221D02*
X101316250Y-70012779D01*
X100296250Y-69687221D02*
X100296250Y-70012779D01*
X96553750Y-88737221D02*
X96553750Y-89062779D01*
X95533750Y-88737221D02*
X95533750Y-89062779D01*
X101316250Y-88737221D02*
X101316250Y-89062779D01*
X100296250Y-88737221D02*
X100296250Y-89062779D01*
D13*
X218249500Y-143510000D02*
X218249500Y-148590000D01*
X218249500Y-148590000D02*
X216725500Y-148590000D01*
X216725500Y-148590000D02*
X216725500Y-143510000D01*
X216725500Y-143510000D02*
X218249500Y-143510000D01*
X218249500Y-143510000D02*
X218249500Y-144018000D01*
X218249500Y-148209000D02*
X216725500Y-148209000D01*
X216725500Y-148336000D02*
X218249500Y-148336000D01*
X218249500Y-148463000D02*
X216725500Y-148463000D01*
X216725500Y-148082000D02*
X218249500Y-148082000D01*
X218249500Y-147955000D02*
X216725500Y-147955000D01*
X218249500Y-147828000D02*
X216725500Y-147828000D01*
X326771000Y-68966250D02*
X326771000Y-74046250D01*
X326771000Y-74046250D02*
X325247000Y-74046250D01*
X325247000Y-74046250D02*
X325247000Y-68966250D01*
X325247000Y-68966250D02*
X326771000Y-68966250D01*
X326771000Y-68966250D02*
X326771000Y-69474250D01*
X326771000Y-73665250D02*
X325247000Y-73665250D01*
X325247000Y-73792250D02*
X326771000Y-73792250D01*
X326771000Y-73919250D02*
X325247000Y-73919250D01*
X325247000Y-73538250D02*
X326771000Y-73538250D01*
X326771000Y-73411250D02*
X325247000Y-73411250D01*
X326771000Y-73284250D02*
X325247000Y-73284250D01*
X320040000Y-76168250D02*
X314960000Y-76168250D01*
X314960000Y-76168250D02*
X314960000Y-74644250D01*
X314960000Y-74644250D02*
X320040000Y-74644250D01*
X320040000Y-74644250D02*
X320040000Y-76168250D01*
X320040000Y-76168250D02*
X319532000Y-76168250D01*
X315341000Y-76168250D02*
X315341000Y-74644250D01*
X315214000Y-74644250D02*
X315214000Y-76168250D01*
X315087000Y-76168250D02*
X315087000Y-74644250D01*
X315468000Y-74644250D02*
X315468000Y-76168250D01*
X315595000Y-76168250D02*
X315595000Y-74644250D01*
X315722000Y-76168250D02*
X315722000Y-74644250D01*
X300990000Y-76168250D02*
X295910000Y-76168250D01*
X295910000Y-76168250D02*
X295910000Y-74644250D01*
X295910000Y-74644250D02*
X300990000Y-74644250D01*
X300990000Y-74644250D02*
X300990000Y-76168250D01*
X300990000Y-76168250D02*
X300482000Y-76168250D01*
X296291000Y-76168250D02*
X296291000Y-74644250D01*
X296164000Y-74644250D02*
X296164000Y-76168250D01*
X296037000Y-76168250D02*
X296037000Y-74644250D01*
X296418000Y-74644250D02*
X296418000Y-76168250D01*
X296545000Y-76168250D02*
X296545000Y-74644250D01*
X296672000Y-76168250D02*
X296672000Y-74644250D01*
X281940000Y-76168250D02*
X276860000Y-76168250D01*
X276860000Y-76168250D02*
X276860000Y-74644250D01*
X276860000Y-74644250D02*
X281940000Y-74644250D01*
X281940000Y-74644250D02*
X281940000Y-76168250D01*
X281940000Y-76168250D02*
X281432000Y-76168250D01*
X277241000Y-76168250D02*
X277241000Y-74644250D01*
X277114000Y-74644250D02*
X277114000Y-76168250D01*
X276987000Y-76168250D02*
X276987000Y-74644250D01*
X277368000Y-74644250D02*
X277368000Y-76168250D01*
X277495000Y-76168250D02*
X277495000Y-74644250D01*
X277622000Y-76168250D02*
X277622000Y-74644250D01*
X262890000Y-76168250D02*
X257810000Y-76168250D01*
X257810000Y-76168250D02*
X257810000Y-74644250D01*
X257810000Y-74644250D02*
X262890000Y-74644250D01*
X262890000Y-74644250D02*
X262890000Y-76168250D01*
X262890000Y-76168250D02*
X262382000Y-76168250D01*
X258191000Y-76168250D02*
X258191000Y-74644250D01*
X258064000Y-74644250D02*
X258064000Y-76168250D01*
X257937000Y-76168250D02*
X257937000Y-74644250D01*
X258318000Y-74644250D02*
X258318000Y-76168250D01*
X258445000Y-76168250D02*
X258445000Y-74644250D01*
X258572000Y-76168250D02*
X258572000Y-74644250D01*
X243840000Y-76168250D02*
X238760000Y-76168250D01*
X238760000Y-76168250D02*
X238760000Y-74644250D01*
X238760000Y-74644250D02*
X243840000Y-74644250D01*
X243840000Y-74644250D02*
X243840000Y-76168250D01*
X243840000Y-76168250D02*
X243332000Y-76168250D01*
X239141000Y-76168250D02*
X239141000Y-74644250D01*
X239014000Y-74644250D02*
X239014000Y-76168250D01*
X238887000Y-76168250D02*
X238887000Y-74644250D01*
X239268000Y-74644250D02*
X239268000Y-76168250D01*
X239395000Y-76168250D02*
X239395000Y-74644250D01*
X239522000Y-76168250D02*
X239522000Y-74644250D01*
X224790000Y-76168250D02*
X219710000Y-76168250D01*
X219710000Y-76168250D02*
X219710000Y-74644250D01*
X219710000Y-74644250D02*
X224790000Y-74644250D01*
X224790000Y-74644250D02*
X224790000Y-76168250D01*
X224790000Y-76168250D02*
X224282000Y-76168250D01*
X220091000Y-76168250D02*
X220091000Y-74644250D01*
X219964000Y-74644250D02*
X219964000Y-76168250D01*
X219837000Y-76168250D02*
X219837000Y-74644250D01*
X220218000Y-74644250D02*
X220218000Y-76168250D01*
X220345000Y-76168250D02*
X220345000Y-74644250D01*
X220472000Y-76168250D02*
X220472000Y-74644250D01*
X205740000Y-76168250D02*
X200660000Y-76168250D01*
X200660000Y-76168250D02*
X200660000Y-74644250D01*
X200660000Y-74644250D02*
X205740000Y-74644250D01*
X205740000Y-74644250D02*
X205740000Y-76168250D01*
X205740000Y-76168250D02*
X205232000Y-76168250D01*
X201041000Y-76168250D02*
X201041000Y-74644250D01*
X200914000Y-74644250D02*
X200914000Y-76168250D01*
X200787000Y-76168250D02*
X200787000Y-74644250D01*
X201168000Y-74644250D02*
X201168000Y-76168250D01*
X201295000Y-76168250D02*
X201295000Y-74644250D01*
X201422000Y-76168250D02*
X201422000Y-74644250D01*
X186690000Y-76168250D02*
X181610000Y-76168250D01*
X181610000Y-76168250D02*
X181610000Y-74644250D01*
X181610000Y-74644250D02*
X186690000Y-74644250D01*
X186690000Y-74644250D02*
X186690000Y-76168250D01*
X186690000Y-76168250D02*
X186182000Y-76168250D01*
X181991000Y-76168250D02*
X181991000Y-74644250D01*
X181864000Y-74644250D02*
X181864000Y-76168250D01*
X181737000Y-76168250D02*
X181737000Y-74644250D01*
X182118000Y-74644250D02*
X182118000Y-76168250D01*
X182245000Y-76168250D02*
X182245000Y-74644250D01*
X182372000Y-76168250D02*
X182372000Y-74644250D01*
X167640000Y-76168250D02*
X162560000Y-76168250D01*
X162560000Y-76168250D02*
X162560000Y-74644250D01*
X162560000Y-74644250D02*
X167640000Y-74644250D01*
X167640000Y-74644250D02*
X167640000Y-76168250D01*
X167640000Y-76168250D02*
X167132000Y-76168250D01*
X162941000Y-76168250D02*
X162941000Y-74644250D01*
X162814000Y-74644250D02*
X162814000Y-76168250D01*
X162687000Y-76168250D02*
X162687000Y-74644250D01*
X163068000Y-74644250D02*
X163068000Y-76168250D01*
X163195000Y-76168250D02*
X163195000Y-74644250D01*
X163322000Y-76168250D02*
X163322000Y-74644250D01*
X148590000Y-76168250D02*
X143510000Y-76168250D01*
X143510000Y-76168250D02*
X143510000Y-74644250D01*
X143510000Y-74644250D02*
X148590000Y-74644250D01*
X148590000Y-74644250D02*
X148590000Y-76168250D01*
X148590000Y-76168250D02*
X148082000Y-76168250D01*
X143891000Y-76168250D02*
X143891000Y-74644250D01*
X143764000Y-74644250D02*
X143764000Y-76168250D01*
X143637000Y-76168250D02*
X143637000Y-74644250D01*
X144018000Y-74644250D02*
X144018000Y-76168250D01*
X144145000Y-76168250D02*
X144145000Y-74644250D01*
X144272000Y-76168250D02*
X144272000Y-74644250D01*
X129540000Y-76168250D02*
X124460000Y-76168250D01*
X124460000Y-76168250D02*
X124460000Y-74644250D01*
X124460000Y-74644250D02*
X129540000Y-74644250D01*
X129540000Y-74644250D02*
X129540000Y-76168250D01*
X129540000Y-76168250D02*
X129032000Y-76168250D01*
X124841000Y-76168250D02*
X124841000Y-74644250D01*
X124714000Y-74644250D02*
X124714000Y-76168250D01*
X124587000Y-76168250D02*
X124587000Y-74644250D01*
X124968000Y-74644250D02*
X124968000Y-76168250D01*
X125095000Y-76168250D02*
X125095000Y-74644250D01*
X125222000Y-76168250D02*
X125222000Y-74644250D01*
X110490000Y-76168250D02*
X105410000Y-76168250D01*
X105410000Y-76168250D02*
X105410000Y-74644250D01*
X105410000Y-74644250D02*
X110490000Y-74644250D01*
X110490000Y-74644250D02*
X110490000Y-76168250D01*
X110490000Y-76168250D02*
X109982000Y-76168250D01*
X105791000Y-76168250D02*
X105791000Y-74644250D01*
X105664000Y-74644250D02*
X105664000Y-76168250D01*
X105537000Y-76168250D02*
X105537000Y-74644250D01*
X105918000Y-74644250D02*
X105918000Y-76168250D01*
X106045000Y-76168250D02*
X106045000Y-74644250D01*
X106172000Y-76168250D02*
X106172000Y-74644250D01*
X91440000Y-76168250D02*
X86360000Y-76168250D01*
X86360000Y-76168250D02*
X86360000Y-74644250D01*
X86360000Y-74644250D02*
X91440000Y-74644250D01*
X91440000Y-74644250D02*
X91440000Y-76168250D01*
X91440000Y-76168250D02*
X90932000Y-76168250D01*
X86741000Y-76168250D02*
X86741000Y-74644250D01*
X86614000Y-74644250D02*
X86614000Y-76168250D01*
X86487000Y-76168250D02*
X86487000Y-74644250D01*
X86868000Y-74644250D02*
X86868000Y-76168250D01*
X86995000Y-76168250D02*
X86995000Y-74644250D01*
X87122000Y-76168250D02*
X87122000Y-74644250D01*
X339090000Y-152368250D02*
X334010000Y-152368250D01*
X334010000Y-152368250D02*
X334010000Y-150844250D01*
X334010000Y-150844250D02*
X339090000Y-150844250D01*
X339090000Y-150844250D02*
X339090000Y-152368250D01*
X339090000Y-152368250D02*
X338582000Y-152368250D01*
X334391000Y-152368250D02*
X334391000Y-150844250D01*
X334264000Y-150844250D02*
X334264000Y-152368250D01*
X334137000Y-152368250D02*
X334137000Y-150844250D01*
X334518000Y-150844250D02*
X334518000Y-152368250D01*
X334645000Y-152368250D02*
X334645000Y-150844250D01*
X334772000Y-152368250D02*
X334772000Y-150844250D01*
X320040000Y-152368250D02*
X314960000Y-152368250D01*
X314960000Y-152368250D02*
X314960000Y-150844250D01*
X314960000Y-150844250D02*
X320040000Y-150844250D01*
X320040000Y-150844250D02*
X320040000Y-152368250D01*
X320040000Y-152368250D02*
X319532000Y-152368250D01*
X315341000Y-152368250D02*
X315341000Y-150844250D01*
X315214000Y-150844250D02*
X315214000Y-152368250D01*
X315087000Y-152368250D02*
X315087000Y-150844250D01*
X315468000Y-150844250D02*
X315468000Y-152368250D01*
X315595000Y-152368250D02*
X315595000Y-150844250D01*
X315722000Y-152368250D02*
X315722000Y-150844250D01*
X300990000Y-152368250D02*
X295910000Y-152368250D01*
X295910000Y-152368250D02*
X295910000Y-150844250D01*
X295910000Y-150844250D02*
X300990000Y-150844250D01*
X300990000Y-150844250D02*
X300990000Y-152368250D01*
X300990000Y-152368250D02*
X300482000Y-152368250D01*
X296291000Y-152368250D02*
X296291000Y-150844250D01*
X296164000Y-150844250D02*
X296164000Y-152368250D01*
X296037000Y-152368250D02*
X296037000Y-150844250D01*
X296418000Y-150844250D02*
X296418000Y-152368250D01*
X296545000Y-152368250D02*
X296545000Y-150844250D01*
X296672000Y-152368250D02*
X296672000Y-150844250D01*
X281940000Y-152368250D02*
X276860000Y-152368250D01*
X276860000Y-152368250D02*
X276860000Y-150844250D01*
X276860000Y-150844250D02*
X281940000Y-150844250D01*
X281940000Y-150844250D02*
X281940000Y-152368250D01*
X281940000Y-152368250D02*
X281432000Y-152368250D01*
X277241000Y-152368250D02*
X277241000Y-150844250D01*
X277114000Y-150844250D02*
X277114000Y-152368250D01*
X276987000Y-152368250D02*
X276987000Y-150844250D01*
X277368000Y-150844250D02*
X277368000Y-152368250D01*
X277495000Y-152368250D02*
X277495000Y-150844250D01*
X277622000Y-152368250D02*
X277622000Y-150844250D01*
X262890000Y-152368250D02*
X257810000Y-152368250D01*
X257810000Y-152368250D02*
X257810000Y-150844250D01*
X257810000Y-150844250D02*
X262890000Y-150844250D01*
X262890000Y-150844250D02*
X262890000Y-152368250D01*
X262890000Y-152368250D02*
X262382000Y-152368250D01*
X258191000Y-152368250D02*
X258191000Y-150844250D01*
X258064000Y-150844250D02*
X258064000Y-152368250D01*
X257937000Y-152368250D02*
X257937000Y-150844250D01*
X258318000Y-150844250D02*
X258318000Y-152368250D01*
X258445000Y-152368250D02*
X258445000Y-150844250D01*
X258572000Y-152368250D02*
X258572000Y-150844250D01*
X234315000Y-152368250D02*
X229235000Y-152368250D01*
X229235000Y-152368250D02*
X229235000Y-150844250D01*
X229235000Y-150844250D02*
X234315000Y-150844250D01*
X234315000Y-150844250D02*
X234315000Y-152368250D01*
X234315000Y-152368250D02*
X233807000Y-152368250D01*
X229616000Y-152368250D02*
X229616000Y-150844250D01*
X229489000Y-150844250D02*
X229489000Y-152368250D01*
X229362000Y-152368250D02*
X229362000Y-150844250D01*
X229743000Y-150844250D02*
X229743000Y-152368250D01*
X229870000Y-152368250D02*
X229870000Y-150844250D01*
X229997000Y-152368250D02*
X229997000Y-150844250D01*
X211899500Y-143510000D02*
X211899500Y-148590000D01*
X211899500Y-148590000D02*
X210375500Y-148590000D01*
X210375500Y-148590000D02*
X210375500Y-143510000D01*
X210375500Y-143510000D02*
X211899500Y-143510000D01*
X211899500Y-143510000D02*
X211899500Y-144018000D01*
X211899500Y-148209000D02*
X210375500Y-148209000D01*
X210375500Y-148336000D02*
X211899500Y-148336000D01*
X211899500Y-148463000D02*
X210375500Y-148463000D01*
X210375500Y-148082000D02*
X211899500Y-148082000D01*
X211899500Y-147955000D02*
X210375500Y-147955000D01*
X211899500Y-147828000D02*
X210375500Y-147828000D01*
X215074500Y-143510000D02*
X215074500Y-148590000D01*
X215074500Y-148590000D02*
X213550500Y-148590000D01*
X213550500Y-148590000D02*
X213550500Y-143510000D01*
X213550500Y-143510000D02*
X215074500Y-143510000D01*
X215074500Y-143510000D02*
X215074500Y-144018000D01*
X215074500Y-148209000D02*
X213550500Y-148209000D01*
X213550500Y-148336000D02*
X215074500Y-148336000D01*
X215074500Y-148463000D02*
X213550500Y-148463000D01*
X213550500Y-148082000D02*
X215074500Y-148082000D01*
X215074500Y-147955000D02*
X213550500Y-147955000D01*
X215074500Y-147828000D02*
X213550500Y-147828000D01*
X158115000Y-152368250D02*
X153035000Y-152368250D01*
X153035000Y-152368250D02*
X153035000Y-150844250D01*
X153035000Y-150844250D02*
X158115000Y-150844250D01*
X158115000Y-150844250D02*
X158115000Y-152368250D01*
X158115000Y-152368250D02*
X157607000Y-152368250D01*
X153416000Y-152368250D02*
X153416000Y-150844250D01*
X153289000Y-150844250D02*
X153289000Y-152368250D01*
X153162000Y-152368250D02*
X153162000Y-150844250D01*
X153543000Y-150844250D02*
X153543000Y-152368250D01*
X153670000Y-152368250D02*
X153670000Y-150844250D01*
X153797000Y-152368250D02*
X153797000Y-150844250D01*
X129540000Y-152368250D02*
X124460000Y-152368250D01*
X124460000Y-152368250D02*
X124460000Y-150844250D01*
X124460000Y-150844250D02*
X129540000Y-150844250D01*
X129540000Y-150844250D02*
X129540000Y-152368250D01*
X129540000Y-152368250D02*
X129032000Y-152368250D01*
X124841000Y-152368250D02*
X124841000Y-150844250D01*
X124714000Y-150844250D02*
X124714000Y-152368250D01*
X124587000Y-152368250D02*
X124587000Y-150844250D01*
X124968000Y-150844250D02*
X124968000Y-152368250D01*
X125095000Y-152368250D02*
X125095000Y-150844250D01*
X125222000Y-152368250D02*
X125222000Y-150844250D01*
X110490000Y-152368250D02*
X105410000Y-152368250D01*
X105410000Y-152368250D02*
X105410000Y-150844250D01*
X105410000Y-150844250D02*
X110490000Y-150844250D01*
X110490000Y-150844250D02*
X110490000Y-152368250D01*
X110490000Y-152368250D02*
X109982000Y-152368250D01*
X105791000Y-152368250D02*
X105791000Y-150844250D01*
X105664000Y-150844250D02*
X105664000Y-152368250D01*
X105537000Y-152368250D02*
X105537000Y-150844250D01*
X105918000Y-150844250D02*
X105918000Y-152368250D01*
X106045000Y-152368250D02*
X106045000Y-150844250D01*
X106172000Y-152368250D02*
X106172000Y-150844250D01*
X91440000Y-152368250D02*
X86360000Y-152368250D01*
X86360000Y-152368250D02*
X86360000Y-150844250D01*
X86360000Y-150844250D02*
X91440000Y-150844250D01*
X91440000Y-150844250D02*
X91440000Y-152368250D01*
X91440000Y-152368250D02*
X90932000Y-152368250D01*
X86741000Y-152368250D02*
X86741000Y-150844250D01*
X86614000Y-150844250D02*
X86614000Y-152368250D01*
X86487000Y-152368250D02*
X86487000Y-150844250D01*
X86868000Y-150844250D02*
X86868000Y-152368250D01*
X86995000Y-152368250D02*
X86995000Y-150844250D01*
X87122000Y-152368250D02*
X87122000Y-150844250D01*
X339090000Y-133318250D02*
X334010000Y-133318250D01*
X334010000Y-133318250D02*
X334010000Y-131794250D01*
X334010000Y-131794250D02*
X339090000Y-131794250D01*
X339090000Y-131794250D02*
X339090000Y-133318250D01*
X339090000Y-133318250D02*
X338582000Y-133318250D01*
X334391000Y-133318250D02*
X334391000Y-131794250D01*
X334264000Y-131794250D02*
X334264000Y-133318250D01*
X334137000Y-133318250D02*
X334137000Y-131794250D01*
X334518000Y-131794250D02*
X334518000Y-133318250D01*
X334645000Y-133318250D02*
X334645000Y-131794250D01*
X334772000Y-133318250D02*
X334772000Y-131794250D01*
X320040000Y-133318250D02*
X314960000Y-133318250D01*
X314960000Y-133318250D02*
X314960000Y-131794250D01*
X314960000Y-131794250D02*
X320040000Y-131794250D01*
X320040000Y-131794250D02*
X320040000Y-133318250D01*
X320040000Y-133318250D02*
X319532000Y-133318250D01*
X315341000Y-133318250D02*
X315341000Y-131794250D01*
X315214000Y-131794250D02*
X315214000Y-133318250D01*
X315087000Y-133318250D02*
X315087000Y-131794250D01*
X315468000Y-131794250D02*
X315468000Y-133318250D01*
X315595000Y-133318250D02*
X315595000Y-131794250D01*
X315722000Y-133318250D02*
X315722000Y-131794250D01*
X300990000Y-133318250D02*
X295910000Y-133318250D01*
X295910000Y-133318250D02*
X295910000Y-131794250D01*
X295910000Y-131794250D02*
X300990000Y-131794250D01*
X300990000Y-131794250D02*
X300990000Y-133318250D01*
X300990000Y-133318250D02*
X300482000Y-133318250D01*
X296291000Y-133318250D02*
X296291000Y-131794250D01*
X296164000Y-131794250D02*
X296164000Y-133318250D01*
X296037000Y-133318250D02*
X296037000Y-131794250D01*
X296418000Y-131794250D02*
X296418000Y-133318250D01*
X296545000Y-133318250D02*
X296545000Y-131794250D01*
X296672000Y-133318250D02*
X296672000Y-131794250D01*
X281940000Y-133318250D02*
X276860000Y-133318250D01*
X276860000Y-133318250D02*
X276860000Y-131794250D01*
X276860000Y-131794250D02*
X281940000Y-131794250D01*
X281940000Y-131794250D02*
X281940000Y-133318250D01*
X281940000Y-133318250D02*
X281432000Y-133318250D01*
X277241000Y-133318250D02*
X277241000Y-131794250D01*
X277114000Y-131794250D02*
X277114000Y-133318250D01*
X276987000Y-133318250D02*
X276987000Y-131794250D01*
X277368000Y-131794250D02*
X277368000Y-133318250D01*
X277495000Y-133318250D02*
X277495000Y-131794250D01*
X277622000Y-133318250D02*
X277622000Y-131794250D01*
X262890000Y-133318250D02*
X257810000Y-133318250D01*
X257810000Y-133318250D02*
X257810000Y-131794250D01*
X257810000Y-131794250D02*
X262890000Y-131794250D01*
X262890000Y-131794250D02*
X262890000Y-133318250D01*
X262890000Y-133318250D02*
X262382000Y-133318250D01*
X258191000Y-133318250D02*
X258191000Y-131794250D01*
X258064000Y-131794250D02*
X258064000Y-133318250D01*
X257937000Y-133318250D02*
X257937000Y-131794250D01*
X258318000Y-131794250D02*
X258318000Y-133318250D01*
X258445000Y-133318250D02*
X258445000Y-131794250D01*
X258572000Y-133318250D02*
X258572000Y-131794250D01*
X243840000Y-133318250D02*
X238760000Y-133318250D01*
X238760000Y-133318250D02*
X238760000Y-131794250D01*
X238760000Y-131794250D02*
X243840000Y-131794250D01*
X243840000Y-131794250D02*
X243840000Y-133318250D01*
X243840000Y-133318250D02*
X243332000Y-133318250D01*
X239141000Y-133318250D02*
X239141000Y-131794250D01*
X239014000Y-131794250D02*
X239014000Y-133318250D01*
X238887000Y-133318250D02*
X238887000Y-131794250D01*
X239268000Y-131794250D02*
X239268000Y-133318250D01*
X239395000Y-133318250D02*
X239395000Y-131794250D01*
X239522000Y-133318250D02*
X239522000Y-131794250D01*
X224790000Y-133318250D02*
X219710000Y-133318250D01*
X219710000Y-133318250D02*
X219710000Y-131794250D01*
X219710000Y-131794250D02*
X224790000Y-131794250D01*
X224790000Y-131794250D02*
X224790000Y-133318250D01*
X224790000Y-133318250D02*
X224282000Y-133318250D01*
X220091000Y-133318250D02*
X220091000Y-131794250D01*
X219964000Y-131794250D02*
X219964000Y-133318250D01*
X219837000Y-133318250D02*
X219837000Y-131794250D01*
X220218000Y-131794250D02*
X220218000Y-133318250D01*
X220345000Y-133318250D02*
X220345000Y-131794250D01*
X220472000Y-133318250D02*
X220472000Y-131794250D01*
X205740000Y-133318250D02*
X200660000Y-133318250D01*
X200660000Y-133318250D02*
X200660000Y-131794250D01*
X200660000Y-131794250D02*
X205740000Y-131794250D01*
X205740000Y-131794250D02*
X205740000Y-133318250D01*
X205740000Y-133318250D02*
X205232000Y-133318250D01*
X201041000Y-133318250D02*
X201041000Y-131794250D01*
X200914000Y-131794250D02*
X200914000Y-133318250D01*
X200787000Y-133318250D02*
X200787000Y-131794250D01*
X201168000Y-131794250D02*
X201168000Y-133318250D01*
X201295000Y-133318250D02*
X201295000Y-131794250D01*
X201422000Y-133318250D02*
X201422000Y-131794250D01*
X186690000Y-133318250D02*
X181610000Y-133318250D01*
X181610000Y-133318250D02*
X181610000Y-131794250D01*
X181610000Y-131794250D02*
X186690000Y-131794250D01*
X186690000Y-131794250D02*
X186690000Y-133318250D01*
X186690000Y-133318250D02*
X186182000Y-133318250D01*
X181991000Y-133318250D02*
X181991000Y-131794250D01*
X181864000Y-131794250D02*
X181864000Y-133318250D01*
X181737000Y-133318250D02*
X181737000Y-131794250D01*
X182118000Y-131794250D02*
X182118000Y-133318250D01*
X182245000Y-133318250D02*
X182245000Y-131794250D01*
X182372000Y-133318250D02*
X182372000Y-131794250D01*
X167640000Y-133318250D02*
X162560000Y-133318250D01*
X162560000Y-133318250D02*
X162560000Y-131794250D01*
X162560000Y-131794250D02*
X167640000Y-131794250D01*
X167640000Y-131794250D02*
X167640000Y-133318250D01*
X167640000Y-133318250D02*
X167132000Y-133318250D01*
X162941000Y-133318250D02*
X162941000Y-131794250D01*
X162814000Y-131794250D02*
X162814000Y-133318250D01*
X162687000Y-133318250D02*
X162687000Y-131794250D01*
X163068000Y-131794250D02*
X163068000Y-133318250D01*
X163195000Y-133318250D02*
X163195000Y-131794250D01*
X163322000Y-133318250D02*
X163322000Y-131794250D01*
X148590000Y-133318250D02*
X143510000Y-133318250D01*
X143510000Y-133318250D02*
X143510000Y-131794250D01*
X143510000Y-131794250D02*
X148590000Y-131794250D01*
X148590000Y-131794250D02*
X148590000Y-133318250D01*
X148590000Y-133318250D02*
X148082000Y-133318250D01*
X143891000Y-133318250D02*
X143891000Y-131794250D01*
X143764000Y-131794250D02*
X143764000Y-133318250D01*
X143637000Y-133318250D02*
X143637000Y-131794250D01*
X144018000Y-131794250D02*
X144018000Y-133318250D01*
X144145000Y-133318250D02*
X144145000Y-131794250D01*
X144272000Y-133318250D02*
X144272000Y-131794250D01*
X129540000Y-133318250D02*
X124460000Y-133318250D01*
X124460000Y-133318250D02*
X124460000Y-131794250D01*
X124460000Y-131794250D02*
X129540000Y-131794250D01*
X129540000Y-131794250D02*
X129540000Y-133318250D01*
X129540000Y-133318250D02*
X129032000Y-133318250D01*
X124841000Y-133318250D02*
X124841000Y-131794250D01*
X124714000Y-131794250D02*
X124714000Y-133318250D01*
X124587000Y-133318250D02*
X124587000Y-131794250D01*
X124968000Y-131794250D02*
X124968000Y-133318250D01*
X125095000Y-133318250D02*
X125095000Y-131794250D01*
X125222000Y-133318250D02*
X125222000Y-131794250D01*
X110490000Y-133318250D02*
X105410000Y-133318250D01*
X105410000Y-133318250D02*
X105410000Y-131794250D01*
X105410000Y-131794250D02*
X110490000Y-131794250D01*
X110490000Y-131794250D02*
X110490000Y-133318250D01*
X110490000Y-133318250D02*
X109982000Y-133318250D01*
X105791000Y-133318250D02*
X105791000Y-131794250D01*
X105664000Y-131794250D02*
X105664000Y-133318250D01*
X105537000Y-133318250D02*
X105537000Y-131794250D01*
X105918000Y-131794250D02*
X105918000Y-133318250D01*
X106045000Y-133318250D02*
X106045000Y-131794250D01*
X106172000Y-133318250D02*
X106172000Y-131794250D01*
X91440000Y-133318250D02*
X86360000Y-133318250D01*
X86360000Y-133318250D02*
X86360000Y-131794250D01*
X86360000Y-131794250D02*
X91440000Y-131794250D01*
X91440000Y-131794250D02*
X91440000Y-133318250D01*
X91440000Y-133318250D02*
X90932000Y-133318250D01*
X86741000Y-133318250D02*
X86741000Y-131794250D01*
X86614000Y-131794250D02*
X86614000Y-133318250D01*
X86487000Y-133318250D02*
X86487000Y-131794250D01*
X86868000Y-131794250D02*
X86868000Y-133318250D01*
X86995000Y-133318250D02*
X86995000Y-131794250D01*
X87122000Y-133318250D02*
X87122000Y-131794250D01*
X339090000Y-114268250D02*
X334010000Y-114268250D01*
X334010000Y-114268250D02*
X334010000Y-112744250D01*
X334010000Y-112744250D02*
X339090000Y-112744250D01*
X339090000Y-112744250D02*
X339090000Y-114268250D01*
X339090000Y-114268250D02*
X338582000Y-114268250D01*
X334391000Y-114268250D02*
X334391000Y-112744250D01*
X334264000Y-112744250D02*
X334264000Y-114268250D01*
X334137000Y-114268250D02*
X334137000Y-112744250D01*
X334518000Y-112744250D02*
X334518000Y-114268250D01*
X334645000Y-114268250D02*
X334645000Y-112744250D01*
X334772000Y-114268250D02*
X334772000Y-112744250D01*
X320040000Y-114268250D02*
X314960000Y-114268250D01*
X314960000Y-114268250D02*
X314960000Y-112744250D01*
X314960000Y-112744250D02*
X320040000Y-112744250D01*
X320040000Y-112744250D02*
X320040000Y-114268250D01*
X320040000Y-114268250D02*
X319532000Y-114268250D01*
X315341000Y-114268250D02*
X315341000Y-112744250D01*
X315214000Y-112744250D02*
X315214000Y-114268250D01*
X315087000Y-114268250D02*
X315087000Y-112744250D01*
X315468000Y-112744250D02*
X315468000Y-114268250D01*
X315595000Y-114268250D02*
X315595000Y-112744250D01*
X315722000Y-114268250D02*
X315722000Y-112744250D01*
X300990000Y-114268250D02*
X295910000Y-114268250D01*
X295910000Y-114268250D02*
X295910000Y-112744250D01*
X295910000Y-112744250D02*
X300990000Y-112744250D01*
X300990000Y-112744250D02*
X300990000Y-114268250D01*
X300990000Y-114268250D02*
X300482000Y-114268250D01*
X296291000Y-114268250D02*
X296291000Y-112744250D01*
X296164000Y-112744250D02*
X296164000Y-114268250D01*
X296037000Y-114268250D02*
X296037000Y-112744250D01*
X296418000Y-112744250D02*
X296418000Y-114268250D01*
X296545000Y-114268250D02*
X296545000Y-112744250D01*
X296672000Y-114268250D02*
X296672000Y-112744250D01*
X281940000Y-114268250D02*
X276860000Y-114268250D01*
X276860000Y-114268250D02*
X276860000Y-112744250D01*
X276860000Y-112744250D02*
X281940000Y-112744250D01*
X281940000Y-112744250D02*
X281940000Y-114268250D01*
X281940000Y-114268250D02*
X281432000Y-114268250D01*
X277241000Y-114268250D02*
X277241000Y-112744250D01*
X277114000Y-112744250D02*
X277114000Y-114268250D01*
X276987000Y-114268250D02*
X276987000Y-112744250D01*
X277368000Y-112744250D02*
X277368000Y-114268250D01*
X277495000Y-114268250D02*
X277495000Y-112744250D01*
X277622000Y-114268250D02*
X277622000Y-112744250D01*
X262890000Y-114268250D02*
X257810000Y-114268250D01*
X257810000Y-114268250D02*
X257810000Y-112744250D01*
X257810000Y-112744250D02*
X262890000Y-112744250D01*
X262890000Y-112744250D02*
X262890000Y-114268250D01*
X262890000Y-114268250D02*
X262382000Y-114268250D01*
X258191000Y-114268250D02*
X258191000Y-112744250D01*
X258064000Y-112744250D02*
X258064000Y-114268250D01*
X257937000Y-114268250D02*
X257937000Y-112744250D01*
X258318000Y-112744250D02*
X258318000Y-114268250D01*
X258445000Y-114268250D02*
X258445000Y-112744250D01*
X258572000Y-114268250D02*
X258572000Y-112744250D01*
X243840000Y-114268250D02*
X238760000Y-114268250D01*
X238760000Y-114268250D02*
X238760000Y-112744250D01*
X238760000Y-112744250D02*
X243840000Y-112744250D01*
X243840000Y-112744250D02*
X243840000Y-114268250D01*
X243840000Y-114268250D02*
X243332000Y-114268250D01*
X239141000Y-114268250D02*
X239141000Y-112744250D01*
X239014000Y-112744250D02*
X239014000Y-114268250D01*
X238887000Y-114268250D02*
X238887000Y-112744250D01*
X239268000Y-112744250D02*
X239268000Y-114268250D01*
X239395000Y-114268250D02*
X239395000Y-112744250D01*
X239522000Y-114268250D02*
X239522000Y-112744250D01*
X224790000Y-114268250D02*
X219710000Y-114268250D01*
X219710000Y-114268250D02*
X219710000Y-112744250D01*
X219710000Y-112744250D02*
X224790000Y-112744250D01*
X224790000Y-112744250D02*
X224790000Y-114268250D01*
X224790000Y-114268250D02*
X224282000Y-114268250D01*
X220091000Y-114268250D02*
X220091000Y-112744250D01*
X219964000Y-112744250D02*
X219964000Y-114268250D01*
X219837000Y-114268250D02*
X219837000Y-112744250D01*
X220218000Y-112744250D02*
X220218000Y-114268250D01*
X220345000Y-114268250D02*
X220345000Y-112744250D01*
X220472000Y-114268250D02*
X220472000Y-112744250D01*
X205740000Y-114268250D02*
X200660000Y-114268250D01*
X200660000Y-114268250D02*
X200660000Y-112744250D01*
X200660000Y-112744250D02*
X205740000Y-112744250D01*
X205740000Y-112744250D02*
X205740000Y-114268250D01*
X205740000Y-114268250D02*
X205232000Y-114268250D01*
X201041000Y-114268250D02*
X201041000Y-112744250D01*
X200914000Y-112744250D02*
X200914000Y-114268250D01*
X200787000Y-114268250D02*
X200787000Y-112744250D01*
X201168000Y-112744250D02*
X201168000Y-114268250D01*
X201295000Y-114268250D02*
X201295000Y-112744250D01*
X201422000Y-114268250D02*
X201422000Y-112744250D01*
X186690000Y-114268250D02*
X181610000Y-114268250D01*
X181610000Y-114268250D02*
X181610000Y-112744250D01*
X181610000Y-112744250D02*
X186690000Y-112744250D01*
X186690000Y-112744250D02*
X186690000Y-114268250D01*
X186690000Y-114268250D02*
X186182000Y-114268250D01*
X181991000Y-114268250D02*
X181991000Y-112744250D01*
X181864000Y-112744250D02*
X181864000Y-114268250D01*
X181737000Y-114268250D02*
X181737000Y-112744250D01*
X182118000Y-112744250D02*
X182118000Y-114268250D01*
X182245000Y-114268250D02*
X182245000Y-112744250D01*
X182372000Y-114268250D02*
X182372000Y-112744250D01*
X167640000Y-114268250D02*
X162560000Y-114268250D01*
X162560000Y-114268250D02*
X162560000Y-112744250D01*
X162560000Y-112744250D02*
X167640000Y-112744250D01*
X167640000Y-112744250D02*
X167640000Y-114268250D01*
X167640000Y-114268250D02*
X167132000Y-114268250D01*
X162941000Y-114268250D02*
X162941000Y-112744250D01*
X162814000Y-112744250D02*
X162814000Y-114268250D01*
X162687000Y-114268250D02*
X162687000Y-112744250D01*
X163068000Y-112744250D02*
X163068000Y-114268250D01*
X163195000Y-114268250D02*
X163195000Y-112744250D01*
X163322000Y-114268250D02*
X163322000Y-112744250D01*
X148590000Y-114268250D02*
X143510000Y-114268250D01*
X143510000Y-114268250D02*
X143510000Y-112744250D01*
X143510000Y-112744250D02*
X148590000Y-112744250D01*
X148590000Y-112744250D02*
X148590000Y-114268250D01*
X148590000Y-114268250D02*
X148082000Y-114268250D01*
X143891000Y-114268250D02*
X143891000Y-112744250D01*
X143764000Y-112744250D02*
X143764000Y-114268250D01*
X143637000Y-114268250D02*
X143637000Y-112744250D01*
X144018000Y-112744250D02*
X144018000Y-114268250D01*
X144145000Y-114268250D02*
X144145000Y-112744250D01*
X144272000Y-114268250D02*
X144272000Y-112744250D01*
X129540000Y-114268250D02*
X124460000Y-114268250D01*
X124460000Y-114268250D02*
X124460000Y-112744250D01*
X124460000Y-112744250D02*
X129540000Y-112744250D01*
X129540000Y-112744250D02*
X129540000Y-114268250D01*
X129540000Y-114268250D02*
X129032000Y-114268250D01*
X124841000Y-114268250D02*
X124841000Y-112744250D01*
X124714000Y-112744250D02*
X124714000Y-114268250D01*
X124587000Y-114268250D02*
X124587000Y-112744250D01*
X124968000Y-112744250D02*
X124968000Y-114268250D01*
X125095000Y-114268250D02*
X125095000Y-112744250D01*
X125222000Y-114268250D02*
X125222000Y-112744250D01*
X110490000Y-114268250D02*
X105410000Y-114268250D01*
X105410000Y-114268250D02*
X105410000Y-112744250D01*
X105410000Y-112744250D02*
X110490000Y-112744250D01*
X110490000Y-112744250D02*
X110490000Y-114268250D01*
X110490000Y-114268250D02*
X109982000Y-114268250D01*
X105791000Y-114268250D02*
X105791000Y-112744250D01*
X105664000Y-112744250D02*
X105664000Y-114268250D01*
X105537000Y-114268250D02*
X105537000Y-112744250D01*
X105918000Y-112744250D02*
X105918000Y-114268250D01*
X106045000Y-114268250D02*
X106045000Y-112744250D01*
X106172000Y-114268250D02*
X106172000Y-112744250D01*
X91440000Y-114268250D02*
X86360000Y-114268250D01*
X86360000Y-114268250D02*
X86360000Y-112744250D01*
X86360000Y-112744250D02*
X91440000Y-112744250D01*
X91440000Y-112744250D02*
X91440000Y-114268250D01*
X91440000Y-114268250D02*
X90932000Y-114268250D01*
X86741000Y-114268250D02*
X86741000Y-112744250D01*
X86614000Y-112744250D02*
X86614000Y-114268250D01*
X86487000Y-114268250D02*
X86487000Y-112744250D01*
X86868000Y-112744250D02*
X86868000Y-114268250D01*
X86995000Y-114268250D02*
X86995000Y-112744250D01*
X87122000Y-114268250D02*
X87122000Y-112744250D01*
X326771000Y-88016250D02*
X326771000Y-93096250D01*
X326771000Y-93096250D02*
X325247000Y-93096250D01*
X325247000Y-93096250D02*
X325247000Y-88016250D01*
X325247000Y-88016250D02*
X326771000Y-88016250D01*
X326771000Y-88016250D02*
X326771000Y-88524250D01*
X326771000Y-92715250D02*
X325247000Y-92715250D01*
X325247000Y-92842250D02*
X326771000Y-92842250D01*
X326771000Y-92969250D02*
X325247000Y-92969250D01*
X325247000Y-92588250D02*
X326771000Y-92588250D01*
X326771000Y-92461250D02*
X325247000Y-92461250D01*
X326771000Y-92334250D02*
X325247000Y-92334250D01*
X320040000Y-95218250D02*
X314960000Y-95218250D01*
X314960000Y-95218250D02*
X314960000Y-93694250D01*
X314960000Y-93694250D02*
X320040000Y-93694250D01*
X320040000Y-93694250D02*
X320040000Y-95218250D01*
X320040000Y-95218250D02*
X319532000Y-95218250D01*
X315341000Y-95218250D02*
X315341000Y-93694250D01*
X315214000Y-93694250D02*
X315214000Y-95218250D01*
X315087000Y-95218250D02*
X315087000Y-93694250D01*
X315468000Y-93694250D02*
X315468000Y-95218250D01*
X315595000Y-95218250D02*
X315595000Y-93694250D01*
X315722000Y-95218250D02*
X315722000Y-93694250D01*
X300990000Y-95218250D02*
X295910000Y-95218250D01*
X295910000Y-95218250D02*
X295910000Y-93694250D01*
X295910000Y-93694250D02*
X300990000Y-93694250D01*
X300990000Y-93694250D02*
X300990000Y-95218250D01*
X300990000Y-95218250D02*
X300482000Y-95218250D01*
X296291000Y-95218250D02*
X296291000Y-93694250D01*
X296164000Y-93694250D02*
X296164000Y-95218250D01*
X296037000Y-95218250D02*
X296037000Y-93694250D01*
X296418000Y-93694250D02*
X296418000Y-95218250D01*
X296545000Y-95218250D02*
X296545000Y-93694250D01*
X296672000Y-95218250D02*
X296672000Y-93694250D01*
X281940000Y-95218250D02*
X276860000Y-95218250D01*
X276860000Y-95218250D02*
X276860000Y-93694250D01*
X276860000Y-93694250D02*
X281940000Y-93694250D01*
X281940000Y-93694250D02*
X281940000Y-95218250D01*
X281940000Y-95218250D02*
X281432000Y-95218250D01*
X277241000Y-95218250D02*
X277241000Y-93694250D01*
X277114000Y-93694250D02*
X277114000Y-95218250D01*
X276987000Y-95218250D02*
X276987000Y-93694250D01*
X277368000Y-93694250D02*
X277368000Y-95218250D01*
X277495000Y-95218250D02*
X277495000Y-93694250D01*
X277622000Y-95218250D02*
X277622000Y-93694250D01*
X262890000Y-95218250D02*
X257810000Y-95218250D01*
X257810000Y-95218250D02*
X257810000Y-93694250D01*
X257810000Y-93694250D02*
X262890000Y-93694250D01*
X262890000Y-93694250D02*
X262890000Y-95218250D01*
X262890000Y-95218250D02*
X262382000Y-95218250D01*
X258191000Y-95218250D02*
X258191000Y-93694250D01*
X258064000Y-93694250D02*
X258064000Y-95218250D01*
X257937000Y-95218250D02*
X257937000Y-93694250D01*
X258318000Y-93694250D02*
X258318000Y-95218250D01*
X258445000Y-95218250D02*
X258445000Y-93694250D01*
X258572000Y-95218250D02*
X258572000Y-93694250D01*
X243840000Y-95218250D02*
X238760000Y-95218250D01*
X238760000Y-95218250D02*
X238760000Y-93694250D01*
X238760000Y-93694250D02*
X243840000Y-93694250D01*
X243840000Y-93694250D02*
X243840000Y-95218250D01*
X243840000Y-95218250D02*
X243332000Y-95218250D01*
X239141000Y-95218250D02*
X239141000Y-93694250D01*
X239014000Y-93694250D02*
X239014000Y-95218250D01*
X238887000Y-95218250D02*
X238887000Y-93694250D01*
X239268000Y-93694250D02*
X239268000Y-95218250D01*
X239395000Y-95218250D02*
X239395000Y-93694250D01*
X239522000Y-95218250D02*
X239522000Y-93694250D01*
X224790000Y-95218250D02*
X219710000Y-95218250D01*
X219710000Y-95218250D02*
X219710000Y-93694250D01*
X219710000Y-93694250D02*
X224790000Y-93694250D01*
X224790000Y-93694250D02*
X224790000Y-95218250D01*
X224790000Y-95218250D02*
X224282000Y-95218250D01*
X220091000Y-95218250D02*
X220091000Y-93694250D01*
X219964000Y-93694250D02*
X219964000Y-95218250D01*
X219837000Y-95218250D02*
X219837000Y-93694250D01*
X220218000Y-93694250D02*
X220218000Y-95218250D01*
X220345000Y-95218250D02*
X220345000Y-93694250D01*
X220472000Y-95218250D02*
X220472000Y-93694250D01*
X205740000Y-95218250D02*
X200660000Y-95218250D01*
X200660000Y-95218250D02*
X200660000Y-93694250D01*
X200660000Y-93694250D02*
X205740000Y-93694250D01*
X205740000Y-93694250D02*
X205740000Y-95218250D01*
X205740000Y-95218250D02*
X205232000Y-95218250D01*
X201041000Y-95218250D02*
X201041000Y-93694250D01*
X200914000Y-93694250D02*
X200914000Y-95218250D01*
X200787000Y-95218250D02*
X200787000Y-93694250D01*
X201168000Y-93694250D02*
X201168000Y-95218250D01*
X201295000Y-95218250D02*
X201295000Y-93694250D01*
X201422000Y-95218250D02*
X201422000Y-93694250D01*
X186690000Y-95218250D02*
X181610000Y-95218250D01*
X181610000Y-95218250D02*
X181610000Y-93694250D01*
X181610000Y-93694250D02*
X186690000Y-93694250D01*
X186690000Y-93694250D02*
X186690000Y-95218250D01*
X186690000Y-95218250D02*
X186182000Y-95218250D01*
X181991000Y-95218250D02*
X181991000Y-93694250D01*
X181864000Y-93694250D02*
X181864000Y-95218250D01*
X181737000Y-95218250D02*
X181737000Y-93694250D01*
X182118000Y-93694250D02*
X182118000Y-95218250D01*
X182245000Y-95218250D02*
X182245000Y-93694250D01*
X182372000Y-95218250D02*
X182372000Y-93694250D01*
X167640000Y-95218250D02*
X162560000Y-95218250D01*
X162560000Y-95218250D02*
X162560000Y-93694250D01*
X162560000Y-93694250D02*
X167640000Y-93694250D01*
X167640000Y-93694250D02*
X167640000Y-95218250D01*
X167640000Y-95218250D02*
X167132000Y-95218250D01*
X162941000Y-95218250D02*
X162941000Y-93694250D01*
X162814000Y-93694250D02*
X162814000Y-95218250D01*
X162687000Y-95218250D02*
X162687000Y-93694250D01*
X163068000Y-93694250D02*
X163068000Y-95218250D01*
X163195000Y-95218250D02*
X163195000Y-93694250D01*
X163322000Y-95218250D02*
X163322000Y-93694250D01*
X148590000Y-95218250D02*
X143510000Y-95218250D01*
X143510000Y-95218250D02*
X143510000Y-93694250D01*
X143510000Y-93694250D02*
X148590000Y-93694250D01*
X148590000Y-93694250D02*
X148590000Y-95218250D01*
X148590000Y-95218250D02*
X148082000Y-95218250D01*
X143891000Y-95218250D02*
X143891000Y-93694250D01*
X143764000Y-93694250D02*
X143764000Y-95218250D01*
X143637000Y-95218250D02*
X143637000Y-93694250D01*
X144018000Y-93694250D02*
X144018000Y-95218250D01*
X144145000Y-95218250D02*
X144145000Y-93694250D01*
X144272000Y-95218250D02*
X144272000Y-93694250D01*
X129540000Y-95218250D02*
X124460000Y-95218250D01*
X124460000Y-95218250D02*
X124460000Y-93694250D01*
X124460000Y-93694250D02*
X129540000Y-93694250D01*
X129540000Y-93694250D02*
X129540000Y-95218250D01*
X129540000Y-95218250D02*
X129032000Y-95218250D01*
X124841000Y-95218250D02*
X124841000Y-93694250D01*
X124714000Y-93694250D02*
X124714000Y-95218250D01*
X124587000Y-95218250D02*
X124587000Y-93694250D01*
X124968000Y-93694250D02*
X124968000Y-95218250D01*
X125095000Y-95218250D02*
X125095000Y-93694250D01*
X125222000Y-95218250D02*
X125222000Y-93694250D01*
X110490000Y-95218250D02*
X105410000Y-95218250D01*
X105410000Y-95218250D02*
X105410000Y-93694250D01*
X105410000Y-93694250D02*
X110490000Y-93694250D01*
X110490000Y-93694250D02*
X110490000Y-95218250D01*
X110490000Y-95218250D02*
X109982000Y-95218250D01*
X105791000Y-95218250D02*
X105791000Y-93694250D01*
X105664000Y-93694250D02*
X105664000Y-95218250D01*
X105537000Y-95218250D02*
X105537000Y-93694250D01*
X105918000Y-93694250D02*
X105918000Y-95218250D01*
X106045000Y-95218250D02*
X106045000Y-93694250D01*
X106172000Y-95218250D02*
X106172000Y-93694250D01*
X91440000Y-95218250D02*
X86360000Y-95218250D01*
X86360000Y-95218250D02*
X86360000Y-93694250D01*
X86360000Y-93694250D02*
X91440000Y-93694250D01*
X91440000Y-93694250D02*
X91440000Y-95218250D01*
X91440000Y-95218250D02*
X90932000Y-95218250D01*
X86741000Y-95218250D02*
X86741000Y-93694250D01*
X86614000Y-93694250D02*
X86614000Y-95218250D01*
X86487000Y-95218250D02*
X86487000Y-93694250D01*
X86868000Y-93694250D02*
X86868000Y-95218250D01*
X86995000Y-95218250D02*
X86995000Y-93694250D01*
X87122000Y-95218250D02*
X87122000Y-93694250D01*
X179322619Y-151340476D02*
X179798809Y-151673809D01*
X179322619Y-151911904D02*
X180322619Y-151911904D01*
X180322619Y-151530952D01*
X180275000Y-151435714D01*
X180227380Y-151388095D01*
X180132142Y-151340476D01*
X179989285Y-151340476D01*
X179894047Y-151388095D01*
X179846428Y-151435714D01*
X179798809Y-151530952D01*
X179798809Y-151911904D01*
X179608333Y-150959523D02*
X179608333Y-150483333D01*
X179322619Y-151054761D02*
X180322619Y-150721428D01*
X179322619Y-150388095D01*
X180322619Y-150150000D02*
X179322619Y-149911904D01*
X180036904Y-149721428D01*
X179322619Y-149530952D01*
X180322619Y-149292857D01*
D14*
X216443690Y-146842857D02*
X215943690Y-146842857D01*
X215943690Y-146961904D01*
X215967500Y-147033333D01*
X216015119Y-147080952D01*
X216062738Y-147104761D01*
X216157976Y-147128571D01*
X216229404Y-147128571D01*
X216324642Y-147104761D01*
X216372261Y-147080952D01*
X216419880Y-147033333D01*
X216443690Y-146961904D01*
X216443690Y-146842857D01*
X215943690Y-147557142D02*
X215943690Y-147461904D01*
X215967500Y-147414285D01*
X215991309Y-147390476D01*
X216062738Y-147342857D01*
X216157976Y-147319047D01*
X216348452Y-147319047D01*
X216396071Y-147342857D01*
X216419880Y-147366666D01*
X216443690Y-147414285D01*
X216443690Y-147509523D01*
X216419880Y-147557142D01*
X216396071Y-147580952D01*
X216348452Y-147604761D01*
X216229404Y-147604761D01*
X216181785Y-147580952D01*
X216157976Y-147557142D01*
X216134166Y-147509523D01*
X216134166Y-147414285D01*
X216157976Y-147366666D01*
X216181785Y-147342857D01*
X216229404Y-147319047D01*
X215943690Y-147771428D02*
X215943690Y-148080952D01*
X216134166Y-147914285D01*
X216134166Y-147985714D01*
X216157976Y-148033333D01*
X216181785Y-148057142D01*
X216229404Y-148080952D01*
X216348452Y-148080952D01*
X216396071Y-148057142D01*
X216419880Y-148033333D01*
X216443690Y-147985714D01*
X216443690Y-147842857D01*
X216419880Y-147795238D01*
X216396071Y-147771428D01*
X324965190Y-72299107D02*
X324465190Y-72299107D01*
X324465190Y-72418154D01*
X324489000Y-72489583D01*
X324536619Y-72537202D01*
X324584238Y-72561011D01*
X324679476Y-72584821D01*
X324750904Y-72584821D01*
X324846142Y-72561011D01*
X324893761Y-72537202D01*
X324941380Y-72489583D01*
X324965190Y-72418154D01*
X324965190Y-72299107D01*
X324965190Y-73061011D02*
X324965190Y-72775297D01*
X324965190Y-72918154D02*
X324465190Y-72918154D01*
X324536619Y-72870535D01*
X324584238Y-72822916D01*
X324608047Y-72775297D01*
X324631857Y-73489583D02*
X324965190Y-73489583D01*
X324441380Y-73370535D02*
X324798523Y-73251488D01*
X324798523Y-73561011D01*
X316707142Y-74362440D02*
X316707142Y-73862440D01*
X316588095Y-73862440D01*
X316516666Y-73886250D01*
X316469047Y-73933869D01*
X316445238Y-73981488D01*
X316421428Y-74076726D01*
X316421428Y-74148154D01*
X316445238Y-74243392D01*
X316469047Y-74291011D01*
X316516666Y-74338630D01*
X316588095Y-74362440D01*
X316707142Y-74362440D01*
X315945238Y-74362440D02*
X316230952Y-74362440D01*
X316088095Y-74362440D02*
X316088095Y-73862440D01*
X316135714Y-73933869D01*
X316183333Y-73981488D01*
X316230952Y-74005297D01*
X315778571Y-73862440D02*
X315469047Y-73862440D01*
X315635714Y-74052916D01*
X315564285Y-74052916D01*
X315516666Y-74076726D01*
X315492857Y-74100535D01*
X315469047Y-74148154D01*
X315469047Y-74267202D01*
X315492857Y-74314821D01*
X315516666Y-74338630D01*
X315564285Y-74362440D01*
X315707142Y-74362440D01*
X315754761Y-74338630D01*
X315778571Y-74314821D01*
X297657142Y-74362440D02*
X297657142Y-73862440D01*
X297538095Y-73862440D01*
X297466666Y-73886250D01*
X297419047Y-73933869D01*
X297395238Y-73981488D01*
X297371428Y-74076726D01*
X297371428Y-74148154D01*
X297395238Y-74243392D01*
X297419047Y-74291011D01*
X297466666Y-74338630D01*
X297538095Y-74362440D01*
X297657142Y-74362440D01*
X296895238Y-74362440D02*
X297180952Y-74362440D01*
X297038095Y-74362440D02*
X297038095Y-73862440D01*
X297085714Y-73933869D01*
X297133333Y-73981488D01*
X297180952Y-74005297D01*
X296704761Y-73910059D02*
X296680952Y-73886250D01*
X296633333Y-73862440D01*
X296514285Y-73862440D01*
X296466666Y-73886250D01*
X296442857Y-73910059D01*
X296419047Y-73957678D01*
X296419047Y-74005297D01*
X296442857Y-74076726D01*
X296728571Y-74362440D01*
X296419047Y-74362440D01*
X278607142Y-74362440D02*
X278607142Y-73862440D01*
X278488095Y-73862440D01*
X278416666Y-73886250D01*
X278369047Y-73933869D01*
X278345238Y-73981488D01*
X278321428Y-74076726D01*
X278321428Y-74148154D01*
X278345238Y-74243392D01*
X278369047Y-74291011D01*
X278416666Y-74338630D01*
X278488095Y-74362440D01*
X278607142Y-74362440D01*
X277845238Y-74362440D02*
X278130952Y-74362440D01*
X277988095Y-74362440D02*
X277988095Y-73862440D01*
X278035714Y-73933869D01*
X278083333Y-73981488D01*
X278130952Y-74005297D01*
X277369047Y-74362440D02*
X277654761Y-74362440D01*
X277511904Y-74362440D02*
X277511904Y-73862440D01*
X277559523Y-73933869D01*
X277607142Y-73981488D01*
X277654761Y-74005297D01*
X259557142Y-74362440D02*
X259557142Y-73862440D01*
X259438095Y-73862440D01*
X259366666Y-73886250D01*
X259319047Y-73933869D01*
X259295238Y-73981488D01*
X259271428Y-74076726D01*
X259271428Y-74148154D01*
X259295238Y-74243392D01*
X259319047Y-74291011D01*
X259366666Y-74338630D01*
X259438095Y-74362440D01*
X259557142Y-74362440D01*
X258795238Y-74362440D02*
X259080952Y-74362440D01*
X258938095Y-74362440D02*
X258938095Y-73862440D01*
X258985714Y-73933869D01*
X259033333Y-73981488D01*
X259080952Y-74005297D01*
X258485714Y-73862440D02*
X258438095Y-73862440D01*
X258390476Y-73886250D01*
X258366666Y-73910059D01*
X258342857Y-73957678D01*
X258319047Y-74052916D01*
X258319047Y-74171964D01*
X258342857Y-74267202D01*
X258366666Y-74314821D01*
X258390476Y-74338630D01*
X258438095Y-74362440D01*
X258485714Y-74362440D01*
X258533333Y-74338630D01*
X258557142Y-74314821D01*
X258580952Y-74267202D01*
X258604761Y-74171964D01*
X258604761Y-74052916D01*
X258580952Y-73957678D01*
X258557142Y-73910059D01*
X258533333Y-73886250D01*
X258485714Y-73862440D01*
X240269047Y-74362440D02*
X240269047Y-73862440D01*
X240150000Y-73862440D01*
X240078571Y-73886250D01*
X240030952Y-73933869D01*
X240007142Y-73981488D01*
X239983333Y-74076726D01*
X239983333Y-74148154D01*
X240007142Y-74243392D01*
X240030952Y-74291011D01*
X240078571Y-74338630D01*
X240150000Y-74362440D01*
X240269047Y-74362440D01*
X239745238Y-74362440D02*
X239650000Y-74362440D01*
X239602380Y-74338630D01*
X239578571Y-74314821D01*
X239530952Y-74243392D01*
X239507142Y-74148154D01*
X239507142Y-73957678D01*
X239530952Y-73910059D01*
X239554761Y-73886250D01*
X239602380Y-73862440D01*
X239697619Y-73862440D01*
X239745238Y-73886250D01*
X239769047Y-73910059D01*
X239792857Y-73957678D01*
X239792857Y-74076726D01*
X239769047Y-74124345D01*
X239745238Y-74148154D01*
X239697619Y-74171964D01*
X239602380Y-74171964D01*
X239554761Y-74148154D01*
X239530952Y-74124345D01*
X239507142Y-74076726D01*
X221219047Y-74362440D02*
X221219047Y-73862440D01*
X221100000Y-73862440D01*
X221028571Y-73886250D01*
X220980952Y-73933869D01*
X220957142Y-73981488D01*
X220933333Y-74076726D01*
X220933333Y-74148154D01*
X220957142Y-74243392D01*
X220980952Y-74291011D01*
X221028571Y-74338630D01*
X221100000Y-74362440D01*
X221219047Y-74362440D01*
X220647619Y-74076726D02*
X220695238Y-74052916D01*
X220719047Y-74029107D01*
X220742857Y-73981488D01*
X220742857Y-73957678D01*
X220719047Y-73910059D01*
X220695238Y-73886250D01*
X220647619Y-73862440D01*
X220552380Y-73862440D01*
X220504761Y-73886250D01*
X220480952Y-73910059D01*
X220457142Y-73957678D01*
X220457142Y-73981488D01*
X220480952Y-74029107D01*
X220504761Y-74052916D01*
X220552380Y-74076726D01*
X220647619Y-74076726D01*
X220695238Y-74100535D01*
X220719047Y-74124345D01*
X220742857Y-74171964D01*
X220742857Y-74267202D01*
X220719047Y-74314821D01*
X220695238Y-74338630D01*
X220647619Y-74362440D01*
X220552380Y-74362440D01*
X220504761Y-74338630D01*
X220480952Y-74314821D01*
X220457142Y-74267202D01*
X220457142Y-74171964D01*
X220480952Y-74124345D01*
X220504761Y-74100535D01*
X220552380Y-74076726D01*
X202169047Y-74362440D02*
X202169047Y-73862440D01*
X202050000Y-73862440D01*
X201978571Y-73886250D01*
X201930952Y-73933869D01*
X201907142Y-73981488D01*
X201883333Y-74076726D01*
X201883333Y-74148154D01*
X201907142Y-74243392D01*
X201930952Y-74291011D01*
X201978571Y-74338630D01*
X202050000Y-74362440D01*
X202169047Y-74362440D01*
X201716666Y-73862440D02*
X201383333Y-73862440D01*
X201597619Y-74362440D01*
X183119047Y-74362440D02*
X183119047Y-73862440D01*
X183000000Y-73862440D01*
X182928571Y-73886250D01*
X182880952Y-73933869D01*
X182857142Y-73981488D01*
X182833333Y-74076726D01*
X182833333Y-74148154D01*
X182857142Y-74243392D01*
X182880952Y-74291011D01*
X182928571Y-74338630D01*
X183000000Y-74362440D01*
X183119047Y-74362440D01*
X182404761Y-73862440D02*
X182500000Y-73862440D01*
X182547619Y-73886250D01*
X182571428Y-73910059D01*
X182619047Y-73981488D01*
X182642857Y-74076726D01*
X182642857Y-74267202D01*
X182619047Y-74314821D01*
X182595238Y-74338630D01*
X182547619Y-74362440D01*
X182452380Y-74362440D01*
X182404761Y-74338630D01*
X182380952Y-74314821D01*
X182357142Y-74267202D01*
X182357142Y-74148154D01*
X182380952Y-74100535D01*
X182404761Y-74076726D01*
X182452380Y-74052916D01*
X182547619Y-74052916D01*
X182595238Y-74076726D01*
X182619047Y-74100535D01*
X182642857Y-74148154D01*
X164069047Y-74362440D02*
X164069047Y-73862440D01*
X163950000Y-73862440D01*
X163878571Y-73886250D01*
X163830952Y-73933869D01*
X163807142Y-73981488D01*
X163783333Y-74076726D01*
X163783333Y-74148154D01*
X163807142Y-74243392D01*
X163830952Y-74291011D01*
X163878571Y-74338630D01*
X163950000Y-74362440D01*
X164069047Y-74362440D01*
X163330952Y-73862440D02*
X163569047Y-73862440D01*
X163592857Y-74100535D01*
X163569047Y-74076726D01*
X163521428Y-74052916D01*
X163402380Y-74052916D01*
X163354761Y-74076726D01*
X163330952Y-74100535D01*
X163307142Y-74148154D01*
X163307142Y-74267202D01*
X163330952Y-74314821D01*
X163354761Y-74338630D01*
X163402380Y-74362440D01*
X163521428Y-74362440D01*
X163569047Y-74338630D01*
X163592857Y-74314821D01*
X145019047Y-74362440D02*
X145019047Y-73862440D01*
X144900000Y-73862440D01*
X144828571Y-73886250D01*
X144780952Y-73933869D01*
X144757142Y-73981488D01*
X144733333Y-74076726D01*
X144733333Y-74148154D01*
X144757142Y-74243392D01*
X144780952Y-74291011D01*
X144828571Y-74338630D01*
X144900000Y-74362440D01*
X145019047Y-74362440D01*
X144304761Y-74029107D02*
X144304761Y-74362440D01*
X144423809Y-73838630D02*
X144542857Y-74195773D01*
X144233333Y-74195773D01*
X125969047Y-74362440D02*
X125969047Y-73862440D01*
X125850000Y-73862440D01*
X125778571Y-73886250D01*
X125730952Y-73933869D01*
X125707142Y-73981488D01*
X125683333Y-74076726D01*
X125683333Y-74148154D01*
X125707142Y-74243392D01*
X125730952Y-74291011D01*
X125778571Y-74338630D01*
X125850000Y-74362440D01*
X125969047Y-74362440D01*
X125516666Y-73862440D02*
X125207142Y-73862440D01*
X125373809Y-74052916D01*
X125302380Y-74052916D01*
X125254761Y-74076726D01*
X125230952Y-74100535D01*
X125207142Y-74148154D01*
X125207142Y-74267202D01*
X125230952Y-74314821D01*
X125254761Y-74338630D01*
X125302380Y-74362440D01*
X125445238Y-74362440D01*
X125492857Y-74338630D01*
X125516666Y-74314821D01*
X106919047Y-74362440D02*
X106919047Y-73862440D01*
X106800000Y-73862440D01*
X106728571Y-73886250D01*
X106680952Y-73933869D01*
X106657142Y-73981488D01*
X106633333Y-74076726D01*
X106633333Y-74148154D01*
X106657142Y-74243392D01*
X106680952Y-74291011D01*
X106728571Y-74338630D01*
X106800000Y-74362440D01*
X106919047Y-74362440D01*
X106442857Y-73910059D02*
X106419047Y-73886250D01*
X106371428Y-73862440D01*
X106252380Y-73862440D01*
X106204761Y-73886250D01*
X106180952Y-73910059D01*
X106157142Y-73957678D01*
X106157142Y-74005297D01*
X106180952Y-74076726D01*
X106466666Y-74362440D01*
X106157142Y-74362440D01*
X87869047Y-74362440D02*
X87869047Y-73862440D01*
X87750000Y-73862440D01*
X87678571Y-73886250D01*
X87630952Y-73933869D01*
X87607142Y-73981488D01*
X87583333Y-74076726D01*
X87583333Y-74148154D01*
X87607142Y-74243392D01*
X87630952Y-74291011D01*
X87678571Y-74338630D01*
X87750000Y-74362440D01*
X87869047Y-74362440D01*
X87107142Y-74362440D02*
X87392857Y-74362440D01*
X87250000Y-74362440D02*
X87250000Y-73862440D01*
X87297619Y-73933869D01*
X87345238Y-73981488D01*
X87392857Y-74005297D01*
X335757142Y-150562440D02*
X335757142Y-150062440D01*
X335638095Y-150062440D01*
X335566666Y-150086250D01*
X335519047Y-150133869D01*
X335495238Y-150181488D01*
X335471428Y-150276726D01*
X335471428Y-150348154D01*
X335495238Y-150443392D01*
X335519047Y-150491011D01*
X335566666Y-150538630D01*
X335638095Y-150562440D01*
X335757142Y-150562440D01*
X335042857Y-150062440D02*
X335138095Y-150062440D01*
X335185714Y-150086250D01*
X335209523Y-150110059D01*
X335257142Y-150181488D01*
X335280952Y-150276726D01*
X335280952Y-150467202D01*
X335257142Y-150514821D01*
X335233333Y-150538630D01*
X335185714Y-150562440D01*
X335090476Y-150562440D01*
X335042857Y-150538630D01*
X335019047Y-150514821D01*
X334995238Y-150467202D01*
X334995238Y-150348154D01*
X335019047Y-150300535D01*
X335042857Y-150276726D01*
X335090476Y-150252916D01*
X335185714Y-150252916D01*
X335233333Y-150276726D01*
X335257142Y-150300535D01*
X335280952Y-150348154D01*
X334757142Y-150562440D02*
X334661904Y-150562440D01*
X334614285Y-150538630D01*
X334590476Y-150514821D01*
X334542857Y-150443392D01*
X334519047Y-150348154D01*
X334519047Y-150157678D01*
X334542857Y-150110059D01*
X334566666Y-150086250D01*
X334614285Y-150062440D01*
X334709523Y-150062440D01*
X334757142Y-150086250D01*
X334780952Y-150110059D01*
X334804761Y-150157678D01*
X334804761Y-150276726D01*
X334780952Y-150324345D01*
X334757142Y-150348154D01*
X334709523Y-150371964D01*
X334614285Y-150371964D01*
X334566666Y-150348154D01*
X334542857Y-150324345D01*
X334519047Y-150276726D01*
X316707142Y-150562440D02*
X316707142Y-150062440D01*
X316588095Y-150062440D01*
X316516666Y-150086250D01*
X316469047Y-150133869D01*
X316445238Y-150181488D01*
X316421428Y-150276726D01*
X316421428Y-150348154D01*
X316445238Y-150443392D01*
X316469047Y-150491011D01*
X316516666Y-150538630D01*
X316588095Y-150562440D01*
X316707142Y-150562440D01*
X315992857Y-150062440D02*
X316088095Y-150062440D01*
X316135714Y-150086250D01*
X316159523Y-150110059D01*
X316207142Y-150181488D01*
X316230952Y-150276726D01*
X316230952Y-150467202D01*
X316207142Y-150514821D01*
X316183333Y-150538630D01*
X316135714Y-150562440D01*
X316040476Y-150562440D01*
X315992857Y-150538630D01*
X315969047Y-150514821D01*
X315945238Y-150467202D01*
X315945238Y-150348154D01*
X315969047Y-150300535D01*
X315992857Y-150276726D01*
X316040476Y-150252916D01*
X316135714Y-150252916D01*
X316183333Y-150276726D01*
X316207142Y-150300535D01*
X316230952Y-150348154D01*
X315659523Y-150276726D02*
X315707142Y-150252916D01*
X315730952Y-150229107D01*
X315754761Y-150181488D01*
X315754761Y-150157678D01*
X315730952Y-150110059D01*
X315707142Y-150086250D01*
X315659523Y-150062440D01*
X315564285Y-150062440D01*
X315516666Y-150086250D01*
X315492857Y-150110059D01*
X315469047Y-150157678D01*
X315469047Y-150181488D01*
X315492857Y-150229107D01*
X315516666Y-150252916D01*
X315564285Y-150276726D01*
X315659523Y-150276726D01*
X315707142Y-150300535D01*
X315730952Y-150324345D01*
X315754761Y-150371964D01*
X315754761Y-150467202D01*
X315730952Y-150514821D01*
X315707142Y-150538630D01*
X315659523Y-150562440D01*
X315564285Y-150562440D01*
X315516666Y-150538630D01*
X315492857Y-150514821D01*
X315469047Y-150467202D01*
X315469047Y-150371964D01*
X315492857Y-150324345D01*
X315516666Y-150300535D01*
X315564285Y-150276726D01*
X297657142Y-150562440D02*
X297657142Y-150062440D01*
X297538095Y-150062440D01*
X297466666Y-150086250D01*
X297419047Y-150133869D01*
X297395238Y-150181488D01*
X297371428Y-150276726D01*
X297371428Y-150348154D01*
X297395238Y-150443392D01*
X297419047Y-150491011D01*
X297466666Y-150538630D01*
X297538095Y-150562440D01*
X297657142Y-150562440D01*
X296942857Y-150062440D02*
X297038095Y-150062440D01*
X297085714Y-150086250D01*
X297109523Y-150110059D01*
X297157142Y-150181488D01*
X297180952Y-150276726D01*
X297180952Y-150467202D01*
X297157142Y-150514821D01*
X297133333Y-150538630D01*
X297085714Y-150562440D01*
X296990476Y-150562440D01*
X296942857Y-150538630D01*
X296919047Y-150514821D01*
X296895238Y-150467202D01*
X296895238Y-150348154D01*
X296919047Y-150300535D01*
X296942857Y-150276726D01*
X296990476Y-150252916D01*
X297085714Y-150252916D01*
X297133333Y-150276726D01*
X297157142Y-150300535D01*
X297180952Y-150348154D01*
X296728571Y-150062440D02*
X296395238Y-150062440D01*
X296609523Y-150562440D01*
X278607142Y-150562440D02*
X278607142Y-150062440D01*
X278488095Y-150062440D01*
X278416666Y-150086250D01*
X278369047Y-150133869D01*
X278345238Y-150181488D01*
X278321428Y-150276726D01*
X278321428Y-150348154D01*
X278345238Y-150443392D01*
X278369047Y-150491011D01*
X278416666Y-150538630D01*
X278488095Y-150562440D01*
X278607142Y-150562440D01*
X277892857Y-150062440D02*
X277988095Y-150062440D01*
X278035714Y-150086250D01*
X278059523Y-150110059D01*
X278107142Y-150181488D01*
X278130952Y-150276726D01*
X278130952Y-150467202D01*
X278107142Y-150514821D01*
X278083333Y-150538630D01*
X278035714Y-150562440D01*
X277940476Y-150562440D01*
X277892857Y-150538630D01*
X277869047Y-150514821D01*
X277845238Y-150467202D01*
X277845238Y-150348154D01*
X277869047Y-150300535D01*
X277892857Y-150276726D01*
X277940476Y-150252916D01*
X278035714Y-150252916D01*
X278083333Y-150276726D01*
X278107142Y-150300535D01*
X278130952Y-150348154D01*
X277416666Y-150062440D02*
X277511904Y-150062440D01*
X277559523Y-150086250D01*
X277583333Y-150110059D01*
X277630952Y-150181488D01*
X277654761Y-150276726D01*
X277654761Y-150467202D01*
X277630952Y-150514821D01*
X277607142Y-150538630D01*
X277559523Y-150562440D01*
X277464285Y-150562440D01*
X277416666Y-150538630D01*
X277392857Y-150514821D01*
X277369047Y-150467202D01*
X277369047Y-150348154D01*
X277392857Y-150300535D01*
X277416666Y-150276726D01*
X277464285Y-150252916D01*
X277559523Y-150252916D01*
X277607142Y-150276726D01*
X277630952Y-150300535D01*
X277654761Y-150348154D01*
X259557142Y-150562440D02*
X259557142Y-150062440D01*
X259438095Y-150062440D01*
X259366666Y-150086250D01*
X259319047Y-150133869D01*
X259295238Y-150181488D01*
X259271428Y-150276726D01*
X259271428Y-150348154D01*
X259295238Y-150443392D01*
X259319047Y-150491011D01*
X259366666Y-150538630D01*
X259438095Y-150562440D01*
X259557142Y-150562440D01*
X258842857Y-150062440D02*
X258938095Y-150062440D01*
X258985714Y-150086250D01*
X259009523Y-150110059D01*
X259057142Y-150181488D01*
X259080952Y-150276726D01*
X259080952Y-150467202D01*
X259057142Y-150514821D01*
X259033333Y-150538630D01*
X258985714Y-150562440D01*
X258890476Y-150562440D01*
X258842857Y-150538630D01*
X258819047Y-150514821D01*
X258795238Y-150467202D01*
X258795238Y-150348154D01*
X258819047Y-150300535D01*
X258842857Y-150276726D01*
X258890476Y-150252916D01*
X258985714Y-150252916D01*
X259033333Y-150276726D01*
X259057142Y-150300535D01*
X259080952Y-150348154D01*
X258342857Y-150062440D02*
X258580952Y-150062440D01*
X258604761Y-150300535D01*
X258580952Y-150276726D01*
X258533333Y-150252916D01*
X258414285Y-150252916D01*
X258366666Y-150276726D01*
X258342857Y-150300535D01*
X258319047Y-150348154D01*
X258319047Y-150467202D01*
X258342857Y-150514821D01*
X258366666Y-150538630D01*
X258414285Y-150562440D01*
X258533333Y-150562440D01*
X258580952Y-150538630D01*
X258604761Y-150514821D01*
X230982142Y-150562440D02*
X230982142Y-150062440D01*
X230863095Y-150062440D01*
X230791666Y-150086250D01*
X230744047Y-150133869D01*
X230720238Y-150181488D01*
X230696428Y-150276726D01*
X230696428Y-150348154D01*
X230720238Y-150443392D01*
X230744047Y-150491011D01*
X230791666Y-150538630D01*
X230863095Y-150562440D01*
X230982142Y-150562440D01*
X230267857Y-150062440D02*
X230363095Y-150062440D01*
X230410714Y-150086250D01*
X230434523Y-150110059D01*
X230482142Y-150181488D01*
X230505952Y-150276726D01*
X230505952Y-150467202D01*
X230482142Y-150514821D01*
X230458333Y-150538630D01*
X230410714Y-150562440D01*
X230315476Y-150562440D01*
X230267857Y-150538630D01*
X230244047Y-150514821D01*
X230220238Y-150467202D01*
X230220238Y-150348154D01*
X230244047Y-150300535D01*
X230267857Y-150276726D01*
X230315476Y-150252916D01*
X230410714Y-150252916D01*
X230458333Y-150276726D01*
X230482142Y-150300535D01*
X230505952Y-150348154D01*
X229791666Y-150229107D02*
X229791666Y-150562440D01*
X229910714Y-150038630D02*
X230029761Y-150395773D01*
X229720238Y-150395773D01*
X210093690Y-145442857D02*
X209593690Y-145442857D01*
X209593690Y-145561904D01*
X209617500Y-145633333D01*
X209665119Y-145680952D01*
X209712738Y-145704761D01*
X209807976Y-145728571D01*
X209879404Y-145728571D01*
X209974642Y-145704761D01*
X210022261Y-145680952D01*
X210069880Y-145633333D01*
X210093690Y-145561904D01*
X210093690Y-145442857D01*
X209593690Y-146157142D02*
X209593690Y-146061904D01*
X209617500Y-146014285D01*
X209641309Y-145990476D01*
X209712738Y-145942857D01*
X209807976Y-145919047D01*
X209998452Y-145919047D01*
X210046071Y-145942857D01*
X210069880Y-145966666D01*
X210093690Y-146014285D01*
X210093690Y-146109523D01*
X210069880Y-146157142D01*
X210046071Y-146180952D01*
X209998452Y-146204761D01*
X209879404Y-146204761D01*
X209831785Y-146180952D01*
X209807976Y-146157142D01*
X209784166Y-146109523D01*
X209784166Y-146014285D01*
X209807976Y-145966666D01*
X209831785Y-145942857D01*
X209879404Y-145919047D01*
X209641309Y-146395238D02*
X209617500Y-146419047D01*
X209593690Y-146466666D01*
X209593690Y-146585714D01*
X209617500Y-146633333D01*
X209641309Y-146657142D01*
X209688928Y-146680952D01*
X209736547Y-146680952D01*
X209807976Y-146657142D01*
X210093690Y-146371428D01*
X210093690Y-146680952D01*
X213268690Y-146842857D02*
X212768690Y-146842857D01*
X212768690Y-146961904D01*
X212792500Y-147033333D01*
X212840119Y-147080952D01*
X212887738Y-147104761D01*
X212982976Y-147128571D01*
X213054404Y-147128571D01*
X213149642Y-147104761D01*
X213197261Y-147080952D01*
X213244880Y-147033333D01*
X213268690Y-146961904D01*
X213268690Y-146842857D01*
X212768690Y-147557142D02*
X212768690Y-147461904D01*
X212792500Y-147414285D01*
X212816309Y-147390476D01*
X212887738Y-147342857D01*
X212982976Y-147319047D01*
X213173452Y-147319047D01*
X213221071Y-147342857D01*
X213244880Y-147366666D01*
X213268690Y-147414285D01*
X213268690Y-147509523D01*
X213244880Y-147557142D01*
X213221071Y-147580952D01*
X213173452Y-147604761D01*
X213054404Y-147604761D01*
X213006785Y-147580952D01*
X212982976Y-147557142D01*
X212959166Y-147509523D01*
X212959166Y-147414285D01*
X212982976Y-147366666D01*
X213006785Y-147342857D01*
X213054404Y-147319047D01*
X213268690Y-148080952D02*
X213268690Y-147795238D01*
X213268690Y-147938095D02*
X212768690Y-147938095D01*
X212840119Y-147890476D01*
X212887738Y-147842857D01*
X212911547Y-147795238D01*
X154782142Y-150562440D02*
X154782142Y-150062440D01*
X154663095Y-150062440D01*
X154591666Y-150086250D01*
X154544047Y-150133869D01*
X154520238Y-150181488D01*
X154496428Y-150276726D01*
X154496428Y-150348154D01*
X154520238Y-150443392D01*
X154544047Y-150491011D01*
X154591666Y-150538630D01*
X154663095Y-150562440D01*
X154782142Y-150562440D01*
X154067857Y-150062440D02*
X154163095Y-150062440D01*
X154210714Y-150086250D01*
X154234523Y-150110059D01*
X154282142Y-150181488D01*
X154305952Y-150276726D01*
X154305952Y-150467202D01*
X154282142Y-150514821D01*
X154258333Y-150538630D01*
X154210714Y-150562440D01*
X154115476Y-150562440D01*
X154067857Y-150538630D01*
X154044047Y-150514821D01*
X154020238Y-150467202D01*
X154020238Y-150348154D01*
X154044047Y-150300535D01*
X154067857Y-150276726D01*
X154115476Y-150252916D01*
X154210714Y-150252916D01*
X154258333Y-150276726D01*
X154282142Y-150300535D01*
X154305952Y-150348154D01*
X153710714Y-150062440D02*
X153663095Y-150062440D01*
X153615476Y-150086250D01*
X153591666Y-150110059D01*
X153567857Y-150157678D01*
X153544047Y-150252916D01*
X153544047Y-150371964D01*
X153567857Y-150467202D01*
X153591666Y-150514821D01*
X153615476Y-150538630D01*
X153663095Y-150562440D01*
X153710714Y-150562440D01*
X153758333Y-150538630D01*
X153782142Y-150514821D01*
X153805952Y-150467202D01*
X153829761Y-150371964D01*
X153829761Y-150252916D01*
X153805952Y-150157678D01*
X153782142Y-150110059D01*
X153758333Y-150086250D01*
X153710714Y-150062440D01*
X126207142Y-150562440D02*
X126207142Y-150062440D01*
X126088095Y-150062440D01*
X126016666Y-150086250D01*
X125969047Y-150133869D01*
X125945238Y-150181488D01*
X125921428Y-150276726D01*
X125921428Y-150348154D01*
X125945238Y-150443392D01*
X125969047Y-150491011D01*
X126016666Y-150538630D01*
X126088095Y-150562440D01*
X126207142Y-150562440D01*
X125469047Y-150062440D02*
X125707142Y-150062440D01*
X125730952Y-150300535D01*
X125707142Y-150276726D01*
X125659523Y-150252916D01*
X125540476Y-150252916D01*
X125492857Y-150276726D01*
X125469047Y-150300535D01*
X125445238Y-150348154D01*
X125445238Y-150467202D01*
X125469047Y-150514821D01*
X125492857Y-150538630D01*
X125540476Y-150562440D01*
X125659523Y-150562440D01*
X125707142Y-150538630D01*
X125730952Y-150514821D01*
X125207142Y-150562440D02*
X125111904Y-150562440D01*
X125064285Y-150538630D01*
X125040476Y-150514821D01*
X124992857Y-150443392D01*
X124969047Y-150348154D01*
X124969047Y-150157678D01*
X124992857Y-150110059D01*
X125016666Y-150086250D01*
X125064285Y-150062440D01*
X125159523Y-150062440D01*
X125207142Y-150086250D01*
X125230952Y-150110059D01*
X125254761Y-150157678D01*
X125254761Y-150276726D01*
X125230952Y-150324345D01*
X125207142Y-150348154D01*
X125159523Y-150371964D01*
X125064285Y-150371964D01*
X125016666Y-150348154D01*
X124992857Y-150324345D01*
X124969047Y-150276726D01*
X107157142Y-150562440D02*
X107157142Y-150062440D01*
X107038095Y-150062440D01*
X106966666Y-150086250D01*
X106919047Y-150133869D01*
X106895238Y-150181488D01*
X106871428Y-150276726D01*
X106871428Y-150348154D01*
X106895238Y-150443392D01*
X106919047Y-150491011D01*
X106966666Y-150538630D01*
X107038095Y-150562440D01*
X107157142Y-150562440D01*
X106419047Y-150062440D02*
X106657142Y-150062440D01*
X106680952Y-150300535D01*
X106657142Y-150276726D01*
X106609523Y-150252916D01*
X106490476Y-150252916D01*
X106442857Y-150276726D01*
X106419047Y-150300535D01*
X106395238Y-150348154D01*
X106395238Y-150467202D01*
X106419047Y-150514821D01*
X106442857Y-150538630D01*
X106490476Y-150562440D01*
X106609523Y-150562440D01*
X106657142Y-150538630D01*
X106680952Y-150514821D01*
X106109523Y-150276726D02*
X106157142Y-150252916D01*
X106180952Y-150229107D01*
X106204761Y-150181488D01*
X106204761Y-150157678D01*
X106180952Y-150110059D01*
X106157142Y-150086250D01*
X106109523Y-150062440D01*
X106014285Y-150062440D01*
X105966666Y-150086250D01*
X105942857Y-150110059D01*
X105919047Y-150157678D01*
X105919047Y-150181488D01*
X105942857Y-150229107D01*
X105966666Y-150252916D01*
X106014285Y-150276726D01*
X106109523Y-150276726D01*
X106157142Y-150300535D01*
X106180952Y-150324345D01*
X106204761Y-150371964D01*
X106204761Y-150467202D01*
X106180952Y-150514821D01*
X106157142Y-150538630D01*
X106109523Y-150562440D01*
X106014285Y-150562440D01*
X105966666Y-150538630D01*
X105942857Y-150514821D01*
X105919047Y-150467202D01*
X105919047Y-150371964D01*
X105942857Y-150324345D01*
X105966666Y-150300535D01*
X106014285Y-150276726D01*
X88107142Y-150562440D02*
X88107142Y-150062440D01*
X87988095Y-150062440D01*
X87916666Y-150086250D01*
X87869047Y-150133869D01*
X87845238Y-150181488D01*
X87821428Y-150276726D01*
X87821428Y-150348154D01*
X87845238Y-150443392D01*
X87869047Y-150491011D01*
X87916666Y-150538630D01*
X87988095Y-150562440D01*
X88107142Y-150562440D01*
X87369047Y-150062440D02*
X87607142Y-150062440D01*
X87630952Y-150300535D01*
X87607142Y-150276726D01*
X87559523Y-150252916D01*
X87440476Y-150252916D01*
X87392857Y-150276726D01*
X87369047Y-150300535D01*
X87345238Y-150348154D01*
X87345238Y-150467202D01*
X87369047Y-150514821D01*
X87392857Y-150538630D01*
X87440476Y-150562440D01*
X87559523Y-150562440D01*
X87607142Y-150538630D01*
X87630952Y-150514821D01*
X87178571Y-150062440D02*
X86845238Y-150062440D01*
X87059523Y-150562440D01*
X335757142Y-131512440D02*
X335757142Y-131012440D01*
X335638095Y-131012440D01*
X335566666Y-131036250D01*
X335519047Y-131083869D01*
X335495238Y-131131488D01*
X335471428Y-131226726D01*
X335471428Y-131298154D01*
X335495238Y-131393392D01*
X335519047Y-131441011D01*
X335566666Y-131488630D01*
X335638095Y-131512440D01*
X335757142Y-131512440D01*
X335019047Y-131012440D02*
X335257142Y-131012440D01*
X335280952Y-131250535D01*
X335257142Y-131226726D01*
X335209523Y-131202916D01*
X335090476Y-131202916D01*
X335042857Y-131226726D01*
X335019047Y-131250535D01*
X334995238Y-131298154D01*
X334995238Y-131417202D01*
X335019047Y-131464821D01*
X335042857Y-131488630D01*
X335090476Y-131512440D01*
X335209523Y-131512440D01*
X335257142Y-131488630D01*
X335280952Y-131464821D01*
X334566666Y-131012440D02*
X334661904Y-131012440D01*
X334709523Y-131036250D01*
X334733333Y-131060059D01*
X334780952Y-131131488D01*
X334804761Y-131226726D01*
X334804761Y-131417202D01*
X334780952Y-131464821D01*
X334757142Y-131488630D01*
X334709523Y-131512440D01*
X334614285Y-131512440D01*
X334566666Y-131488630D01*
X334542857Y-131464821D01*
X334519047Y-131417202D01*
X334519047Y-131298154D01*
X334542857Y-131250535D01*
X334566666Y-131226726D01*
X334614285Y-131202916D01*
X334709523Y-131202916D01*
X334757142Y-131226726D01*
X334780952Y-131250535D01*
X334804761Y-131298154D01*
X316707142Y-131512440D02*
X316707142Y-131012440D01*
X316588095Y-131012440D01*
X316516666Y-131036250D01*
X316469047Y-131083869D01*
X316445238Y-131131488D01*
X316421428Y-131226726D01*
X316421428Y-131298154D01*
X316445238Y-131393392D01*
X316469047Y-131441011D01*
X316516666Y-131488630D01*
X316588095Y-131512440D01*
X316707142Y-131512440D01*
X315969047Y-131012440D02*
X316207142Y-131012440D01*
X316230952Y-131250535D01*
X316207142Y-131226726D01*
X316159523Y-131202916D01*
X316040476Y-131202916D01*
X315992857Y-131226726D01*
X315969047Y-131250535D01*
X315945238Y-131298154D01*
X315945238Y-131417202D01*
X315969047Y-131464821D01*
X315992857Y-131488630D01*
X316040476Y-131512440D01*
X316159523Y-131512440D01*
X316207142Y-131488630D01*
X316230952Y-131464821D01*
X315492857Y-131012440D02*
X315730952Y-131012440D01*
X315754761Y-131250535D01*
X315730952Y-131226726D01*
X315683333Y-131202916D01*
X315564285Y-131202916D01*
X315516666Y-131226726D01*
X315492857Y-131250535D01*
X315469047Y-131298154D01*
X315469047Y-131417202D01*
X315492857Y-131464821D01*
X315516666Y-131488630D01*
X315564285Y-131512440D01*
X315683333Y-131512440D01*
X315730952Y-131488630D01*
X315754761Y-131464821D01*
X297657142Y-131512440D02*
X297657142Y-131012440D01*
X297538095Y-131012440D01*
X297466666Y-131036250D01*
X297419047Y-131083869D01*
X297395238Y-131131488D01*
X297371428Y-131226726D01*
X297371428Y-131298154D01*
X297395238Y-131393392D01*
X297419047Y-131441011D01*
X297466666Y-131488630D01*
X297538095Y-131512440D01*
X297657142Y-131512440D01*
X296919047Y-131012440D02*
X297157142Y-131012440D01*
X297180952Y-131250535D01*
X297157142Y-131226726D01*
X297109523Y-131202916D01*
X296990476Y-131202916D01*
X296942857Y-131226726D01*
X296919047Y-131250535D01*
X296895238Y-131298154D01*
X296895238Y-131417202D01*
X296919047Y-131464821D01*
X296942857Y-131488630D01*
X296990476Y-131512440D01*
X297109523Y-131512440D01*
X297157142Y-131488630D01*
X297180952Y-131464821D01*
X296466666Y-131179107D02*
X296466666Y-131512440D01*
X296585714Y-130988630D02*
X296704761Y-131345773D01*
X296395238Y-131345773D01*
X278607142Y-131512440D02*
X278607142Y-131012440D01*
X278488095Y-131012440D01*
X278416666Y-131036250D01*
X278369047Y-131083869D01*
X278345238Y-131131488D01*
X278321428Y-131226726D01*
X278321428Y-131298154D01*
X278345238Y-131393392D01*
X278369047Y-131441011D01*
X278416666Y-131488630D01*
X278488095Y-131512440D01*
X278607142Y-131512440D01*
X277869047Y-131012440D02*
X278107142Y-131012440D01*
X278130952Y-131250535D01*
X278107142Y-131226726D01*
X278059523Y-131202916D01*
X277940476Y-131202916D01*
X277892857Y-131226726D01*
X277869047Y-131250535D01*
X277845238Y-131298154D01*
X277845238Y-131417202D01*
X277869047Y-131464821D01*
X277892857Y-131488630D01*
X277940476Y-131512440D01*
X278059523Y-131512440D01*
X278107142Y-131488630D01*
X278130952Y-131464821D01*
X277678571Y-131012440D02*
X277369047Y-131012440D01*
X277535714Y-131202916D01*
X277464285Y-131202916D01*
X277416666Y-131226726D01*
X277392857Y-131250535D01*
X277369047Y-131298154D01*
X277369047Y-131417202D01*
X277392857Y-131464821D01*
X277416666Y-131488630D01*
X277464285Y-131512440D01*
X277607142Y-131512440D01*
X277654761Y-131488630D01*
X277678571Y-131464821D01*
X259557142Y-131512440D02*
X259557142Y-131012440D01*
X259438095Y-131012440D01*
X259366666Y-131036250D01*
X259319047Y-131083869D01*
X259295238Y-131131488D01*
X259271428Y-131226726D01*
X259271428Y-131298154D01*
X259295238Y-131393392D01*
X259319047Y-131441011D01*
X259366666Y-131488630D01*
X259438095Y-131512440D01*
X259557142Y-131512440D01*
X258819047Y-131012440D02*
X259057142Y-131012440D01*
X259080952Y-131250535D01*
X259057142Y-131226726D01*
X259009523Y-131202916D01*
X258890476Y-131202916D01*
X258842857Y-131226726D01*
X258819047Y-131250535D01*
X258795238Y-131298154D01*
X258795238Y-131417202D01*
X258819047Y-131464821D01*
X258842857Y-131488630D01*
X258890476Y-131512440D01*
X259009523Y-131512440D01*
X259057142Y-131488630D01*
X259080952Y-131464821D01*
X258604761Y-131060059D02*
X258580952Y-131036250D01*
X258533333Y-131012440D01*
X258414285Y-131012440D01*
X258366666Y-131036250D01*
X258342857Y-131060059D01*
X258319047Y-131107678D01*
X258319047Y-131155297D01*
X258342857Y-131226726D01*
X258628571Y-131512440D01*
X258319047Y-131512440D01*
X240507142Y-131512440D02*
X240507142Y-131012440D01*
X240388095Y-131012440D01*
X240316666Y-131036250D01*
X240269047Y-131083869D01*
X240245238Y-131131488D01*
X240221428Y-131226726D01*
X240221428Y-131298154D01*
X240245238Y-131393392D01*
X240269047Y-131441011D01*
X240316666Y-131488630D01*
X240388095Y-131512440D01*
X240507142Y-131512440D01*
X239769047Y-131012440D02*
X240007142Y-131012440D01*
X240030952Y-131250535D01*
X240007142Y-131226726D01*
X239959523Y-131202916D01*
X239840476Y-131202916D01*
X239792857Y-131226726D01*
X239769047Y-131250535D01*
X239745238Y-131298154D01*
X239745238Y-131417202D01*
X239769047Y-131464821D01*
X239792857Y-131488630D01*
X239840476Y-131512440D01*
X239959523Y-131512440D01*
X240007142Y-131488630D01*
X240030952Y-131464821D01*
X239269047Y-131512440D02*
X239554761Y-131512440D01*
X239411904Y-131512440D02*
X239411904Y-131012440D01*
X239459523Y-131083869D01*
X239507142Y-131131488D01*
X239554761Y-131155297D01*
X221457142Y-131512440D02*
X221457142Y-131012440D01*
X221338095Y-131012440D01*
X221266666Y-131036250D01*
X221219047Y-131083869D01*
X221195238Y-131131488D01*
X221171428Y-131226726D01*
X221171428Y-131298154D01*
X221195238Y-131393392D01*
X221219047Y-131441011D01*
X221266666Y-131488630D01*
X221338095Y-131512440D01*
X221457142Y-131512440D01*
X220719047Y-131012440D02*
X220957142Y-131012440D01*
X220980952Y-131250535D01*
X220957142Y-131226726D01*
X220909523Y-131202916D01*
X220790476Y-131202916D01*
X220742857Y-131226726D01*
X220719047Y-131250535D01*
X220695238Y-131298154D01*
X220695238Y-131417202D01*
X220719047Y-131464821D01*
X220742857Y-131488630D01*
X220790476Y-131512440D01*
X220909523Y-131512440D01*
X220957142Y-131488630D01*
X220980952Y-131464821D01*
X220385714Y-131012440D02*
X220338095Y-131012440D01*
X220290476Y-131036250D01*
X220266666Y-131060059D01*
X220242857Y-131107678D01*
X220219047Y-131202916D01*
X220219047Y-131321964D01*
X220242857Y-131417202D01*
X220266666Y-131464821D01*
X220290476Y-131488630D01*
X220338095Y-131512440D01*
X220385714Y-131512440D01*
X220433333Y-131488630D01*
X220457142Y-131464821D01*
X220480952Y-131417202D01*
X220504761Y-131321964D01*
X220504761Y-131202916D01*
X220480952Y-131107678D01*
X220457142Y-131060059D01*
X220433333Y-131036250D01*
X220385714Y-131012440D01*
X202407142Y-131512440D02*
X202407142Y-131012440D01*
X202288095Y-131012440D01*
X202216666Y-131036250D01*
X202169047Y-131083869D01*
X202145238Y-131131488D01*
X202121428Y-131226726D01*
X202121428Y-131298154D01*
X202145238Y-131393392D01*
X202169047Y-131441011D01*
X202216666Y-131488630D01*
X202288095Y-131512440D01*
X202407142Y-131512440D01*
X201692857Y-131179107D02*
X201692857Y-131512440D01*
X201811904Y-130988630D02*
X201930952Y-131345773D01*
X201621428Y-131345773D01*
X201407142Y-131512440D02*
X201311904Y-131512440D01*
X201264285Y-131488630D01*
X201240476Y-131464821D01*
X201192857Y-131393392D01*
X201169047Y-131298154D01*
X201169047Y-131107678D01*
X201192857Y-131060059D01*
X201216666Y-131036250D01*
X201264285Y-131012440D01*
X201359523Y-131012440D01*
X201407142Y-131036250D01*
X201430952Y-131060059D01*
X201454761Y-131107678D01*
X201454761Y-131226726D01*
X201430952Y-131274345D01*
X201407142Y-131298154D01*
X201359523Y-131321964D01*
X201264285Y-131321964D01*
X201216666Y-131298154D01*
X201192857Y-131274345D01*
X201169047Y-131226726D01*
X183357142Y-131512440D02*
X183357142Y-131012440D01*
X183238095Y-131012440D01*
X183166666Y-131036250D01*
X183119047Y-131083869D01*
X183095238Y-131131488D01*
X183071428Y-131226726D01*
X183071428Y-131298154D01*
X183095238Y-131393392D01*
X183119047Y-131441011D01*
X183166666Y-131488630D01*
X183238095Y-131512440D01*
X183357142Y-131512440D01*
X182642857Y-131179107D02*
X182642857Y-131512440D01*
X182761904Y-130988630D02*
X182880952Y-131345773D01*
X182571428Y-131345773D01*
X182309523Y-131226726D02*
X182357142Y-131202916D01*
X182380952Y-131179107D01*
X182404761Y-131131488D01*
X182404761Y-131107678D01*
X182380952Y-131060059D01*
X182357142Y-131036250D01*
X182309523Y-131012440D01*
X182214285Y-131012440D01*
X182166666Y-131036250D01*
X182142857Y-131060059D01*
X182119047Y-131107678D01*
X182119047Y-131131488D01*
X182142857Y-131179107D01*
X182166666Y-131202916D01*
X182214285Y-131226726D01*
X182309523Y-131226726D01*
X182357142Y-131250535D01*
X182380952Y-131274345D01*
X182404761Y-131321964D01*
X182404761Y-131417202D01*
X182380952Y-131464821D01*
X182357142Y-131488630D01*
X182309523Y-131512440D01*
X182214285Y-131512440D01*
X182166666Y-131488630D01*
X182142857Y-131464821D01*
X182119047Y-131417202D01*
X182119047Y-131321964D01*
X182142857Y-131274345D01*
X182166666Y-131250535D01*
X182214285Y-131226726D01*
X164307142Y-131512440D02*
X164307142Y-131012440D01*
X164188095Y-131012440D01*
X164116666Y-131036250D01*
X164069047Y-131083869D01*
X164045238Y-131131488D01*
X164021428Y-131226726D01*
X164021428Y-131298154D01*
X164045238Y-131393392D01*
X164069047Y-131441011D01*
X164116666Y-131488630D01*
X164188095Y-131512440D01*
X164307142Y-131512440D01*
X163592857Y-131179107D02*
X163592857Y-131512440D01*
X163711904Y-130988630D02*
X163830952Y-131345773D01*
X163521428Y-131345773D01*
X163378571Y-131012440D02*
X163045238Y-131012440D01*
X163259523Y-131512440D01*
X145257142Y-131512440D02*
X145257142Y-131012440D01*
X145138095Y-131012440D01*
X145066666Y-131036250D01*
X145019047Y-131083869D01*
X144995238Y-131131488D01*
X144971428Y-131226726D01*
X144971428Y-131298154D01*
X144995238Y-131393392D01*
X145019047Y-131441011D01*
X145066666Y-131488630D01*
X145138095Y-131512440D01*
X145257142Y-131512440D01*
X144542857Y-131179107D02*
X144542857Y-131512440D01*
X144661904Y-130988630D02*
X144780952Y-131345773D01*
X144471428Y-131345773D01*
X144066666Y-131012440D02*
X144161904Y-131012440D01*
X144209523Y-131036250D01*
X144233333Y-131060059D01*
X144280952Y-131131488D01*
X144304761Y-131226726D01*
X144304761Y-131417202D01*
X144280952Y-131464821D01*
X144257142Y-131488630D01*
X144209523Y-131512440D01*
X144114285Y-131512440D01*
X144066666Y-131488630D01*
X144042857Y-131464821D01*
X144019047Y-131417202D01*
X144019047Y-131298154D01*
X144042857Y-131250535D01*
X144066666Y-131226726D01*
X144114285Y-131202916D01*
X144209523Y-131202916D01*
X144257142Y-131226726D01*
X144280952Y-131250535D01*
X144304761Y-131298154D01*
X126207142Y-131512440D02*
X126207142Y-131012440D01*
X126088095Y-131012440D01*
X126016666Y-131036250D01*
X125969047Y-131083869D01*
X125945238Y-131131488D01*
X125921428Y-131226726D01*
X125921428Y-131298154D01*
X125945238Y-131393392D01*
X125969047Y-131441011D01*
X126016666Y-131488630D01*
X126088095Y-131512440D01*
X126207142Y-131512440D01*
X125492857Y-131179107D02*
X125492857Y-131512440D01*
X125611904Y-130988630D02*
X125730952Y-131345773D01*
X125421428Y-131345773D01*
X124992857Y-131012440D02*
X125230952Y-131012440D01*
X125254761Y-131250535D01*
X125230952Y-131226726D01*
X125183333Y-131202916D01*
X125064285Y-131202916D01*
X125016666Y-131226726D01*
X124992857Y-131250535D01*
X124969047Y-131298154D01*
X124969047Y-131417202D01*
X124992857Y-131464821D01*
X125016666Y-131488630D01*
X125064285Y-131512440D01*
X125183333Y-131512440D01*
X125230952Y-131488630D01*
X125254761Y-131464821D01*
X107157142Y-131512440D02*
X107157142Y-131012440D01*
X107038095Y-131012440D01*
X106966666Y-131036250D01*
X106919047Y-131083869D01*
X106895238Y-131131488D01*
X106871428Y-131226726D01*
X106871428Y-131298154D01*
X106895238Y-131393392D01*
X106919047Y-131441011D01*
X106966666Y-131488630D01*
X107038095Y-131512440D01*
X107157142Y-131512440D01*
X106442857Y-131179107D02*
X106442857Y-131512440D01*
X106561904Y-130988630D02*
X106680952Y-131345773D01*
X106371428Y-131345773D01*
X105966666Y-131179107D02*
X105966666Y-131512440D01*
X106085714Y-130988630D02*
X106204761Y-131345773D01*
X105895238Y-131345773D01*
X88107142Y-131512440D02*
X88107142Y-131012440D01*
X87988095Y-131012440D01*
X87916666Y-131036250D01*
X87869047Y-131083869D01*
X87845238Y-131131488D01*
X87821428Y-131226726D01*
X87821428Y-131298154D01*
X87845238Y-131393392D01*
X87869047Y-131441011D01*
X87916666Y-131488630D01*
X87988095Y-131512440D01*
X88107142Y-131512440D01*
X87392857Y-131179107D02*
X87392857Y-131512440D01*
X87511904Y-130988630D02*
X87630952Y-131345773D01*
X87321428Y-131345773D01*
X87178571Y-131012440D02*
X86869047Y-131012440D01*
X87035714Y-131202916D01*
X86964285Y-131202916D01*
X86916666Y-131226726D01*
X86892857Y-131250535D01*
X86869047Y-131298154D01*
X86869047Y-131417202D01*
X86892857Y-131464821D01*
X86916666Y-131488630D01*
X86964285Y-131512440D01*
X87107142Y-131512440D01*
X87154761Y-131488630D01*
X87178571Y-131464821D01*
X335757142Y-112462440D02*
X335757142Y-111962440D01*
X335638095Y-111962440D01*
X335566666Y-111986250D01*
X335519047Y-112033869D01*
X335495238Y-112081488D01*
X335471428Y-112176726D01*
X335471428Y-112248154D01*
X335495238Y-112343392D01*
X335519047Y-112391011D01*
X335566666Y-112438630D01*
X335638095Y-112462440D01*
X335757142Y-112462440D01*
X335042857Y-112129107D02*
X335042857Y-112462440D01*
X335161904Y-111938630D02*
X335280952Y-112295773D01*
X334971428Y-112295773D01*
X334804761Y-112010059D02*
X334780952Y-111986250D01*
X334733333Y-111962440D01*
X334614285Y-111962440D01*
X334566666Y-111986250D01*
X334542857Y-112010059D01*
X334519047Y-112057678D01*
X334519047Y-112105297D01*
X334542857Y-112176726D01*
X334828571Y-112462440D01*
X334519047Y-112462440D01*
X316707142Y-112462440D02*
X316707142Y-111962440D01*
X316588095Y-111962440D01*
X316516666Y-111986250D01*
X316469047Y-112033869D01*
X316445238Y-112081488D01*
X316421428Y-112176726D01*
X316421428Y-112248154D01*
X316445238Y-112343392D01*
X316469047Y-112391011D01*
X316516666Y-112438630D01*
X316588095Y-112462440D01*
X316707142Y-112462440D01*
X315992857Y-112129107D02*
X315992857Y-112462440D01*
X316111904Y-111938630D02*
X316230952Y-112295773D01*
X315921428Y-112295773D01*
X315469047Y-112462440D02*
X315754761Y-112462440D01*
X315611904Y-112462440D02*
X315611904Y-111962440D01*
X315659523Y-112033869D01*
X315707142Y-112081488D01*
X315754761Y-112105297D01*
X297657142Y-112462440D02*
X297657142Y-111962440D01*
X297538095Y-111962440D01*
X297466666Y-111986250D01*
X297419047Y-112033869D01*
X297395238Y-112081488D01*
X297371428Y-112176726D01*
X297371428Y-112248154D01*
X297395238Y-112343392D01*
X297419047Y-112391011D01*
X297466666Y-112438630D01*
X297538095Y-112462440D01*
X297657142Y-112462440D01*
X296942857Y-112129107D02*
X296942857Y-112462440D01*
X297061904Y-111938630D02*
X297180952Y-112295773D01*
X296871428Y-112295773D01*
X296585714Y-111962440D02*
X296538095Y-111962440D01*
X296490476Y-111986250D01*
X296466666Y-112010059D01*
X296442857Y-112057678D01*
X296419047Y-112152916D01*
X296419047Y-112271964D01*
X296442857Y-112367202D01*
X296466666Y-112414821D01*
X296490476Y-112438630D01*
X296538095Y-112462440D01*
X296585714Y-112462440D01*
X296633333Y-112438630D01*
X296657142Y-112414821D01*
X296680952Y-112367202D01*
X296704761Y-112271964D01*
X296704761Y-112152916D01*
X296680952Y-112057678D01*
X296657142Y-112010059D01*
X296633333Y-111986250D01*
X296585714Y-111962440D01*
X278607142Y-112462440D02*
X278607142Y-111962440D01*
X278488095Y-111962440D01*
X278416666Y-111986250D01*
X278369047Y-112033869D01*
X278345238Y-112081488D01*
X278321428Y-112176726D01*
X278321428Y-112248154D01*
X278345238Y-112343392D01*
X278369047Y-112391011D01*
X278416666Y-112438630D01*
X278488095Y-112462440D01*
X278607142Y-112462440D01*
X278154761Y-111962440D02*
X277845238Y-111962440D01*
X278011904Y-112152916D01*
X277940476Y-112152916D01*
X277892857Y-112176726D01*
X277869047Y-112200535D01*
X277845238Y-112248154D01*
X277845238Y-112367202D01*
X277869047Y-112414821D01*
X277892857Y-112438630D01*
X277940476Y-112462440D01*
X278083333Y-112462440D01*
X278130952Y-112438630D01*
X278154761Y-112414821D01*
X277607142Y-112462440D02*
X277511904Y-112462440D01*
X277464285Y-112438630D01*
X277440476Y-112414821D01*
X277392857Y-112343392D01*
X277369047Y-112248154D01*
X277369047Y-112057678D01*
X277392857Y-112010059D01*
X277416666Y-111986250D01*
X277464285Y-111962440D01*
X277559523Y-111962440D01*
X277607142Y-111986250D01*
X277630952Y-112010059D01*
X277654761Y-112057678D01*
X277654761Y-112176726D01*
X277630952Y-112224345D01*
X277607142Y-112248154D01*
X277559523Y-112271964D01*
X277464285Y-112271964D01*
X277416666Y-112248154D01*
X277392857Y-112224345D01*
X277369047Y-112176726D01*
X259557142Y-112462440D02*
X259557142Y-111962440D01*
X259438095Y-111962440D01*
X259366666Y-111986250D01*
X259319047Y-112033869D01*
X259295238Y-112081488D01*
X259271428Y-112176726D01*
X259271428Y-112248154D01*
X259295238Y-112343392D01*
X259319047Y-112391011D01*
X259366666Y-112438630D01*
X259438095Y-112462440D01*
X259557142Y-112462440D01*
X259104761Y-111962440D02*
X258795238Y-111962440D01*
X258961904Y-112152916D01*
X258890476Y-112152916D01*
X258842857Y-112176726D01*
X258819047Y-112200535D01*
X258795238Y-112248154D01*
X258795238Y-112367202D01*
X258819047Y-112414821D01*
X258842857Y-112438630D01*
X258890476Y-112462440D01*
X259033333Y-112462440D01*
X259080952Y-112438630D01*
X259104761Y-112414821D01*
X258509523Y-112176726D02*
X258557142Y-112152916D01*
X258580952Y-112129107D01*
X258604761Y-112081488D01*
X258604761Y-112057678D01*
X258580952Y-112010059D01*
X258557142Y-111986250D01*
X258509523Y-111962440D01*
X258414285Y-111962440D01*
X258366666Y-111986250D01*
X258342857Y-112010059D01*
X258319047Y-112057678D01*
X258319047Y-112081488D01*
X258342857Y-112129107D01*
X258366666Y-112152916D01*
X258414285Y-112176726D01*
X258509523Y-112176726D01*
X258557142Y-112200535D01*
X258580952Y-112224345D01*
X258604761Y-112271964D01*
X258604761Y-112367202D01*
X258580952Y-112414821D01*
X258557142Y-112438630D01*
X258509523Y-112462440D01*
X258414285Y-112462440D01*
X258366666Y-112438630D01*
X258342857Y-112414821D01*
X258319047Y-112367202D01*
X258319047Y-112271964D01*
X258342857Y-112224345D01*
X258366666Y-112200535D01*
X258414285Y-112176726D01*
X240507142Y-112462440D02*
X240507142Y-111962440D01*
X240388095Y-111962440D01*
X240316666Y-111986250D01*
X240269047Y-112033869D01*
X240245238Y-112081488D01*
X240221428Y-112176726D01*
X240221428Y-112248154D01*
X240245238Y-112343392D01*
X240269047Y-112391011D01*
X240316666Y-112438630D01*
X240388095Y-112462440D01*
X240507142Y-112462440D01*
X240054761Y-111962440D02*
X239745238Y-111962440D01*
X239911904Y-112152916D01*
X239840476Y-112152916D01*
X239792857Y-112176726D01*
X239769047Y-112200535D01*
X239745238Y-112248154D01*
X239745238Y-112367202D01*
X239769047Y-112414821D01*
X239792857Y-112438630D01*
X239840476Y-112462440D01*
X239983333Y-112462440D01*
X240030952Y-112438630D01*
X240054761Y-112414821D01*
X239578571Y-111962440D02*
X239245238Y-111962440D01*
X239459523Y-112462440D01*
X221457142Y-112462440D02*
X221457142Y-111962440D01*
X221338095Y-111962440D01*
X221266666Y-111986250D01*
X221219047Y-112033869D01*
X221195238Y-112081488D01*
X221171428Y-112176726D01*
X221171428Y-112248154D01*
X221195238Y-112343392D01*
X221219047Y-112391011D01*
X221266666Y-112438630D01*
X221338095Y-112462440D01*
X221457142Y-112462440D01*
X221004761Y-111962440D02*
X220695238Y-111962440D01*
X220861904Y-112152916D01*
X220790476Y-112152916D01*
X220742857Y-112176726D01*
X220719047Y-112200535D01*
X220695238Y-112248154D01*
X220695238Y-112367202D01*
X220719047Y-112414821D01*
X220742857Y-112438630D01*
X220790476Y-112462440D01*
X220933333Y-112462440D01*
X220980952Y-112438630D01*
X221004761Y-112414821D01*
X220266666Y-111962440D02*
X220361904Y-111962440D01*
X220409523Y-111986250D01*
X220433333Y-112010059D01*
X220480952Y-112081488D01*
X220504761Y-112176726D01*
X220504761Y-112367202D01*
X220480952Y-112414821D01*
X220457142Y-112438630D01*
X220409523Y-112462440D01*
X220314285Y-112462440D01*
X220266666Y-112438630D01*
X220242857Y-112414821D01*
X220219047Y-112367202D01*
X220219047Y-112248154D01*
X220242857Y-112200535D01*
X220266666Y-112176726D01*
X220314285Y-112152916D01*
X220409523Y-112152916D01*
X220457142Y-112176726D01*
X220480952Y-112200535D01*
X220504761Y-112248154D01*
X202407142Y-112462440D02*
X202407142Y-111962440D01*
X202288095Y-111962440D01*
X202216666Y-111986250D01*
X202169047Y-112033869D01*
X202145238Y-112081488D01*
X202121428Y-112176726D01*
X202121428Y-112248154D01*
X202145238Y-112343392D01*
X202169047Y-112391011D01*
X202216666Y-112438630D01*
X202288095Y-112462440D01*
X202407142Y-112462440D01*
X201954761Y-111962440D02*
X201645238Y-111962440D01*
X201811904Y-112152916D01*
X201740476Y-112152916D01*
X201692857Y-112176726D01*
X201669047Y-112200535D01*
X201645238Y-112248154D01*
X201645238Y-112367202D01*
X201669047Y-112414821D01*
X201692857Y-112438630D01*
X201740476Y-112462440D01*
X201883333Y-112462440D01*
X201930952Y-112438630D01*
X201954761Y-112414821D01*
X201192857Y-111962440D02*
X201430952Y-111962440D01*
X201454761Y-112200535D01*
X201430952Y-112176726D01*
X201383333Y-112152916D01*
X201264285Y-112152916D01*
X201216666Y-112176726D01*
X201192857Y-112200535D01*
X201169047Y-112248154D01*
X201169047Y-112367202D01*
X201192857Y-112414821D01*
X201216666Y-112438630D01*
X201264285Y-112462440D01*
X201383333Y-112462440D01*
X201430952Y-112438630D01*
X201454761Y-112414821D01*
X183357142Y-112462440D02*
X183357142Y-111962440D01*
X183238095Y-111962440D01*
X183166666Y-111986250D01*
X183119047Y-112033869D01*
X183095238Y-112081488D01*
X183071428Y-112176726D01*
X183071428Y-112248154D01*
X183095238Y-112343392D01*
X183119047Y-112391011D01*
X183166666Y-112438630D01*
X183238095Y-112462440D01*
X183357142Y-112462440D01*
X182904761Y-111962440D02*
X182595238Y-111962440D01*
X182761904Y-112152916D01*
X182690476Y-112152916D01*
X182642857Y-112176726D01*
X182619047Y-112200535D01*
X182595238Y-112248154D01*
X182595238Y-112367202D01*
X182619047Y-112414821D01*
X182642857Y-112438630D01*
X182690476Y-112462440D01*
X182833333Y-112462440D01*
X182880952Y-112438630D01*
X182904761Y-112414821D01*
X182166666Y-112129107D02*
X182166666Y-112462440D01*
X182285714Y-111938630D02*
X182404761Y-112295773D01*
X182095238Y-112295773D01*
X164307142Y-112462440D02*
X164307142Y-111962440D01*
X164188095Y-111962440D01*
X164116666Y-111986250D01*
X164069047Y-112033869D01*
X164045238Y-112081488D01*
X164021428Y-112176726D01*
X164021428Y-112248154D01*
X164045238Y-112343392D01*
X164069047Y-112391011D01*
X164116666Y-112438630D01*
X164188095Y-112462440D01*
X164307142Y-112462440D01*
X163854761Y-111962440D02*
X163545238Y-111962440D01*
X163711904Y-112152916D01*
X163640476Y-112152916D01*
X163592857Y-112176726D01*
X163569047Y-112200535D01*
X163545238Y-112248154D01*
X163545238Y-112367202D01*
X163569047Y-112414821D01*
X163592857Y-112438630D01*
X163640476Y-112462440D01*
X163783333Y-112462440D01*
X163830952Y-112438630D01*
X163854761Y-112414821D01*
X163378571Y-111962440D02*
X163069047Y-111962440D01*
X163235714Y-112152916D01*
X163164285Y-112152916D01*
X163116666Y-112176726D01*
X163092857Y-112200535D01*
X163069047Y-112248154D01*
X163069047Y-112367202D01*
X163092857Y-112414821D01*
X163116666Y-112438630D01*
X163164285Y-112462440D01*
X163307142Y-112462440D01*
X163354761Y-112438630D01*
X163378571Y-112414821D01*
X145257142Y-112462440D02*
X145257142Y-111962440D01*
X145138095Y-111962440D01*
X145066666Y-111986250D01*
X145019047Y-112033869D01*
X144995238Y-112081488D01*
X144971428Y-112176726D01*
X144971428Y-112248154D01*
X144995238Y-112343392D01*
X145019047Y-112391011D01*
X145066666Y-112438630D01*
X145138095Y-112462440D01*
X145257142Y-112462440D01*
X144804761Y-111962440D02*
X144495238Y-111962440D01*
X144661904Y-112152916D01*
X144590476Y-112152916D01*
X144542857Y-112176726D01*
X144519047Y-112200535D01*
X144495238Y-112248154D01*
X144495238Y-112367202D01*
X144519047Y-112414821D01*
X144542857Y-112438630D01*
X144590476Y-112462440D01*
X144733333Y-112462440D01*
X144780952Y-112438630D01*
X144804761Y-112414821D01*
X144304761Y-112010059D02*
X144280952Y-111986250D01*
X144233333Y-111962440D01*
X144114285Y-111962440D01*
X144066666Y-111986250D01*
X144042857Y-112010059D01*
X144019047Y-112057678D01*
X144019047Y-112105297D01*
X144042857Y-112176726D01*
X144328571Y-112462440D01*
X144019047Y-112462440D01*
X126207142Y-112462440D02*
X126207142Y-111962440D01*
X126088095Y-111962440D01*
X126016666Y-111986250D01*
X125969047Y-112033869D01*
X125945238Y-112081488D01*
X125921428Y-112176726D01*
X125921428Y-112248154D01*
X125945238Y-112343392D01*
X125969047Y-112391011D01*
X126016666Y-112438630D01*
X126088095Y-112462440D01*
X126207142Y-112462440D01*
X125754761Y-111962440D02*
X125445238Y-111962440D01*
X125611904Y-112152916D01*
X125540476Y-112152916D01*
X125492857Y-112176726D01*
X125469047Y-112200535D01*
X125445238Y-112248154D01*
X125445238Y-112367202D01*
X125469047Y-112414821D01*
X125492857Y-112438630D01*
X125540476Y-112462440D01*
X125683333Y-112462440D01*
X125730952Y-112438630D01*
X125754761Y-112414821D01*
X124969047Y-112462440D02*
X125254761Y-112462440D01*
X125111904Y-112462440D02*
X125111904Y-111962440D01*
X125159523Y-112033869D01*
X125207142Y-112081488D01*
X125254761Y-112105297D01*
X107157142Y-112462440D02*
X107157142Y-111962440D01*
X107038095Y-111962440D01*
X106966666Y-111986250D01*
X106919047Y-112033869D01*
X106895238Y-112081488D01*
X106871428Y-112176726D01*
X106871428Y-112248154D01*
X106895238Y-112343392D01*
X106919047Y-112391011D01*
X106966666Y-112438630D01*
X107038095Y-112462440D01*
X107157142Y-112462440D01*
X106704761Y-111962440D02*
X106395238Y-111962440D01*
X106561904Y-112152916D01*
X106490476Y-112152916D01*
X106442857Y-112176726D01*
X106419047Y-112200535D01*
X106395238Y-112248154D01*
X106395238Y-112367202D01*
X106419047Y-112414821D01*
X106442857Y-112438630D01*
X106490476Y-112462440D01*
X106633333Y-112462440D01*
X106680952Y-112438630D01*
X106704761Y-112414821D01*
X106085714Y-111962440D02*
X106038095Y-111962440D01*
X105990476Y-111986250D01*
X105966666Y-112010059D01*
X105942857Y-112057678D01*
X105919047Y-112152916D01*
X105919047Y-112271964D01*
X105942857Y-112367202D01*
X105966666Y-112414821D01*
X105990476Y-112438630D01*
X106038095Y-112462440D01*
X106085714Y-112462440D01*
X106133333Y-112438630D01*
X106157142Y-112414821D01*
X106180952Y-112367202D01*
X106204761Y-112271964D01*
X106204761Y-112152916D01*
X106180952Y-112057678D01*
X106157142Y-112010059D01*
X106133333Y-111986250D01*
X106085714Y-111962440D01*
X88107142Y-112462440D02*
X88107142Y-111962440D01*
X87988095Y-111962440D01*
X87916666Y-111986250D01*
X87869047Y-112033869D01*
X87845238Y-112081488D01*
X87821428Y-112176726D01*
X87821428Y-112248154D01*
X87845238Y-112343392D01*
X87869047Y-112391011D01*
X87916666Y-112438630D01*
X87988095Y-112462440D01*
X88107142Y-112462440D01*
X87630952Y-112010059D02*
X87607142Y-111986250D01*
X87559523Y-111962440D01*
X87440476Y-111962440D01*
X87392857Y-111986250D01*
X87369047Y-112010059D01*
X87345238Y-112057678D01*
X87345238Y-112105297D01*
X87369047Y-112176726D01*
X87654761Y-112462440D01*
X87345238Y-112462440D01*
X87107142Y-112462440D02*
X87011904Y-112462440D01*
X86964285Y-112438630D01*
X86940476Y-112414821D01*
X86892857Y-112343392D01*
X86869047Y-112248154D01*
X86869047Y-112057678D01*
X86892857Y-112010059D01*
X86916666Y-111986250D01*
X86964285Y-111962440D01*
X87059523Y-111962440D01*
X87107142Y-111986250D01*
X87130952Y-112010059D01*
X87154761Y-112057678D01*
X87154761Y-112176726D01*
X87130952Y-112224345D01*
X87107142Y-112248154D01*
X87059523Y-112271964D01*
X86964285Y-112271964D01*
X86916666Y-112248154D01*
X86892857Y-112224345D01*
X86869047Y-112176726D01*
X324965190Y-91349107D02*
X324465190Y-91349107D01*
X324465190Y-91468154D01*
X324489000Y-91539583D01*
X324536619Y-91587202D01*
X324584238Y-91611011D01*
X324679476Y-91634821D01*
X324750904Y-91634821D01*
X324846142Y-91611011D01*
X324893761Y-91587202D01*
X324941380Y-91539583D01*
X324965190Y-91468154D01*
X324965190Y-91349107D01*
X324512809Y-91825297D02*
X324489000Y-91849107D01*
X324465190Y-91896726D01*
X324465190Y-92015773D01*
X324489000Y-92063392D01*
X324512809Y-92087202D01*
X324560428Y-92111011D01*
X324608047Y-92111011D01*
X324679476Y-92087202D01*
X324965190Y-91801488D01*
X324965190Y-92111011D01*
X324679476Y-92396726D02*
X324655666Y-92349107D01*
X324631857Y-92325297D01*
X324584238Y-92301488D01*
X324560428Y-92301488D01*
X324512809Y-92325297D01*
X324489000Y-92349107D01*
X324465190Y-92396726D01*
X324465190Y-92491964D01*
X324489000Y-92539583D01*
X324512809Y-92563392D01*
X324560428Y-92587202D01*
X324584238Y-92587202D01*
X324631857Y-92563392D01*
X324655666Y-92539583D01*
X324679476Y-92491964D01*
X324679476Y-92396726D01*
X324703285Y-92349107D01*
X324727095Y-92325297D01*
X324774714Y-92301488D01*
X324869952Y-92301488D01*
X324917571Y-92325297D01*
X324941380Y-92349107D01*
X324965190Y-92396726D01*
X324965190Y-92491964D01*
X324941380Y-92539583D01*
X324917571Y-92563392D01*
X324869952Y-92587202D01*
X324774714Y-92587202D01*
X324727095Y-92563392D01*
X324703285Y-92539583D01*
X324679476Y-92491964D01*
X316707142Y-93412440D02*
X316707142Y-92912440D01*
X316588095Y-92912440D01*
X316516666Y-92936250D01*
X316469047Y-92983869D01*
X316445238Y-93031488D01*
X316421428Y-93126726D01*
X316421428Y-93198154D01*
X316445238Y-93293392D01*
X316469047Y-93341011D01*
X316516666Y-93388630D01*
X316588095Y-93412440D01*
X316707142Y-93412440D01*
X316230952Y-92960059D02*
X316207142Y-92936250D01*
X316159523Y-92912440D01*
X316040476Y-92912440D01*
X315992857Y-92936250D01*
X315969047Y-92960059D01*
X315945238Y-93007678D01*
X315945238Y-93055297D01*
X315969047Y-93126726D01*
X316254761Y-93412440D01*
X315945238Y-93412440D01*
X315778571Y-92912440D02*
X315445238Y-92912440D01*
X315659523Y-93412440D01*
X297657142Y-93412440D02*
X297657142Y-92912440D01*
X297538095Y-92912440D01*
X297466666Y-92936250D01*
X297419047Y-92983869D01*
X297395238Y-93031488D01*
X297371428Y-93126726D01*
X297371428Y-93198154D01*
X297395238Y-93293392D01*
X297419047Y-93341011D01*
X297466666Y-93388630D01*
X297538095Y-93412440D01*
X297657142Y-93412440D01*
X297180952Y-92960059D02*
X297157142Y-92936250D01*
X297109523Y-92912440D01*
X296990476Y-92912440D01*
X296942857Y-92936250D01*
X296919047Y-92960059D01*
X296895238Y-93007678D01*
X296895238Y-93055297D01*
X296919047Y-93126726D01*
X297204761Y-93412440D01*
X296895238Y-93412440D01*
X296466666Y-92912440D02*
X296561904Y-92912440D01*
X296609523Y-92936250D01*
X296633333Y-92960059D01*
X296680952Y-93031488D01*
X296704761Y-93126726D01*
X296704761Y-93317202D01*
X296680952Y-93364821D01*
X296657142Y-93388630D01*
X296609523Y-93412440D01*
X296514285Y-93412440D01*
X296466666Y-93388630D01*
X296442857Y-93364821D01*
X296419047Y-93317202D01*
X296419047Y-93198154D01*
X296442857Y-93150535D01*
X296466666Y-93126726D01*
X296514285Y-93102916D01*
X296609523Y-93102916D01*
X296657142Y-93126726D01*
X296680952Y-93150535D01*
X296704761Y-93198154D01*
X278607142Y-93412440D02*
X278607142Y-92912440D01*
X278488095Y-92912440D01*
X278416666Y-92936250D01*
X278369047Y-92983869D01*
X278345238Y-93031488D01*
X278321428Y-93126726D01*
X278321428Y-93198154D01*
X278345238Y-93293392D01*
X278369047Y-93341011D01*
X278416666Y-93388630D01*
X278488095Y-93412440D01*
X278607142Y-93412440D01*
X278130952Y-92960059D02*
X278107142Y-92936250D01*
X278059523Y-92912440D01*
X277940476Y-92912440D01*
X277892857Y-92936250D01*
X277869047Y-92960059D01*
X277845238Y-93007678D01*
X277845238Y-93055297D01*
X277869047Y-93126726D01*
X278154761Y-93412440D01*
X277845238Y-93412440D01*
X277392857Y-92912440D02*
X277630952Y-92912440D01*
X277654761Y-93150535D01*
X277630952Y-93126726D01*
X277583333Y-93102916D01*
X277464285Y-93102916D01*
X277416666Y-93126726D01*
X277392857Y-93150535D01*
X277369047Y-93198154D01*
X277369047Y-93317202D01*
X277392857Y-93364821D01*
X277416666Y-93388630D01*
X277464285Y-93412440D01*
X277583333Y-93412440D01*
X277630952Y-93388630D01*
X277654761Y-93364821D01*
X259557142Y-93412440D02*
X259557142Y-92912440D01*
X259438095Y-92912440D01*
X259366666Y-92936250D01*
X259319047Y-92983869D01*
X259295238Y-93031488D01*
X259271428Y-93126726D01*
X259271428Y-93198154D01*
X259295238Y-93293392D01*
X259319047Y-93341011D01*
X259366666Y-93388630D01*
X259438095Y-93412440D01*
X259557142Y-93412440D01*
X259080952Y-92960059D02*
X259057142Y-92936250D01*
X259009523Y-92912440D01*
X258890476Y-92912440D01*
X258842857Y-92936250D01*
X258819047Y-92960059D01*
X258795238Y-93007678D01*
X258795238Y-93055297D01*
X258819047Y-93126726D01*
X259104761Y-93412440D01*
X258795238Y-93412440D01*
X258366666Y-93079107D02*
X258366666Y-93412440D01*
X258485714Y-92888630D02*
X258604761Y-93245773D01*
X258295238Y-93245773D01*
X240507142Y-93412440D02*
X240507142Y-92912440D01*
X240388095Y-92912440D01*
X240316666Y-92936250D01*
X240269047Y-92983869D01*
X240245238Y-93031488D01*
X240221428Y-93126726D01*
X240221428Y-93198154D01*
X240245238Y-93293392D01*
X240269047Y-93341011D01*
X240316666Y-93388630D01*
X240388095Y-93412440D01*
X240507142Y-93412440D01*
X240030952Y-92960059D02*
X240007142Y-92936250D01*
X239959523Y-92912440D01*
X239840476Y-92912440D01*
X239792857Y-92936250D01*
X239769047Y-92960059D01*
X239745238Y-93007678D01*
X239745238Y-93055297D01*
X239769047Y-93126726D01*
X240054761Y-93412440D01*
X239745238Y-93412440D01*
X239578571Y-92912440D02*
X239269047Y-92912440D01*
X239435714Y-93102916D01*
X239364285Y-93102916D01*
X239316666Y-93126726D01*
X239292857Y-93150535D01*
X239269047Y-93198154D01*
X239269047Y-93317202D01*
X239292857Y-93364821D01*
X239316666Y-93388630D01*
X239364285Y-93412440D01*
X239507142Y-93412440D01*
X239554761Y-93388630D01*
X239578571Y-93364821D01*
X221457142Y-93412440D02*
X221457142Y-92912440D01*
X221338095Y-92912440D01*
X221266666Y-92936250D01*
X221219047Y-92983869D01*
X221195238Y-93031488D01*
X221171428Y-93126726D01*
X221171428Y-93198154D01*
X221195238Y-93293392D01*
X221219047Y-93341011D01*
X221266666Y-93388630D01*
X221338095Y-93412440D01*
X221457142Y-93412440D01*
X220980952Y-92960059D02*
X220957142Y-92936250D01*
X220909523Y-92912440D01*
X220790476Y-92912440D01*
X220742857Y-92936250D01*
X220719047Y-92960059D01*
X220695238Y-93007678D01*
X220695238Y-93055297D01*
X220719047Y-93126726D01*
X221004761Y-93412440D01*
X220695238Y-93412440D01*
X220504761Y-92960059D02*
X220480952Y-92936250D01*
X220433333Y-92912440D01*
X220314285Y-92912440D01*
X220266666Y-92936250D01*
X220242857Y-92960059D01*
X220219047Y-93007678D01*
X220219047Y-93055297D01*
X220242857Y-93126726D01*
X220528571Y-93412440D01*
X220219047Y-93412440D01*
X202407142Y-93412440D02*
X202407142Y-92912440D01*
X202288095Y-92912440D01*
X202216666Y-92936250D01*
X202169047Y-92983869D01*
X202145238Y-93031488D01*
X202121428Y-93126726D01*
X202121428Y-93198154D01*
X202145238Y-93293392D01*
X202169047Y-93341011D01*
X202216666Y-93388630D01*
X202288095Y-93412440D01*
X202407142Y-93412440D01*
X201930952Y-92960059D02*
X201907142Y-92936250D01*
X201859523Y-92912440D01*
X201740476Y-92912440D01*
X201692857Y-92936250D01*
X201669047Y-92960059D01*
X201645238Y-93007678D01*
X201645238Y-93055297D01*
X201669047Y-93126726D01*
X201954761Y-93412440D01*
X201645238Y-93412440D01*
X201169047Y-93412440D02*
X201454761Y-93412440D01*
X201311904Y-93412440D02*
X201311904Y-92912440D01*
X201359523Y-92983869D01*
X201407142Y-93031488D01*
X201454761Y-93055297D01*
X183357142Y-93412440D02*
X183357142Y-92912440D01*
X183238095Y-92912440D01*
X183166666Y-92936250D01*
X183119047Y-92983869D01*
X183095238Y-93031488D01*
X183071428Y-93126726D01*
X183071428Y-93198154D01*
X183095238Y-93293392D01*
X183119047Y-93341011D01*
X183166666Y-93388630D01*
X183238095Y-93412440D01*
X183357142Y-93412440D01*
X182880952Y-92960059D02*
X182857142Y-92936250D01*
X182809523Y-92912440D01*
X182690476Y-92912440D01*
X182642857Y-92936250D01*
X182619047Y-92960059D01*
X182595238Y-93007678D01*
X182595238Y-93055297D01*
X182619047Y-93126726D01*
X182904761Y-93412440D01*
X182595238Y-93412440D01*
X182285714Y-92912440D02*
X182238095Y-92912440D01*
X182190476Y-92936250D01*
X182166666Y-92960059D01*
X182142857Y-93007678D01*
X182119047Y-93102916D01*
X182119047Y-93221964D01*
X182142857Y-93317202D01*
X182166666Y-93364821D01*
X182190476Y-93388630D01*
X182238095Y-93412440D01*
X182285714Y-93412440D01*
X182333333Y-93388630D01*
X182357142Y-93364821D01*
X182380952Y-93317202D01*
X182404761Y-93221964D01*
X182404761Y-93102916D01*
X182380952Y-93007678D01*
X182357142Y-92960059D01*
X182333333Y-92936250D01*
X182285714Y-92912440D01*
X164307142Y-93412440D02*
X164307142Y-92912440D01*
X164188095Y-92912440D01*
X164116666Y-92936250D01*
X164069047Y-92983869D01*
X164045238Y-93031488D01*
X164021428Y-93126726D01*
X164021428Y-93198154D01*
X164045238Y-93293392D01*
X164069047Y-93341011D01*
X164116666Y-93388630D01*
X164188095Y-93412440D01*
X164307142Y-93412440D01*
X163545238Y-93412440D02*
X163830952Y-93412440D01*
X163688095Y-93412440D02*
X163688095Y-92912440D01*
X163735714Y-92983869D01*
X163783333Y-93031488D01*
X163830952Y-93055297D01*
X163307142Y-93412440D02*
X163211904Y-93412440D01*
X163164285Y-93388630D01*
X163140476Y-93364821D01*
X163092857Y-93293392D01*
X163069047Y-93198154D01*
X163069047Y-93007678D01*
X163092857Y-92960059D01*
X163116666Y-92936250D01*
X163164285Y-92912440D01*
X163259523Y-92912440D01*
X163307142Y-92936250D01*
X163330952Y-92960059D01*
X163354761Y-93007678D01*
X163354761Y-93126726D01*
X163330952Y-93174345D01*
X163307142Y-93198154D01*
X163259523Y-93221964D01*
X163164285Y-93221964D01*
X163116666Y-93198154D01*
X163092857Y-93174345D01*
X163069047Y-93126726D01*
X145257142Y-93412440D02*
X145257142Y-92912440D01*
X145138095Y-92912440D01*
X145066666Y-92936250D01*
X145019047Y-92983869D01*
X144995238Y-93031488D01*
X144971428Y-93126726D01*
X144971428Y-93198154D01*
X144995238Y-93293392D01*
X145019047Y-93341011D01*
X145066666Y-93388630D01*
X145138095Y-93412440D01*
X145257142Y-93412440D01*
X144495238Y-93412440D02*
X144780952Y-93412440D01*
X144638095Y-93412440D02*
X144638095Y-92912440D01*
X144685714Y-92983869D01*
X144733333Y-93031488D01*
X144780952Y-93055297D01*
X144209523Y-93126726D02*
X144257142Y-93102916D01*
X144280952Y-93079107D01*
X144304761Y-93031488D01*
X144304761Y-93007678D01*
X144280952Y-92960059D01*
X144257142Y-92936250D01*
X144209523Y-92912440D01*
X144114285Y-92912440D01*
X144066666Y-92936250D01*
X144042857Y-92960059D01*
X144019047Y-93007678D01*
X144019047Y-93031488D01*
X144042857Y-93079107D01*
X144066666Y-93102916D01*
X144114285Y-93126726D01*
X144209523Y-93126726D01*
X144257142Y-93150535D01*
X144280952Y-93174345D01*
X144304761Y-93221964D01*
X144304761Y-93317202D01*
X144280952Y-93364821D01*
X144257142Y-93388630D01*
X144209523Y-93412440D01*
X144114285Y-93412440D01*
X144066666Y-93388630D01*
X144042857Y-93364821D01*
X144019047Y-93317202D01*
X144019047Y-93221964D01*
X144042857Y-93174345D01*
X144066666Y-93150535D01*
X144114285Y-93126726D01*
X126207142Y-93412440D02*
X126207142Y-92912440D01*
X126088095Y-92912440D01*
X126016666Y-92936250D01*
X125969047Y-92983869D01*
X125945238Y-93031488D01*
X125921428Y-93126726D01*
X125921428Y-93198154D01*
X125945238Y-93293392D01*
X125969047Y-93341011D01*
X126016666Y-93388630D01*
X126088095Y-93412440D01*
X126207142Y-93412440D01*
X125445238Y-93412440D02*
X125730952Y-93412440D01*
X125588095Y-93412440D02*
X125588095Y-92912440D01*
X125635714Y-92983869D01*
X125683333Y-93031488D01*
X125730952Y-93055297D01*
X125278571Y-92912440D02*
X124945238Y-92912440D01*
X125159523Y-93412440D01*
X107157142Y-93412440D02*
X107157142Y-92912440D01*
X107038095Y-92912440D01*
X106966666Y-92936250D01*
X106919047Y-92983869D01*
X106895238Y-93031488D01*
X106871428Y-93126726D01*
X106871428Y-93198154D01*
X106895238Y-93293392D01*
X106919047Y-93341011D01*
X106966666Y-93388630D01*
X107038095Y-93412440D01*
X107157142Y-93412440D01*
X106395238Y-93412440D02*
X106680952Y-93412440D01*
X106538095Y-93412440D02*
X106538095Y-92912440D01*
X106585714Y-92983869D01*
X106633333Y-93031488D01*
X106680952Y-93055297D01*
X105966666Y-92912440D02*
X106061904Y-92912440D01*
X106109523Y-92936250D01*
X106133333Y-92960059D01*
X106180952Y-93031488D01*
X106204761Y-93126726D01*
X106204761Y-93317202D01*
X106180952Y-93364821D01*
X106157142Y-93388630D01*
X106109523Y-93412440D01*
X106014285Y-93412440D01*
X105966666Y-93388630D01*
X105942857Y-93364821D01*
X105919047Y-93317202D01*
X105919047Y-93198154D01*
X105942857Y-93150535D01*
X105966666Y-93126726D01*
X106014285Y-93102916D01*
X106109523Y-93102916D01*
X106157142Y-93126726D01*
X106180952Y-93150535D01*
X106204761Y-93198154D01*
X88107142Y-93412440D02*
X88107142Y-92912440D01*
X87988095Y-92912440D01*
X87916666Y-92936250D01*
X87869047Y-92983869D01*
X87845238Y-93031488D01*
X87821428Y-93126726D01*
X87821428Y-93198154D01*
X87845238Y-93293392D01*
X87869047Y-93341011D01*
X87916666Y-93388630D01*
X87988095Y-93412440D01*
X88107142Y-93412440D01*
X87345238Y-93412440D02*
X87630952Y-93412440D01*
X87488095Y-93412440D02*
X87488095Y-92912440D01*
X87535714Y-92983869D01*
X87583333Y-93031488D01*
X87630952Y-93055297D01*
X86892857Y-92912440D02*
X87130952Y-92912440D01*
X87154761Y-93150535D01*
X87130952Y-93126726D01*
X87083333Y-93102916D01*
X86964285Y-93102916D01*
X86916666Y-93126726D01*
X86892857Y-93150535D01*
X86869047Y-93198154D01*
X86869047Y-93317202D01*
X86892857Y-93364821D01*
X86916666Y-93388630D01*
X86964285Y-93412440D01*
X87083333Y-93412440D01*
X87130952Y-93388630D01*
X87154761Y-93364821D01*
%LPC*%
D15*
X334050000Y-81650000D03*
X339050000Y-81650000D03*
D16*
X330950000Y-88650000D03*
D17*
X342150000Y-88650000D03*
D15*
X334050000Y-96150000D03*
X336550000Y-96150000D03*
D18*
X339050000Y-96150000D03*
X339050000Y-77100000D03*
D15*
X336550000Y-77100000D03*
X334050000Y-77100000D03*
D17*
X342150000Y-69600000D03*
D16*
X330950000Y-69600000D03*
D15*
X339050000Y-62600000D03*
X334050000Y-62600000D03*
D19*
X179705000Y-153670000D03*
X207645000Y-138430000D03*
X182245000Y-153670000D03*
X184785000Y-153670000D03*
X187325000Y-153670000D03*
X189865000Y-153670000D03*
X192405000Y-153670000D03*
X194945000Y-153670000D03*
X197485000Y-153670000D03*
X200025000Y-153670000D03*
X202565000Y-153670000D03*
X205105000Y-153670000D03*
X207645000Y-153670000D03*
X205105000Y-138430000D03*
X202565000Y-138430000D03*
X200025000Y-138430000D03*
X197485000Y-138430000D03*
X194945000Y-138430000D03*
X192405000Y-138430000D03*
X189865000Y-138430000D03*
X187325000Y-138430000D03*
X184785000Y-138430000D03*
X182245000Y-138430000D03*
D20*
X179705000Y-138430000D03*
D21*
X227330000Y-88900000D03*
X217170000Y-88900000D03*
D22*
X218440000Y-86360000D03*
D23*
X222250000Y-88900000D03*
D22*
X224790000Y-83820000D03*
D21*
X151130000Y-69850000D03*
X140970000Y-69850000D03*
D22*
X142240000Y-67310000D03*
D23*
X146050000Y-69850000D03*
D22*
X148590000Y-64770000D03*
D24*
G36*
X96349441Y-70150176D02*
G01*
X96373151Y-70153693D01*
X96396402Y-70159517D01*
X96418970Y-70167592D01*
X96440639Y-70177841D01*
X96461198Y-70190164D01*
X96480451Y-70204442D01*
X96498211Y-70220539D01*
X96514308Y-70238299D01*
X96528586Y-70257552D01*
X96540909Y-70278111D01*
X96551158Y-70299780D01*
X96559233Y-70322348D01*
X96565057Y-70345599D01*
X96568574Y-70369309D01*
X96569750Y-70393250D01*
X96569750Y-70881750D01*
X96568574Y-70905691D01*
X96565057Y-70929401D01*
X96559233Y-70952652D01*
X96551158Y-70975220D01*
X96540909Y-70996889D01*
X96528586Y-71017448D01*
X96514308Y-71036701D01*
X96498211Y-71054461D01*
X96480451Y-71070558D01*
X96461198Y-71084836D01*
X96440639Y-71097159D01*
X96418970Y-71107408D01*
X96396402Y-71115483D01*
X96373151Y-71121307D01*
X96349441Y-71124824D01*
X96325500Y-71126000D01*
X95762000Y-71126000D01*
X95738059Y-71124824D01*
X95714349Y-71121307D01*
X95691098Y-71115483D01*
X95668530Y-71107408D01*
X95646861Y-71097159D01*
X95626302Y-71084836D01*
X95607049Y-71070558D01*
X95589289Y-71054461D01*
X95573192Y-71036701D01*
X95558914Y-71017448D01*
X95546591Y-70996889D01*
X95536342Y-70975220D01*
X95528267Y-70952652D01*
X95522443Y-70929401D01*
X95518926Y-70905691D01*
X95517750Y-70881750D01*
X95517750Y-70393250D01*
X95518926Y-70369309D01*
X95522443Y-70345599D01*
X95528267Y-70322348D01*
X95536342Y-70299780D01*
X95546591Y-70278111D01*
X95558914Y-70257552D01*
X95573192Y-70238299D01*
X95589289Y-70220539D01*
X95607049Y-70204442D01*
X95626302Y-70190164D01*
X95646861Y-70177841D01*
X95668530Y-70167592D01*
X95691098Y-70159517D01*
X95714349Y-70153693D01*
X95738059Y-70150176D01*
X95762000Y-70149000D01*
X96325500Y-70149000D01*
X96349441Y-70150176D01*
G37*
G36*
X96349441Y-68575176D02*
G01*
X96373151Y-68578693D01*
X96396402Y-68584517D01*
X96418970Y-68592592D01*
X96440639Y-68602841D01*
X96461198Y-68615164D01*
X96480451Y-68629442D01*
X96498211Y-68645539D01*
X96514308Y-68663299D01*
X96528586Y-68682552D01*
X96540909Y-68703111D01*
X96551158Y-68724780D01*
X96559233Y-68747348D01*
X96565057Y-68770599D01*
X96568574Y-68794309D01*
X96569750Y-68818250D01*
X96569750Y-69306750D01*
X96568574Y-69330691D01*
X96565057Y-69354401D01*
X96559233Y-69377652D01*
X96551158Y-69400220D01*
X96540909Y-69421889D01*
X96528586Y-69442448D01*
X96514308Y-69461701D01*
X96498211Y-69479461D01*
X96480451Y-69495558D01*
X96461198Y-69509836D01*
X96440639Y-69522159D01*
X96418970Y-69532408D01*
X96396402Y-69540483D01*
X96373151Y-69546307D01*
X96349441Y-69549824D01*
X96325500Y-69551000D01*
X95762000Y-69551000D01*
X95738059Y-69549824D01*
X95714349Y-69546307D01*
X95691098Y-69540483D01*
X95668530Y-69532408D01*
X95646861Y-69522159D01*
X95626302Y-69509836D01*
X95607049Y-69495558D01*
X95589289Y-69479461D01*
X95573192Y-69461701D01*
X95558914Y-69442448D01*
X95546591Y-69421889D01*
X95536342Y-69400220D01*
X95528267Y-69377652D01*
X95522443Y-69354401D01*
X95518926Y-69330691D01*
X95517750Y-69306750D01*
X95517750Y-68818250D01*
X95518926Y-68794309D01*
X95522443Y-68770599D01*
X95528267Y-68747348D01*
X95536342Y-68724780D01*
X95546591Y-68703111D01*
X95558914Y-68682552D01*
X95573192Y-68663299D01*
X95589289Y-68645539D01*
X95607049Y-68629442D01*
X95626302Y-68615164D01*
X95646861Y-68602841D01*
X95668530Y-68592592D01*
X95691098Y-68584517D01*
X95714349Y-68578693D01*
X95738059Y-68575176D01*
X95762000Y-68574000D01*
X96325500Y-68574000D01*
X96349441Y-68575176D01*
G37*
G36*
X101111941Y-70150176D02*
G01*
X101135651Y-70153693D01*
X101158902Y-70159517D01*
X101181470Y-70167592D01*
X101203139Y-70177841D01*
X101223698Y-70190164D01*
X101242951Y-70204442D01*
X101260711Y-70220539D01*
X101276808Y-70238299D01*
X101291086Y-70257552D01*
X101303409Y-70278111D01*
X101313658Y-70299780D01*
X101321733Y-70322348D01*
X101327557Y-70345599D01*
X101331074Y-70369309D01*
X101332250Y-70393250D01*
X101332250Y-70881750D01*
X101331074Y-70905691D01*
X101327557Y-70929401D01*
X101321733Y-70952652D01*
X101313658Y-70975220D01*
X101303409Y-70996889D01*
X101291086Y-71017448D01*
X101276808Y-71036701D01*
X101260711Y-71054461D01*
X101242951Y-71070558D01*
X101223698Y-71084836D01*
X101203139Y-71097159D01*
X101181470Y-71107408D01*
X101158902Y-71115483D01*
X101135651Y-71121307D01*
X101111941Y-71124824D01*
X101088000Y-71126000D01*
X100524500Y-71126000D01*
X100500559Y-71124824D01*
X100476849Y-71121307D01*
X100453598Y-71115483D01*
X100431030Y-71107408D01*
X100409361Y-71097159D01*
X100388802Y-71084836D01*
X100369549Y-71070558D01*
X100351789Y-71054461D01*
X100335692Y-71036701D01*
X100321414Y-71017448D01*
X100309091Y-70996889D01*
X100298842Y-70975220D01*
X100290767Y-70952652D01*
X100284943Y-70929401D01*
X100281426Y-70905691D01*
X100280250Y-70881750D01*
X100280250Y-70393250D01*
X100281426Y-70369309D01*
X100284943Y-70345599D01*
X100290767Y-70322348D01*
X100298842Y-70299780D01*
X100309091Y-70278111D01*
X100321414Y-70257552D01*
X100335692Y-70238299D01*
X100351789Y-70220539D01*
X100369549Y-70204442D01*
X100388802Y-70190164D01*
X100409361Y-70177841D01*
X100431030Y-70167592D01*
X100453598Y-70159517D01*
X100476849Y-70153693D01*
X100500559Y-70150176D01*
X100524500Y-70149000D01*
X101088000Y-70149000D01*
X101111941Y-70150176D01*
G37*
G36*
X101111941Y-68575176D02*
G01*
X101135651Y-68578693D01*
X101158902Y-68584517D01*
X101181470Y-68592592D01*
X101203139Y-68602841D01*
X101223698Y-68615164D01*
X101242951Y-68629442D01*
X101260711Y-68645539D01*
X101276808Y-68663299D01*
X101291086Y-68682552D01*
X101303409Y-68703111D01*
X101313658Y-68724780D01*
X101321733Y-68747348D01*
X101327557Y-68770599D01*
X101331074Y-68794309D01*
X101332250Y-68818250D01*
X101332250Y-69306750D01*
X101331074Y-69330691D01*
X101327557Y-69354401D01*
X101321733Y-69377652D01*
X101313658Y-69400220D01*
X101303409Y-69421889D01*
X101291086Y-69442448D01*
X101276808Y-69461701D01*
X101260711Y-69479461D01*
X101242951Y-69495558D01*
X101223698Y-69509836D01*
X101203139Y-69522159D01*
X101181470Y-69532408D01*
X101158902Y-69540483D01*
X101135651Y-69546307D01*
X101111941Y-69549824D01*
X101088000Y-69551000D01*
X100524500Y-69551000D01*
X100500559Y-69549824D01*
X100476849Y-69546307D01*
X100453598Y-69540483D01*
X100431030Y-69532408D01*
X100409361Y-69522159D01*
X100388802Y-69509836D01*
X100369549Y-69495558D01*
X100351789Y-69479461D01*
X100335692Y-69461701D01*
X100321414Y-69442448D01*
X100309091Y-69421889D01*
X100298842Y-69400220D01*
X100290767Y-69377652D01*
X100284943Y-69354401D01*
X100281426Y-69330691D01*
X100280250Y-69306750D01*
X100280250Y-68818250D01*
X100281426Y-68794309D01*
X100284943Y-68770599D01*
X100290767Y-68747348D01*
X100298842Y-68724780D01*
X100309091Y-68703111D01*
X100321414Y-68682552D01*
X100335692Y-68663299D01*
X100351789Y-68645539D01*
X100369549Y-68629442D01*
X100388802Y-68615164D01*
X100409361Y-68602841D01*
X100431030Y-68592592D01*
X100453598Y-68584517D01*
X100476849Y-68578693D01*
X100500559Y-68575176D01*
X100524500Y-68574000D01*
X101088000Y-68574000D01*
X101111941Y-68575176D01*
G37*
G36*
X96349441Y-89200176D02*
G01*
X96373151Y-89203693D01*
X96396402Y-89209517D01*
X96418970Y-89217592D01*
X96440639Y-89227841D01*
X96461198Y-89240164D01*
X96480451Y-89254442D01*
X96498211Y-89270539D01*
X96514308Y-89288299D01*
X96528586Y-89307552D01*
X96540909Y-89328111D01*
X96551158Y-89349780D01*
X96559233Y-89372348D01*
X96565057Y-89395599D01*
X96568574Y-89419309D01*
X96569750Y-89443250D01*
X96569750Y-89931750D01*
X96568574Y-89955691D01*
X96565057Y-89979401D01*
X96559233Y-90002652D01*
X96551158Y-90025220D01*
X96540909Y-90046889D01*
X96528586Y-90067448D01*
X96514308Y-90086701D01*
X96498211Y-90104461D01*
X96480451Y-90120558D01*
X96461198Y-90134836D01*
X96440639Y-90147159D01*
X96418970Y-90157408D01*
X96396402Y-90165483D01*
X96373151Y-90171307D01*
X96349441Y-90174824D01*
X96325500Y-90176000D01*
X95762000Y-90176000D01*
X95738059Y-90174824D01*
X95714349Y-90171307D01*
X95691098Y-90165483D01*
X95668530Y-90157408D01*
X95646861Y-90147159D01*
X95626302Y-90134836D01*
X95607049Y-90120558D01*
X95589289Y-90104461D01*
X95573192Y-90086701D01*
X95558914Y-90067448D01*
X95546591Y-90046889D01*
X95536342Y-90025220D01*
X95528267Y-90002652D01*
X95522443Y-89979401D01*
X95518926Y-89955691D01*
X95517750Y-89931750D01*
X95517750Y-89443250D01*
X95518926Y-89419309D01*
X95522443Y-89395599D01*
X95528267Y-89372348D01*
X95536342Y-89349780D01*
X95546591Y-89328111D01*
X95558914Y-89307552D01*
X95573192Y-89288299D01*
X95589289Y-89270539D01*
X95607049Y-89254442D01*
X95626302Y-89240164D01*
X95646861Y-89227841D01*
X95668530Y-89217592D01*
X95691098Y-89209517D01*
X95714349Y-89203693D01*
X95738059Y-89200176D01*
X95762000Y-89199000D01*
X96325500Y-89199000D01*
X96349441Y-89200176D01*
G37*
G36*
X96349441Y-87625176D02*
G01*
X96373151Y-87628693D01*
X96396402Y-87634517D01*
X96418970Y-87642592D01*
X96440639Y-87652841D01*
X96461198Y-87665164D01*
X96480451Y-87679442D01*
X96498211Y-87695539D01*
X96514308Y-87713299D01*
X96528586Y-87732552D01*
X96540909Y-87753111D01*
X96551158Y-87774780D01*
X96559233Y-87797348D01*
X96565057Y-87820599D01*
X96568574Y-87844309D01*
X96569750Y-87868250D01*
X96569750Y-88356750D01*
X96568574Y-88380691D01*
X96565057Y-88404401D01*
X96559233Y-88427652D01*
X96551158Y-88450220D01*
X96540909Y-88471889D01*
X96528586Y-88492448D01*
X96514308Y-88511701D01*
X96498211Y-88529461D01*
X96480451Y-88545558D01*
X96461198Y-88559836D01*
X96440639Y-88572159D01*
X96418970Y-88582408D01*
X96396402Y-88590483D01*
X96373151Y-88596307D01*
X96349441Y-88599824D01*
X96325500Y-88601000D01*
X95762000Y-88601000D01*
X95738059Y-88599824D01*
X95714349Y-88596307D01*
X95691098Y-88590483D01*
X95668530Y-88582408D01*
X95646861Y-88572159D01*
X95626302Y-88559836D01*
X95607049Y-88545558D01*
X95589289Y-88529461D01*
X95573192Y-88511701D01*
X95558914Y-88492448D01*
X95546591Y-88471889D01*
X95536342Y-88450220D01*
X95528267Y-88427652D01*
X95522443Y-88404401D01*
X95518926Y-88380691D01*
X95517750Y-88356750D01*
X95517750Y-87868250D01*
X95518926Y-87844309D01*
X95522443Y-87820599D01*
X95528267Y-87797348D01*
X95536342Y-87774780D01*
X95546591Y-87753111D01*
X95558914Y-87732552D01*
X95573192Y-87713299D01*
X95589289Y-87695539D01*
X95607049Y-87679442D01*
X95626302Y-87665164D01*
X95646861Y-87652841D01*
X95668530Y-87642592D01*
X95691098Y-87634517D01*
X95714349Y-87628693D01*
X95738059Y-87625176D01*
X95762000Y-87624000D01*
X96325500Y-87624000D01*
X96349441Y-87625176D01*
G37*
G36*
X101111941Y-89200176D02*
G01*
X101135651Y-89203693D01*
X101158902Y-89209517D01*
X101181470Y-89217592D01*
X101203139Y-89227841D01*
X101223698Y-89240164D01*
X101242951Y-89254442D01*
X101260711Y-89270539D01*
X101276808Y-89288299D01*
X101291086Y-89307552D01*
X101303409Y-89328111D01*
X101313658Y-89349780D01*
X101321733Y-89372348D01*
X101327557Y-89395599D01*
X101331074Y-89419309D01*
X101332250Y-89443250D01*
X101332250Y-89931750D01*
X101331074Y-89955691D01*
X101327557Y-89979401D01*
X101321733Y-90002652D01*
X101313658Y-90025220D01*
X101303409Y-90046889D01*
X101291086Y-90067448D01*
X101276808Y-90086701D01*
X101260711Y-90104461D01*
X101242951Y-90120558D01*
X101223698Y-90134836D01*
X101203139Y-90147159D01*
X101181470Y-90157408D01*
X101158902Y-90165483D01*
X101135651Y-90171307D01*
X101111941Y-90174824D01*
X101088000Y-90176000D01*
X100524500Y-90176000D01*
X100500559Y-90174824D01*
X100476849Y-90171307D01*
X100453598Y-90165483D01*
X100431030Y-90157408D01*
X100409361Y-90147159D01*
X100388802Y-90134836D01*
X100369549Y-90120558D01*
X100351789Y-90104461D01*
X100335692Y-90086701D01*
X100321414Y-90067448D01*
X100309091Y-90046889D01*
X100298842Y-90025220D01*
X100290767Y-90002652D01*
X100284943Y-89979401D01*
X100281426Y-89955691D01*
X100280250Y-89931750D01*
X100280250Y-89443250D01*
X100281426Y-89419309D01*
X100284943Y-89395599D01*
X100290767Y-89372348D01*
X100298842Y-89349780D01*
X100309091Y-89328111D01*
X100321414Y-89307552D01*
X100335692Y-89288299D01*
X100351789Y-89270539D01*
X100369549Y-89254442D01*
X100388802Y-89240164D01*
X100409361Y-89227841D01*
X100431030Y-89217592D01*
X100453598Y-89209517D01*
X100476849Y-89203693D01*
X100500559Y-89200176D01*
X100524500Y-89199000D01*
X101088000Y-89199000D01*
X101111941Y-89200176D01*
G37*
G36*
X101111941Y-87625176D02*
G01*
X101135651Y-87628693D01*
X101158902Y-87634517D01*
X101181470Y-87642592D01*
X101203139Y-87652841D01*
X101223698Y-87665164D01*
X101242951Y-87679442D01*
X101260711Y-87695539D01*
X101276808Y-87713299D01*
X101291086Y-87732552D01*
X101303409Y-87753111D01*
X101313658Y-87774780D01*
X101321733Y-87797348D01*
X101327557Y-87820599D01*
X101331074Y-87844309D01*
X101332250Y-87868250D01*
X101332250Y-88356750D01*
X101331074Y-88380691D01*
X101327557Y-88404401D01*
X101321733Y-88427652D01*
X101313658Y-88450220D01*
X101303409Y-88471889D01*
X101291086Y-88492448D01*
X101276808Y-88511701D01*
X101260711Y-88529461D01*
X101242951Y-88545558D01*
X101223698Y-88559836D01*
X101203139Y-88572159D01*
X101181470Y-88582408D01*
X101158902Y-88590483D01*
X101135651Y-88596307D01*
X101111941Y-88599824D01*
X101088000Y-88601000D01*
X100524500Y-88601000D01*
X100500559Y-88599824D01*
X100476849Y-88596307D01*
X100453598Y-88590483D01*
X100431030Y-88582408D01*
X100409361Y-88572159D01*
X100388802Y-88559836D01*
X100369549Y-88545558D01*
X100351789Y-88529461D01*
X100335692Y-88511701D01*
X100321414Y-88492448D01*
X100309091Y-88471889D01*
X100298842Y-88450220D01*
X100290767Y-88427652D01*
X100284943Y-88404401D01*
X100281426Y-88380691D01*
X100280250Y-88356750D01*
X100280250Y-87868250D01*
X100281426Y-87844309D01*
X100284943Y-87820599D01*
X100290767Y-87797348D01*
X100298842Y-87774780D01*
X100309091Y-87753111D01*
X100321414Y-87732552D01*
X100335692Y-87713299D01*
X100351789Y-87695539D01*
X100369549Y-87679442D01*
X100388802Y-87665164D01*
X100409361Y-87652841D01*
X100431030Y-87642592D01*
X100453598Y-87634517D01*
X100476849Y-87628693D01*
X100500559Y-87625176D01*
X100524500Y-87624000D01*
X101088000Y-87624000D01*
X101111941Y-87625176D01*
G37*
D25*
X222250000Y-144800000D03*
D26*
X222250000Y-147340000D03*
D27*
X102745000Y-60543750D03*
X94105000Y-60543750D03*
D28*
X102745000Y-64723750D03*
X94105000Y-64723750D03*
D29*
X95535000Y-64193750D03*
X101315000Y-64193750D03*
D30*
X98175000Y-65638750D03*
X98675000Y-65638750D03*
X99175000Y-65638750D03*
X97675000Y-65638750D03*
X99675000Y-65638750D03*
X97175000Y-65638750D03*
X100175000Y-65638750D03*
X96675000Y-65638750D03*
D31*
X95975000Y-65638750D03*
X100875000Y-65638750D03*
X95200000Y-65638750D03*
X101650000Y-65638750D03*
D27*
X102745000Y-79781300D03*
X94105000Y-79781300D03*
D28*
X102745000Y-83961300D03*
X94105000Y-83961300D03*
D29*
X95535000Y-83431300D03*
X101315000Y-83431300D03*
D30*
X98175000Y-84876300D03*
X98675000Y-84876300D03*
X99175000Y-84876300D03*
X97675000Y-84876300D03*
X99675000Y-84876300D03*
X97175000Y-84876300D03*
X100175000Y-84876300D03*
X96675000Y-84876300D03*
D31*
X95975000Y-84876300D03*
X100875000Y-84876300D03*
X95200000Y-84876300D03*
X101650000Y-84876300D03*
D21*
X208280000Y-146050000D03*
X198120000Y-146050000D03*
D22*
X199390000Y-143510000D03*
D23*
X203200000Y-146050000D03*
D22*
X205740000Y-140970000D03*
X196215000Y-140970000D03*
D23*
X193675000Y-146050000D03*
D22*
X189865000Y-143510000D03*
D21*
X188595000Y-146050000D03*
X198755000Y-146050000D03*
D32*
X146050000Y-153035000D03*
X241300000Y-153035000D03*
D23*
X146050000Y-137795000D03*
X241300000Y-137795000D03*
D26*
X159395000Y-98425000D03*
X156855000Y-98425000D03*
X154315000Y-98425000D03*
D33*
X151775000Y-98425000D03*
D34*
X217487500Y-149950000D03*
D35*
X217487500Y-142150000D03*
D36*
X217487500Y-144650000D03*
X217487500Y-147450000D03*
D21*
X189230000Y-146050000D03*
X179070000Y-146050000D03*
D22*
X180340000Y-143510000D03*
D23*
X184150000Y-146050000D03*
D22*
X186690000Y-140970000D03*
D23*
X167481250Y-137795000D03*
X143668750Y-137795000D03*
D32*
X167481250Y-153035000D03*
X143668750Y-153035000D03*
D21*
X160655000Y-146050000D03*
X150495000Y-146050000D03*
D22*
X151765000Y-143510000D03*
D23*
X155575000Y-146050000D03*
D22*
X158115000Y-140970000D03*
D21*
X113030000Y-146050000D03*
X102870000Y-146050000D03*
D22*
X104140000Y-143510000D03*
D23*
X107950000Y-146050000D03*
D22*
X110490000Y-140970000D03*
D21*
X132080000Y-146050000D03*
X121920000Y-146050000D03*
D22*
X123190000Y-143510000D03*
D23*
X127000000Y-146050000D03*
D22*
X129540000Y-140970000D03*
D37*
X328930000Y-79375000D03*
X344170000Y-79375000D03*
D38*
X332740000Y-79375000D03*
X340360000Y-79375000D03*
D37*
X327660000Y-79375000D03*
X345440000Y-79375000D03*
X326390000Y-79375000D03*
X308610000Y-79375000D03*
D38*
X321310000Y-79375000D03*
X313690000Y-79375000D03*
D37*
X325120000Y-79375000D03*
X309880000Y-79375000D03*
X290830000Y-79375000D03*
X306070000Y-79375000D03*
D38*
X294640000Y-79375000D03*
X302260000Y-79375000D03*
D37*
X289560000Y-79375000D03*
X307340000Y-79375000D03*
X288290000Y-79375000D03*
X270510000Y-79375000D03*
D38*
X283210000Y-79375000D03*
X275590000Y-79375000D03*
D37*
X287020000Y-79375000D03*
X271780000Y-79375000D03*
X252730000Y-79375000D03*
X267970000Y-79375000D03*
D38*
X256540000Y-79375000D03*
X264160000Y-79375000D03*
D37*
X251460000Y-79375000D03*
X269240000Y-79375000D03*
X250190000Y-79375000D03*
X232410000Y-79375000D03*
D38*
X245110000Y-79375000D03*
X237490000Y-79375000D03*
D37*
X248920000Y-79375000D03*
X233680000Y-79375000D03*
X214630000Y-79375000D03*
X229870000Y-79375000D03*
D38*
X218440000Y-79375000D03*
X226060000Y-79375000D03*
D37*
X213360000Y-79375000D03*
X231140000Y-79375000D03*
X212090000Y-79375000D03*
X194310000Y-79375000D03*
D38*
X207010000Y-79375000D03*
X199390000Y-79375000D03*
D37*
X210820000Y-79375000D03*
X195580000Y-79375000D03*
X176530000Y-79375000D03*
X191770000Y-79375000D03*
D38*
X180340000Y-79375000D03*
X187960000Y-79375000D03*
D37*
X175260000Y-79375000D03*
X193040000Y-79375000D03*
X173990000Y-79375000D03*
X156210000Y-79375000D03*
D38*
X168910000Y-79375000D03*
X161290000Y-79375000D03*
D37*
X172720000Y-79375000D03*
X157480000Y-79375000D03*
X138430000Y-79375000D03*
X153670000Y-79375000D03*
D38*
X142240000Y-79375000D03*
X149860000Y-79375000D03*
D37*
X137160000Y-79375000D03*
X154940000Y-79375000D03*
X135890000Y-79375000D03*
X118110000Y-79375000D03*
D38*
X130810000Y-79375000D03*
X123190000Y-79375000D03*
D37*
X134620000Y-79375000D03*
X119380000Y-79375000D03*
X100330000Y-79375000D03*
X115570000Y-79375000D03*
D38*
X104140000Y-79375000D03*
X111760000Y-79375000D03*
D37*
X99060000Y-79375000D03*
X116840000Y-79375000D03*
D21*
X246380000Y-69850000D03*
X236220000Y-69850000D03*
D22*
X237490000Y-67310000D03*
D23*
X241300000Y-69850000D03*
D22*
X243840000Y-64770000D03*
D37*
X97790000Y-79375000D03*
X80010000Y-79375000D03*
D38*
X92710000Y-79375000D03*
X85090000Y-79375000D03*
D37*
X96520000Y-79375000D03*
X81280000Y-79375000D03*
D21*
X341630000Y-69850000D03*
X331470000Y-69850000D03*
D39*
X332740000Y-67310000D03*
D23*
X336550000Y-69850000D03*
D22*
X339090000Y-64770000D03*
D21*
X322580000Y-69850000D03*
X312420000Y-69850000D03*
D22*
X313690000Y-67310000D03*
D23*
X317500000Y-69850000D03*
D22*
X320040000Y-64770000D03*
D21*
X303530000Y-69850000D03*
X293370000Y-69850000D03*
D22*
X294640000Y-67310000D03*
D23*
X298450000Y-69850000D03*
D22*
X300990000Y-64770000D03*
D21*
X284480000Y-69850000D03*
X274320000Y-69850000D03*
D22*
X275590000Y-67310000D03*
D23*
X279400000Y-69850000D03*
D22*
X281940000Y-64770000D03*
D21*
X265430000Y-69850000D03*
X255270000Y-69850000D03*
D22*
X256540000Y-67310000D03*
D23*
X260350000Y-69850000D03*
D22*
X262890000Y-64770000D03*
D21*
X227330000Y-69850000D03*
X217170000Y-69850000D03*
D22*
X218440000Y-67310000D03*
D23*
X222250000Y-69850000D03*
D22*
X224790000Y-64770000D03*
D21*
X208280000Y-69850000D03*
X198120000Y-69850000D03*
D22*
X199390000Y-67310000D03*
D23*
X203200000Y-69850000D03*
D22*
X205740000Y-64770000D03*
D21*
X189230000Y-69850000D03*
X179070000Y-69850000D03*
D22*
X180340000Y-67310000D03*
D23*
X184150000Y-69850000D03*
D22*
X186690000Y-64770000D03*
D21*
X170180000Y-69850000D03*
X160020000Y-69850000D03*
D22*
X161290000Y-67310000D03*
D23*
X165100000Y-69850000D03*
D22*
X167640000Y-64770000D03*
D21*
X132080000Y-69850000D03*
X121920000Y-69850000D03*
D22*
X123190000Y-67310000D03*
D23*
X127000000Y-69850000D03*
D22*
X129540000Y-64770000D03*
D21*
X113030000Y-69850000D03*
X102870000Y-69850000D03*
D22*
X104140000Y-67310000D03*
D23*
X107950000Y-69850000D03*
D22*
X110490000Y-64770000D03*
D21*
X93980000Y-69850000D03*
X83820000Y-69850000D03*
D22*
X85090000Y-67310000D03*
D23*
X88900000Y-69850000D03*
D22*
X91440000Y-64770000D03*
D34*
X326009000Y-75406250D03*
D35*
X326009000Y-67606250D03*
D36*
X326009000Y-70106250D03*
X326009000Y-72906250D03*
D34*
X313600000Y-75406250D03*
D35*
X321400000Y-75406250D03*
D40*
X318900000Y-75406250D03*
X316100000Y-75406250D03*
D34*
X294550000Y-75406250D03*
D35*
X302350000Y-75406250D03*
D40*
X299850000Y-75406250D03*
X297050000Y-75406250D03*
D34*
X275500000Y-75406250D03*
D35*
X283300000Y-75406250D03*
D40*
X280800000Y-75406250D03*
X278000000Y-75406250D03*
D34*
X256450000Y-75406250D03*
D35*
X264250000Y-75406250D03*
D40*
X261750000Y-75406250D03*
X258950000Y-75406250D03*
D34*
X237400000Y-75406250D03*
D35*
X245200000Y-75406250D03*
D40*
X242700000Y-75406250D03*
X239900000Y-75406250D03*
D34*
X218350000Y-75406250D03*
D35*
X226150000Y-75406250D03*
D40*
X223650000Y-75406250D03*
X220850000Y-75406250D03*
D34*
X199300000Y-75406250D03*
D35*
X207100000Y-75406250D03*
D40*
X204600000Y-75406250D03*
X201800000Y-75406250D03*
D34*
X180250000Y-75406250D03*
D35*
X188050000Y-75406250D03*
D40*
X185550000Y-75406250D03*
X182750000Y-75406250D03*
D34*
X161200000Y-75406250D03*
D35*
X169000000Y-75406250D03*
D40*
X166500000Y-75406250D03*
X163700000Y-75406250D03*
D34*
X142150000Y-75406250D03*
D35*
X149950000Y-75406250D03*
D40*
X147450000Y-75406250D03*
X144650000Y-75406250D03*
D34*
X123100000Y-75406250D03*
D35*
X130900000Y-75406250D03*
D40*
X128400000Y-75406250D03*
X125600000Y-75406250D03*
D34*
X104050000Y-75406250D03*
D35*
X111850000Y-75406250D03*
D40*
X109350000Y-75406250D03*
X106550000Y-75406250D03*
D34*
X85000000Y-75406250D03*
D35*
X92800000Y-75406250D03*
D40*
X90300000Y-75406250D03*
X87500000Y-75406250D03*
D23*
X243681250Y-137795000D03*
X219868750Y-137795000D03*
D32*
X243681250Y-153035000D03*
X219868750Y-153035000D03*
D21*
X236855000Y-146050000D03*
X226695000Y-146050000D03*
D22*
X227965000Y-143510000D03*
D23*
X231775000Y-146050000D03*
D22*
X234315000Y-140970000D03*
D21*
X341630000Y-146050000D03*
X331470000Y-146050000D03*
D22*
X332740000Y-143510000D03*
D23*
X336550000Y-146050000D03*
D22*
X339090000Y-140970000D03*
D21*
X322580000Y-146050000D03*
X312420000Y-146050000D03*
D22*
X313690000Y-143510000D03*
D23*
X317500000Y-146050000D03*
D22*
X320040000Y-140970000D03*
D21*
X303530000Y-146050000D03*
X293370000Y-146050000D03*
D22*
X294640000Y-143510000D03*
D23*
X298450000Y-146050000D03*
D22*
X300990000Y-140970000D03*
D21*
X284480000Y-146050000D03*
X274320000Y-146050000D03*
D22*
X275590000Y-143510000D03*
D23*
X279400000Y-146050000D03*
D22*
X281940000Y-140970000D03*
D21*
X265430000Y-146050000D03*
X255270000Y-146050000D03*
D22*
X256540000Y-143510000D03*
D23*
X260350000Y-146050000D03*
D22*
X262890000Y-140970000D03*
D21*
X93980000Y-146050000D03*
X83820000Y-146050000D03*
D22*
X85090000Y-143510000D03*
D23*
X88900000Y-146050000D03*
D22*
X91440000Y-140970000D03*
D21*
X341630000Y-127000000D03*
X331470000Y-127000000D03*
D22*
X332740000Y-124460000D03*
D23*
X336550000Y-127000000D03*
D22*
X339090000Y-121920000D03*
D21*
X322580000Y-127000000D03*
X312420000Y-127000000D03*
D22*
X313690000Y-124460000D03*
D23*
X317500000Y-127000000D03*
D22*
X320040000Y-121920000D03*
D21*
X303530000Y-127000000D03*
X293370000Y-127000000D03*
D22*
X294640000Y-124460000D03*
D23*
X298450000Y-127000000D03*
D22*
X300990000Y-121920000D03*
D21*
X284480000Y-127000000D03*
X274320000Y-127000000D03*
D22*
X275590000Y-124460000D03*
D23*
X279400000Y-127000000D03*
D22*
X281940000Y-121920000D03*
D21*
X265430000Y-127000000D03*
X255270000Y-127000000D03*
D22*
X256540000Y-124460000D03*
D23*
X260350000Y-127000000D03*
D22*
X262890000Y-121920000D03*
D21*
X246380000Y-127000000D03*
X236220000Y-127000000D03*
D22*
X237490000Y-124460000D03*
D23*
X241300000Y-127000000D03*
D22*
X243840000Y-121920000D03*
D21*
X227330000Y-127000000D03*
X217170000Y-127000000D03*
D22*
X218440000Y-124460000D03*
D23*
X222250000Y-127000000D03*
D22*
X224790000Y-121920000D03*
D21*
X208280000Y-127000000D03*
X198120000Y-127000000D03*
D22*
X199390000Y-124460000D03*
D23*
X203200000Y-127000000D03*
D22*
X205740000Y-121920000D03*
D21*
X189230000Y-127000000D03*
X179070000Y-127000000D03*
D22*
X180340000Y-124460000D03*
D23*
X184150000Y-127000000D03*
D22*
X186690000Y-121920000D03*
D21*
X170180000Y-127000000D03*
X160020000Y-127000000D03*
D22*
X161290000Y-124460000D03*
D23*
X165100000Y-127000000D03*
D22*
X167640000Y-121920000D03*
D21*
X151130000Y-127000000D03*
X140970000Y-127000000D03*
D22*
X142240000Y-124460000D03*
D23*
X146050000Y-127000000D03*
D22*
X148590000Y-121920000D03*
D21*
X132080000Y-127000000D03*
X121920000Y-127000000D03*
D22*
X123190000Y-124460000D03*
D23*
X127000000Y-127000000D03*
D22*
X129540000Y-121920000D03*
D21*
X113030000Y-127000000D03*
X102870000Y-127000000D03*
D22*
X104140000Y-124460000D03*
D23*
X107950000Y-127000000D03*
D22*
X110490000Y-121920000D03*
D21*
X93980000Y-127000000D03*
X83820000Y-127000000D03*
D22*
X85090000Y-124460000D03*
D23*
X88900000Y-127000000D03*
D22*
X91440000Y-121920000D03*
D21*
X341630000Y-107950000D03*
X331470000Y-107950000D03*
D22*
X332740000Y-105410000D03*
D23*
X336550000Y-107950000D03*
D22*
X339090000Y-102870000D03*
D21*
X322580000Y-107950000D03*
X312420000Y-107950000D03*
D22*
X313690000Y-105410000D03*
D23*
X317500000Y-107950000D03*
D22*
X320040000Y-102870000D03*
D21*
X303530000Y-107950000D03*
X293370000Y-107950000D03*
D22*
X294640000Y-105410000D03*
D23*
X298450000Y-107950000D03*
D22*
X300990000Y-102870000D03*
D21*
X284480000Y-107950000D03*
X274320000Y-107950000D03*
D22*
X275590000Y-105410000D03*
D23*
X279400000Y-107950000D03*
D22*
X281940000Y-102870000D03*
D21*
X265430000Y-107950000D03*
X255270000Y-107950000D03*
D22*
X256540000Y-105410000D03*
D23*
X260350000Y-107950000D03*
D22*
X262890000Y-102870000D03*
D21*
X246380000Y-107950000D03*
X236220000Y-107950000D03*
D22*
X237490000Y-105410000D03*
D23*
X241300000Y-107950000D03*
D22*
X243840000Y-102870000D03*
D21*
X227330000Y-107950000D03*
X217170000Y-107950000D03*
D22*
X218440000Y-105410000D03*
D23*
X222250000Y-107950000D03*
D22*
X224790000Y-102870000D03*
D21*
X208280000Y-107950000D03*
X198120000Y-107950000D03*
D22*
X199390000Y-105410000D03*
D23*
X203200000Y-107950000D03*
D22*
X205740000Y-102870000D03*
D21*
X189230000Y-107950000D03*
X179070000Y-107950000D03*
D22*
X180340000Y-105410000D03*
D23*
X184150000Y-107950000D03*
D22*
X186690000Y-102870000D03*
D21*
X170180000Y-107950000D03*
X160020000Y-107950000D03*
D22*
X161290000Y-105410000D03*
D23*
X165100000Y-107950000D03*
D22*
X167640000Y-102870000D03*
D21*
X151130000Y-107950000D03*
X140970000Y-107950000D03*
D22*
X142240000Y-105410000D03*
D23*
X146050000Y-107950000D03*
D22*
X148590000Y-102870000D03*
D21*
X132080000Y-107950000D03*
X121920000Y-107950000D03*
D22*
X123190000Y-105410000D03*
D23*
X127000000Y-107950000D03*
D22*
X129540000Y-102870000D03*
D21*
X113030000Y-107950000D03*
X102870000Y-107950000D03*
D22*
X104140000Y-105410000D03*
D23*
X107950000Y-107950000D03*
D22*
X110490000Y-102870000D03*
D21*
X93980000Y-107950000D03*
X83820000Y-107950000D03*
D22*
X85090000Y-105410000D03*
D23*
X88900000Y-107950000D03*
D22*
X91440000Y-102870000D03*
D21*
X341630000Y-88900000D03*
X331470000Y-88900000D03*
D22*
X332740000Y-86360000D03*
D23*
X336550000Y-88900000D03*
D22*
X339090000Y-83820000D03*
D21*
X322580000Y-88900000D03*
X312420000Y-88900000D03*
D22*
X313690000Y-86360000D03*
D23*
X317500000Y-88900000D03*
D22*
X320040000Y-83820000D03*
D21*
X303530000Y-88900000D03*
X293370000Y-88900000D03*
D22*
X294640000Y-86360000D03*
D23*
X298450000Y-88900000D03*
D22*
X300990000Y-83820000D03*
D21*
X284480000Y-88900000D03*
X274320000Y-88900000D03*
D22*
X275590000Y-86360000D03*
D23*
X279400000Y-88900000D03*
D22*
X281940000Y-83820000D03*
D21*
X265430000Y-88900000D03*
X255270000Y-88900000D03*
D22*
X256540000Y-86360000D03*
D23*
X260350000Y-88900000D03*
D22*
X262890000Y-83820000D03*
D21*
X246380000Y-88900000D03*
X236220000Y-88900000D03*
D22*
X237490000Y-86360000D03*
D23*
X241300000Y-88900000D03*
D22*
X243840000Y-83820000D03*
D21*
X208280000Y-88900000D03*
X198120000Y-88900000D03*
D22*
X199390000Y-86360000D03*
D23*
X203200000Y-88900000D03*
D22*
X205740000Y-83820000D03*
D21*
X189230000Y-88900000D03*
X179070000Y-88900000D03*
D22*
X180340000Y-86360000D03*
D23*
X184150000Y-88900000D03*
D22*
X186690000Y-83820000D03*
D21*
X170180000Y-88900000D03*
X160020000Y-88900000D03*
D22*
X161290000Y-86360000D03*
D23*
X165100000Y-88900000D03*
D22*
X167640000Y-83820000D03*
D21*
X151130000Y-88900000D03*
X140970000Y-88900000D03*
D22*
X142240000Y-86360000D03*
D23*
X146050000Y-88900000D03*
D22*
X148590000Y-83820000D03*
D21*
X132080000Y-88900000D03*
X121920000Y-88900000D03*
D22*
X123190000Y-86360000D03*
D23*
X127000000Y-88900000D03*
D22*
X129540000Y-83820000D03*
D21*
X113030000Y-88900000D03*
X102870000Y-88900000D03*
D22*
X104140000Y-86360000D03*
D23*
X107950000Y-88900000D03*
D22*
X110490000Y-83820000D03*
D21*
X93980000Y-88900000D03*
X83820000Y-88900000D03*
D22*
X85090000Y-86360000D03*
D23*
X88900000Y-88900000D03*
D22*
X91440000Y-83820000D03*
D34*
X332650000Y-151606250D03*
D35*
X340450000Y-151606250D03*
D40*
X337950000Y-151606250D03*
X335150000Y-151606250D03*
D34*
X313600000Y-151606250D03*
D35*
X321400000Y-151606250D03*
D40*
X318900000Y-151606250D03*
X316100000Y-151606250D03*
D34*
X294550000Y-151606250D03*
D35*
X302350000Y-151606250D03*
D40*
X299850000Y-151606250D03*
X297050000Y-151606250D03*
D34*
X275500000Y-151606250D03*
D35*
X283300000Y-151606250D03*
D40*
X280800000Y-151606250D03*
X278000000Y-151606250D03*
D34*
X256450000Y-151606250D03*
D35*
X264250000Y-151606250D03*
D40*
X261750000Y-151606250D03*
X258950000Y-151606250D03*
D34*
X227875000Y-151606250D03*
D35*
X235675000Y-151606250D03*
D40*
X233175000Y-151606250D03*
X230375000Y-151606250D03*
D34*
X211137500Y-149950000D03*
D35*
X211137500Y-142150000D03*
D36*
X211137500Y-144650000D03*
X211137500Y-147450000D03*
D34*
X214312500Y-149950000D03*
D35*
X214312500Y-142150000D03*
D36*
X214312500Y-144650000D03*
X214312500Y-147450000D03*
D34*
X151675000Y-151606250D03*
D35*
X159475000Y-151606250D03*
D40*
X156975000Y-151606250D03*
X154175000Y-151606250D03*
D34*
X123100000Y-151606250D03*
D35*
X130900000Y-151606250D03*
D40*
X128400000Y-151606250D03*
X125600000Y-151606250D03*
D34*
X104050000Y-151606250D03*
D35*
X111850000Y-151606250D03*
D40*
X109350000Y-151606250D03*
X106550000Y-151606250D03*
D34*
X85000000Y-151606250D03*
D35*
X92800000Y-151606250D03*
D40*
X90300000Y-151606250D03*
X87500000Y-151606250D03*
D34*
X332650000Y-132556250D03*
D35*
X340450000Y-132556250D03*
D40*
X337950000Y-132556250D03*
X335150000Y-132556250D03*
D34*
X313600000Y-132556250D03*
D35*
X321400000Y-132556250D03*
D40*
X318900000Y-132556250D03*
X316100000Y-132556250D03*
D34*
X294550000Y-132556250D03*
D35*
X302350000Y-132556250D03*
D40*
X299850000Y-132556250D03*
X297050000Y-132556250D03*
D34*
X275500000Y-132556250D03*
D35*
X283300000Y-132556250D03*
D40*
X280800000Y-132556250D03*
X278000000Y-132556250D03*
D34*
X256450000Y-132556250D03*
D35*
X264250000Y-132556250D03*
D40*
X261750000Y-132556250D03*
X258950000Y-132556250D03*
D34*
X237400000Y-132556250D03*
D35*
X245200000Y-132556250D03*
D40*
X242700000Y-132556250D03*
X239900000Y-132556250D03*
D34*
X218350000Y-132556250D03*
D35*
X226150000Y-132556250D03*
D40*
X223650000Y-132556250D03*
X220850000Y-132556250D03*
D34*
X199300000Y-132556250D03*
D35*
X207100000Y-132556250D03*
D40*
X204600000Y-132556250D03*
X201800000Y-132556250D03*
D34*
X180250000Y-132556250D03*
D35*
X188050000Y-132556250D03*
D40*
X185550000Y-132556250D03*
X182750000Y-132556250D03*
D34*
X161200000Y-132556250D03*
D35*
X169000000Y-132556250D03*
D40*
X166500000Y-132556250D03*
X163700000Y-132556250D03*
D34*
X142150000Y-132556250D03*
D35*
X149950000Y-132556250D03*
D40*
X147450000Y-132556250D03*
X144650000Y-132556250D03*
D34*
X123100000Y-132556250D03*
D35*
X130900000Y-132556250D03*
D40*
X128400000Y-132556250D03*
X125600000Y-132556250D03*
D34*
X104050000Y-132556250D03*
D35*
X111850000Y-132556250D03*
D40*
X109350000Y-132556250D03*
X106550000Y-132556250D03*
D34*
X85000000Y-132556250D03*
D35*
X92800000Y-132556250D03*
D40*
X90300000Y-132556250D03*
X87500000Y-132556250D03*
D34*
X332650000Y-113506250D03*
D35*
X340450000Y-113506250D03*
D40*
X337950000Y-113506250D03*
X335150000Y-113506250D03*
D34*
X313600000Y-113506250D03*
D35*
X321400000Y-113506250D03*
D40*
X318900000Y-113506250D03*
X316100000Y-113506250D03*
D34*
X294550000Y-113506250D03*
D35*
X302350000Y-113506250D03*
D40*
X299850000Y-113506250D03*
X297050000Y-113506250D03*
D34*
X275500000Y-113506250D03*
D35*
X283300000Y-113506250D03*
D40*
X280800000Y-113506250D03*
X278000000Y-113506250D03*
D34*
X256450000Y-113506250D03*
D35*
X264250000Y-113506250D03*
D40*
X261750000Y-113506250D03*
X258950000Y-113506250D03*
D34*
X237400000Y-113506250D03*
D35*
X245200000Y-113506250D03*
D40*
X242700000Y-113506250D03*
X239900000Y-113506250D03*
D34*
X218350000Y-113506250D03*
D35*
X226150000Y-113506250D03*
D40*
X223650000Y-113506250D03*
X220850000Y-113506250D03*
D34*
X199300000Y-113506250D03*
D35*
X207100000Y-113506250D03*
D40*
X204600000Y-113506250D03*
X201800000Y-113506250D03*
D34*
X180250000Y-113506250D03*
D35*
X188050000Y-113506250D03*
D40*
X185550000Y-113506250D03*
X182750000Y-113506250D03*
D34*
X161200000Y-113506250D03*
D35*
X169000000Y-113506250D03*
D40*
X166500000Y-113506250D03*
X163700000Y-113506250D03*
D34*
X142150000Y-113506250D03*
D35*
X149950000Y-113506250D03*
D40*
X147450000Y-113506250D03*
X144650000Y-113506250D03*
D34*
X123100000Y-113506250D03*
D35*
X130900000Y-113506250D03*
D40*
X128400000Y-113506250D03*
X125600000Y-113506250D03*
D34*
X104050000Y-113506250D03*
D35*
X111850000Y-113506250D03*
D40*
X109350000Y-113506250D03*
X106550000Y-113506250D03*
D34*
X85000000Y-113506250D03*
D35*
X92800000Y-113506250D03*
D40*
X90300000Y-113506250D03*
X87500000Y-113506250D03*
D34*
X326009000Y-94456250D03*
D35*
X326009000Y-86656250D03*
D36*
X326009000Y-89156250D03*
X326009000Y-91956250D03*
D34*
X313600000Y-94456250D03*
D35*
X321400000Y-94456250D03*
D40*
X318900000Y-94456250D03*
X316100000Y-94456250D03*
D34*
X294550000Y-94456250D03*
D35*
X302350000Y-94456250D03*
D40*
X299850000Y-94456250D03*
X297050000Y-94456250D03*
D34*
X275500000Y-94456250D03*
D35*
X283300000Y-94456250D03*
D40*
X280800000Y-94456250D03*
X278000000Y-94456250D03*
D34*
X256450000Y-94456250D03*
D35*
X264250000Y-94456250D03*
D40*
X261750000Y-94456250D03*
X258950000Y-94456250D03*
D34*
X237400000Y-94456250D03*
D35*
X245200000Y-94456250D03*
D40*
X242700000Y-94456250D03*
X239900000Y-94456250D03*
D34*
X218350000Y-94456250D03*
D35*
X226150000Y-94456250D03*
D40*
X223650000Y-94456250D03*
X220850000Y-94456250D03*
D34*
X199300000Y-94456250D03*
D35*
X207100000Y-94456250D03*
D40*
X204600000Y-94456250D03*
X201800000Y-94456250D03*
D34*
X180250000Y-94456250D03*
D35*
X188050000Y-94456250D03*
D40*
X185550000Y-94456250D03*
X182750000Y-94456250D03*
D34*
X161200000Y-94456250D03*
D35*
X169000000Y-94456250D03*
D40*
X166500000Y-94456250D03*
X163700000Y-94456250D03*
D34*
X142150000Y-94456250D03*
D35*
X149950000Y-94456250D03*
D40*
X147450000Y-94456250D03*
X144650000Y-94456250D03*
D34*
X123100000Y-94456250D03*
D35*
X130900000Y-94456250D03*
D40*
X128400000Y-94456250D03*
X125600000Y-94456250D03*
D34*
X104050000Y-94456250D03*
D35*
X111850000Y-94456250D03*
D40*
X109350000Y-94456250D03*
X106550000Y-94456250D03*
D34*
X85000000Y-94456250D03*
D35*
X92800000Y-94456250D03*
D40*
X90300000Y-94456250D03*
X87500000Y-94456250D03*
M02*
