M48
; DRILL file {KiCad (5.1.5)-3} date 30/12/2020 13.44.05
; FORMAT={-:-/ absolute / metric / decimal}
; #@! TF.CreationDate,2020-12-30T13:44:05+08:00
; #@! TF.GenerationSoftware,Kicad,Pcbnew,(5.1.5)-3
; #@! TF.FileFunction,Plated,1,2,PTH
FMAT,2
METRIC
T1C0.400
T2C0.600
T3C1.000
T4C1.092
T5C1.200
T6C1.470
T7C1.500
%
G90
G05
T1
X81.788Y-117.475
X95.975Y-73.152
X96.139Y-67.564
X96.139Y-86.741
X97.663Y-88.392
X97.675Y-73.152
X98.425Y-117.475
X99.175Y-73.152
X100.875Y-73.152
X117.475Y-117.475
X136.525Y-117.475
X153.125Y-93.98
X154.825Y-93.98
X156.325Y-93.98
X158.025Y-93.98
X162.56Y-153.035
X173.5Y-142.029
X174.225Y-142.785
X174.95Y-95.581
X174.95Y-114.631
X174.95Y-133.681
X210.185Y-153.035
X212.725Y-117.475
X214.312Y-153.035
X224.409Y-146.05
X224.409Y-153.035
X229.362Y-117.475
X231.775Y-136.525
X234.315Y-117.475
X250.825Y-117.475
X269.875Y-117.475
X288.925Y-117.475
X307.975Y-117.475
X327.025Y-117.475
X343.662Y-117.475
T3
X217.487Y-142.15
X217.487Y-149.95
X161.2Y-75.406
X169.0Y-75.406
X275.5Y-132.556
X283.3Y-132.556
X123.1Y-75.406
X130.9Y-75.406
X104.05Y-151.606
X111.85Y-151.606
X294.55Y-94.456
X302.35Y-94.456
X218.35Y-113.506
X226.15Y-113.506
X211.137Y-142.15
X211.137Y-149.95
X161.2Y-94.456
X169.0Y-94.456
X256.45Y-113.506
X264.25Y-113.506
X237.4Y-75.406
X245.2Y-75.406
X199.3Y-75.406
X207.1Y-75.406
X313.6Y-113.506
X321.4Y-113.506
X85.0Y-132.556
X92.8Y-132.556
X313.6Y-94.456
X321.4Y-94.456
X256.45Y-151.606
X264.25Y-151.606
X294.55Y-151.606
X302.35Y-151.606
X227.875Y-151.606
X235.675Y-151.606
X218.35Y-94.456
X226.15Y-94.456
X151.775Y-98.425
X154.315Y-98.425
X156.855Y-98.425
X159.395Y-98.425
X256.45Y-75.406
X264.25Y-75.406
X256.45Y-132.556
X264.25Y-132.556
X275.5Y-75.406
X283.3Y-75.406
X332.65Y-113.506
X340.45Y-113.506
X123.1Y-132.556
X130.9Y-132.556
X237.4Y-113.506
X245.2Y-113.506
X313.6Y-151.606
X321.4Y-151.606
X142.15Y-113.506
X149.95Y-113.506
X275.5Y-151.606
X283.3Y-151.606
X142.15Y-94.456
X149.95Y-94.456
X294.55Y-113.506
X302.35Y-113.506
X326.009Y-67.606
X326.009Y-75.406
X313.6Y-132.556
X321.4Y-132.556
X104.05Y-132.556
X111.85Y-132.556
X161.2Y-132.556
X169.0Y-132.556
X85.0Y-94.456
X92.8Y-94.456
X334.05Y-81.65
X334.05Y-96.15
X336.55Y-96.15
X339.05Y-81.65
X339.05Y-96.15
X180.25Y-94.456
X188.05Y-94.456
X123.1Y-151.606
X130.9Y-151.606
X104.05Y-94.456
X111.85Y-94.456
X332.65Y-151.606
X340.45Y-151.606
X237.4Y-94.456
X245.2Y-94.456
X104.05Y-113.506
X111.85Y-113.506
X142.15Y-75.406
X149.95Y-75.406
X332.65Y-132.556
X340.45Y-132.556
X218.35Y-75.406
X226.15Y-75.406
X142.15Y-132.556
X149.95Y-132.556
X180.25Y-132.556
X188.05Y-132.556
X222.25Y-144.8
X222.25Y-147.34
X123.1Y-94.456
X130.9Y-94.456
X334.05Y-62.6
X334.05Y-77.1
X336.55Y-77.1
X339.05Y-62.6
X339.05Y-77.1
X85.0Y-113.506
X92.8Y-113.506
X199.3Y-113.506
X207.1Y-113.506
X294.55Y-75.406
X302.35Y-75.406
X313.6Y-75.406
X321.4Y-75.406
X199.3Y-132.556
X207.1Y-132.556
X180.25Y-75.406
X188.05Y-75.406
X294.55Y-132.556
X302.35Y-132.556
X237.4Y-132.556
X245.2Y-132.556
X275.5Y-94.456
X283.3Y-94.456
X275.5Y-113.506
X283.3Y-113.506
X151.675Y-151.606
X159.475Y-151.606
X199.3Y-94.456
X207.1Y-94.456
X161.2Y-113.506
X169.0Y-113.506
X256.45Y-94.456
X264.25Y-94.456
X85.0Y-75.406
X92.8Y-75.406
X218.35Y-132.556
X226.15Y-132.556
X104.05Y-75.406
X111.85Y-75.406
X85.0Y-151.606
X92.8Y-151.606
X123.1Y-113.506
X130.9Y-113.506
X180.25Y-113.506
X188.05Y-113.506
X214.312Y-142.15
X214.312Y-149.95
X326.009Y-86.656
X326.009Y-94.456
T4
X179.705Y-138.43
X179.705Y-153.67
X182.245Y-138.43
X182.245Y-153.67
X184.785Y-138.43
X184.785Y-153.67
X187.325Y-138.43
X187.325Y-153.67
X189.865Y-138.43
X189.865Y-153.67
X192.405Y-138.43
X192.405Y-153.67
X194.945Y-138.43
X194.945Y-153.67
X197.485Y-138.43
X197.485Y-153.67
X200.025Y-138.43
X200.025Y-153.67
X202.565Y-138.43
X202.565Y-153.67
X205.105Y-138.43
X205.105Y-153.67
X207.645Y-138.43
X207.645Y-153.67
T5
X332.74Y-67.31
T6
X142.24Y-67.31
X148.59Y-64.77
X218.44Y-86.36
X224.79Y-83.82
X237.49Y-124.46
X243.84Y-121.92
X256.54Y-143.51
X262.89Y-140.97
X180.34Y-124.46
X186.69Y-121.92
X256.54Y-67.31
X262.89Y-64.77
X313.69Y-86.36
X320.04Y-83.82
X161.29Y-105.41
X167.64Y-102.87
X161.29Y-86.36
X167.64Y-83.82
X332.74Y-124.46
X339.09Y-121.92
X85.09Y-143.51
X91.44Y-140.97
X332.74Y-105.41
X339.09Y-102.87
X85.09Y-67.31
X91.44Y-64.77
X180.34Y-143.51
X186.69Y-140.97
X85.09Y-105.41
X91.44Y-102.87
X313.69Y-143.51
X320.04Y-140.97
X294.64Y-105.41
X300.99Y-102.87
X104.14Y-86.36
X110.49Y-83.82
X123.19Y-124.46
X129.54Y-121.92
X218.44Y-124.46
X224.79Y-121.92
X85.09Y-124.46
X91.44Y-121.92
X199.39Y-67.31
X205.74Y-64.77
X180.34Y-67.31
X186.69Y-64.77
X199.39Y-143.51
X205.74Y-140.97
X104.14Y-67.31
X110.49Y-64.77
X227.965Y-143.51
X234.315Y-140.97
X104.14Y-105.41
X110.49Y-102.87
X275.59Y-86.36
X281.94Y-83.82
X180.34Y-86.36
X186.69Y-83.82
X85.09Y-86.36
X91.44Y-83.82
X275.59Y-124.46
X281.94Y-121.92
X256.54Y-124.46
X262.89Y-121.92
X218.44Y-67.31
X224.79Y-64.77
X313.69Y-67.31
X320.04Y-64.77
X339.09Y-64.77
X123.19Y-143.51
X129.54Y-140.97
X218.44Y-105.41
X224.79Y-102.87
X313.69Y-105.41
X320.04Y-102.87
X294.64Y-86.36
X300.99Y-83.82
X123.19Y-86.36
X129.54Y-83.82
X161.29Y-124.46
X167.64Y-121.92
X313.69Y-124.46
X320.04Y-121.92
X237.49Y-67.31
X243.84Y-64.77
X275.59Y-67.31
X281.94Y-64.77
X123.19Y-67.31
X129.54Y-64.77
X104.14Y-143.51
X110.49Y-140.97
X256.54Y-105.41
X262.89Y-102.87
X294.64Y-143.51
X300.99Y-140.97
X275.59Y-105.41
X281.94Y-102.87
X332.74Y-86.36
X339.09Y-83.82
X237.49Y-86.36
X243.84Y-83.82
X199.39Y-124.46
X205.74Y-121.92
X142.24Y-124.46
X148.59Y-121.92
X189.865Y-143.51
X196.215Y-140.97
X161.29Y-67.31
X167.64Y-64.77
X256.54Y-86.36
X262.89Y-83.82
X332.74Y-143.51
X339.09Y-140.97
X180.34Y-105.41
X186.69Y-102.87
X237.49Y-105.41
X243.84Y-102.87
X142.24Y-86.36
X148.59Y-83.82
X199.39Y-86.36
X205.74Y-83.82
X104.14Y-124.46
X110.49Y-121.92
X294.64Y-124.46
X300.99Y-121.92
X275.59Y-143.51
X281.94Y-140.97
X294.64Y-67.31
X300.99Y-64.77
X151.765Y-143.51
X158.115Y-140.97
X142.24Y-105.41
X148.59Y-102.87
X123.19Y-105.41
X129.54Y-102.87
X199.39Y-105.41
X205.74Y-102.87
T2
G00X94.105Y-60.244
M15
G01X94.105Y-60.844
M16
G05
G00X94.105Y-64.174
M15
G01X94.105Y-65.274
M16
G05
G00X102.745Y-60.244
M15
G01X102.745Y-60.844
M16
G05
G00X102.745Y-64.174
M15
G01X102.745Y-65.274
M16
G05
G00X94.105Y-79.481
M15
G01X94.105Y-80.081
M16
G05
G00X94.105Y-83.411
M15
G01X94.105Y-84.511
M16
G05
G00X102.745Y-79.481
M15
G01X102.745Y-80.081
M16
G05
G00X102.745Y-83.411
M15
G01X102.745Y-84.511
M16
G05
T7
G00X330.95Y-89.25
M15
G01X330.95Y-88.05
M16
G05
G00X342.15Y-89.3
M15
G01X342.15Y-88.0
M16
G05
G00X330.95Y-70.2
M15
G01X330.95Y-69.0
M16
G05
G00X342.15Y-70.25
M15
G01X342.15Y-68.95
M16
G05
T0
M30
