M48
; DRILL file {KiCad (5.1.5)-3} date 30/12/2020 13.44.05
; FORMAT={-:-/ absolute / metric / decimal}
; #@! TF.CreationDate,2020-12-30T13:44:05+08:00
; #@! TF.GenerationSoftware,Kicad,Pcbnew,(5.1.5)-3
; #@! TF.FileFunction,NonPlated,1,2,NPTH
FMAT,2
METRIC
T1C0.650
T2C0.787
T3C1.750
T4C3.048
T5C3.988
%
G90
G05
T1
X95.535Y-64.194
X101.315Y-64.194
X95.535Y-83.431
X101.315Y-83.431
T2
X270.51Y-79.375
X271.78Y-79.375
X287.02Y-79.375
X288.29Y-79.375
X175.26Y-79.375
X176.53Y-79.375
X191.77Y-79.375
X193.04Y-79.375
X289.56Y-79.375
X290.83Y-79.375
X306.07Y-79.375
X307.34Y-79.375
X194.31Y-79.375
X195.58Y-79.375
X210.82Y-79.375
X212.09Y-79.375
X80.01Y-79.375
X81.28Y-79.375
X96.52Y-79.375
X97.79Y-79.375
X137.16Y-79.375
X138.43Y-79.375
X153.67Y-79.375
X154.94Y-79.375
X213.36Y-79.375
X214.63Y-79.375
X229.87Y-79.375
X231.14Y-79.375
X99.06Y-79.375
X100.33Y-79.375
X115.57Y-79.375
X116.84Y-79.375
X232.41Y-79.375
X233.68Y-79.375
X248.92Y-79.375
X250.19Y-79.375
X118.11Y-79.375
X119.38Y-79.375
X134.62Y-79.375
X135.89Y-79.375
X251.46Y-79.375
X252.73Y-79.375
X267.97Y-79.375
X269.24Y-79.375
X156.21Y-79.375
X157.48Y-79.375
X172.72Y-79.375
X173.99Y-79.375
X308.61Y-79.375
X309.88Y-79.375
X325.12Y-79.375
X326.39Y-79.375
X327.66Y-79.375
X328.93Y-79.375
X344.17Y-79.375
X345.44Y-79.375
T3
X198.12Y-88.9
X208.28Y-88.9
X102.87Y-127.0
X113.03Y-127.0
X293.37Y-127.0
X303.53Y-127.0
X274.32Y-146.05
X284.48Y-146.05
X293.37Y-69.85
X303.53Y-69.85
X150.495Y-146.05
X160.655Y-146.05
X140.97Y-107.95
X151.13Y-107.95
X121.92Y-107.95
X132.08Y-107.95
X198.12Y-107.95
X208.28Y-107.95
X140.97Y-69.85
X151.13Y-69.85
X217.17Y-88.9
X227.33Y-88.9
X236.22Y-127.0
X246.38Y-127.0
X255.27Y-146.05
X265.43Y-146.05
X179.07Y-127.0
X189.23Y-127.0
X255.27Y-69.85
X265.43Y-69.85
X312.42Y-88.9
X322.58Y-88.9
X160.02Y-107.95
X170.18Y-107.95
X160.02Y-88.9
X170.18Y-88.9
X331.47Y-127.0
X341.63Y-127.0
X83.82Y-146.05
X93.98Y-146.05
X331.47Y-107.95
X341.63Y-107.95
X83.82Y-69.85
X93.98Y-69.85
X179.07Y-146.05
X189.23Y-146.05
X83.82Y-107.95
X93.98Y-107.95
X312.42Y-146.05
X322.58Y-146.05
X293.37Y-107.95
X303.53Y-107.95
X102.87Y-88.9
X113.03Y-88.9
X121.92Y-127.0
X132.08Y-127.0
X217.17Y-127.0
X227.33Y-127.0
X83.82Y-127.0
X93.98Y-127.0
X198.12Y-69.85
X208.28Y-69.85
X179.07Y-69.85
X189.23Y-69.85
X198.12Y-146.05
X208.28Y-146.05
X102.87Y-69.85
X113.03Y-69.85
X226.695Y-146.05
X236.855Y-146.05
X102.87Y-107.95
X113.03Y-107.95
X274.32Y-88.9
X284.48Y-88.9
X179.07Y-88.9
X189.23Y-88.9
X83.82Y-88.9
X93.98Y-88.9
X274.32Y-127.0
X284.48Y-127.0
X255.27Y-127.0
X265.43Y-127.0
X217.17Y-69.85
X227.33Y-69.85
X312.42Y-69.85
X322.58Y-69.85
X331.47Y-69.85
X341.63Y-69.85
X121.92Y-146.05
X132.08Y-146.05
X217.17Y-107.95
X227.33Y-107.95
X312.42Y-107.95
X322.58Y-107.95
X293.37Y-88.9
X303.53Y-88.9
X121.92Y-88.9
X132.08Y-88.9
X160.02Y-127.0
X170.18Y-127.0
X312.42Y-127.0
X322.58Y-127.0
X236.22Y-69.85
X246.38Y-69.85
X274.32Y-69.85
X284.48Y-69.85
X121.92Y-69.85
X132.08Y-69.85
X102.87Y-146.05
X113.03Y-146.05
X255.27Y-107.95
X265.43Y-107.95
X293.37Y-146.05
X303.53Y-146.05
X274.32Y-107.95
X284.48Y-107.95
X331.47Y-88.9
X341.63Y-88.9
X236.22Y-88.9
X246.38Y-88.9
X198.12Y-127.0
X208.28Y-127.0
X140.97Y-127.0
X151.13Y-127.0
X188.595Y-146.05
X198.755Y-146.05
X160.02Y-69.85
X170.18Y-69.85
X255.27Y-88.9
X265.43Y-88.9
X331.47Y-146.05
X341.63Y-146.05
X179.07Y-107.95
X189.23Y-107.95
X236.22Y-107.95
X246.38Y-107.95
X140.97Y-88.9
X151.13Y-88.9
T4
X146.05Y-153.035
X143.669Y-153.035
X219.869Y-153.035
X243.681Y-153.035
X241.3Y-153.035
X167.481Y-153.035
T5
X260.35Y-69.85
X317.5Y-88.9
X165.1Y-107.95
X165.1Y-88.9
X336.55Y-127.0
X88.9Y-146.05
X336.55Y-107.95
X88.9Y-69.85
X184.15Y-146.05
X88.9Y-107.95
X317.5Y-146.05
X298.45Y-107.95
X107.95Y-88.9
X127.0Y-127.0
X222.25Y-127.0
X88.9Y-127.0
X203.2Y-69.85
X184.15Y-69.85
X203.2Y-146.05
X107.95Y-69.85
X219.869Y-137.795
X231.775Y-146.05
X243.681Y-137.795
X107.95Y-107.95
X279.4Y-88.9
X184.15Y-88.9
X88.9Y-88.9
X279.4Y-127.0
X260.35Y-127.0
X222.25Y-69.85
X317.5Y-69.85
X336.55Y-69.85
X127.0Y-146.05
X222.25Y-107.95
X317.5Y-107.95
X298.45Y-88.9
X127.0Y-88.9
X165.1Y-127.0
X317.5Y-127.0
X241.3Y-69.85
X279.4Y-69.85
X127.0Y-69.85
X107.95Y-146.05
X260.35Y-107.95
X298.45Y-146.05
X279.4Y-107.95
X336.55Y-88.9
X241.3Y-88.9
X203.2Y-127.0
X146.05Y-127.0
X146.05Y-137.795
X193.675Y-146.05
X241.3Y-137.795
X165.1Y-69.85
X260.35Y-88.9
X336.55Y-146.05
X184.15Y-107.95
X241.3Y-107.95
X146.05Y-88.9
X203.2Y-88.9
X107.95Y-127.0
X298.45Y-127.0
X279.4Y-146.05
X298.45Y-69.85
X143.669Y-137.795
X155.575Y-146.05
X167.481Y-137.795
X146.05Y-107.95
X127.0Y-107.95
X203.2Y-107.95
X146.05Y-69.85
X222.25Y-88.9
X241.3Y-127.0
X260.35Y-146.05
X184.15Y-127.0
T2
G00X272.984Y-79.375
M15
G01X278.196Y-79.375
M16
G05
G00X280.604Y-79.375
M15
G01X285.816Y-79.375
M16
G05
G00X177.734Y-79.375
M15
G01X182.946Y-79.375
M16
G05
G00X185.354Y-79.375
M15
G01X190.566Y-79.375
M16
G05
G00X292.034Y-79.375
M15
G01X297.246Y-79.375
M16
G05
G00X299.654Y-79.375
M15
G01X304.866Y-79.375
M16
G05
G00X196.784Y-79.375
M15
G01X201.996Y-79.375
M16
G05
G00X204.404Y-79.375
M15
G01X209.616Y-79.375
M16
G05
G00X82.484Y-79.375
M15
G01X87.696Y-79.375
M16
G05
G00X90.104Y-79.375
M15
G01X95.316Y-79.375
M16
G05
G00X139.634Y-79.375
M15
G01X144.846Y-79.375
M16
G05
G00X147.254Y-79.375
M15
G01X152.466Y-79.375
M16
G05
G00X215.834Y-79.375
M15
G01X221.046Y-79.375
M16
G05
G00X223.454Y-79.375
M15
G01X228.666Y-79.375
M16
G05
G00X101.534Y-79.375
M15
G01X106.746Y-79.375
M16
G05
G00X109.154Y-79.375
M15
G01X114.366Y-79.375
M16
G05
G00X234.884Y-79.375
M15
G01X240.096Y-79.375
M16
G05
G00X242.504Y-79.375
M15
G01X247.716Y-79.375
M16
G05
G00X120.584Y-79.375
M15
G01X125.796Y-79.375
M16
G05
G00X128.204Y-79.375
M15
G01X133.416Y-79.375
M16
G05
G00X253.934Y-79.375
M15
G01X259.146Y-79.375
M16
G05
G00X261.554Y-79.375
M15
G01X266.766Y-79.375
M16
G05
G00X158.684Y-79.375
M15
G01X163.896Y-79.375
M16
G05
G00X166.304Y-79.375
M15
G01X171.516Y-79.375
M16
G05
G00X311.084Y-79.375
M15
G01X316.296Y-79.375
M16
G05
G00X318.704Y-79.375
M15
G01X323.916Y-79.375
M16
G05
G00X330.134Y-79.375
M15
G01X335.346Y-79.375
M16
G05
G00X337.754Y-79.375
M15
G01X342.966Y-79.375
M16
G05
T0
M30
