G04 #@! TF.GenerationSoftware,KiCad,Pcbnew,(5.1.5)-3*
G04 #@! TF.CreationDate,2020-12-30T13:43:59+08:00*
G04 #@! TF.ProjectId,45ortho,34356f72-7468-46f2-9e6b-696361645f70,rev?*
G04 #@! TF.SameCoordinates,Original*
G04 #@! TF.FileFunction,Paste,Bot*
G04 #@! TF.FilePolarity,Positive*
%FSLAX46Y46*%
G04 Gerber Fmt 4.6, Leading zero omitted, Abs format (unit mm)*
G04 Created by KiCad (PCBNEW (5.1.5)-3) date 2020-12-30 13:43:59*
%MOMM*%
%LPD*%
G04 APERTURE LIST*
%ADD10C,0.100000*%
%ADD11R,0.400000X1.550000*%
%ADD12R,0.700000X1.550000*%
%ADD13R,1.200000X1.600000*%
%ADD14R,1.600000X1.200000*%
G04 APERTURE END LIST*
D10*
G36*
X96321441Y-70201053D02*
G01*
X96342676Y-70204203D01*
X96363500Y-70209419D01*
X96383712Y-70216651D01*
X96403118Y-70225830D01*
X96421531Y-70236866D01*
X96438774Y-70249654D01*
X96454680Y-70264070D01*
X96469096Y-70279976D01*
X96481884Y-70297219D01*
X96492920Y-70315632D01*
X96502099Y-70335038D01*
X96509331Y-70355250D01*
X96514547Y-70376074D01*
X96517697Y-70397309D01*
X96518750Y-70418750D01*
X96518750Y-70856250D01*
X96517697Y-70877691D01*
X96514547Y-70898926D01*
X96509331Y-70919750D01*
X96502099Y-70939962D01*
X96492920Y-70959368D01*
X96481884Y-70977781D01*
X96469096Y-70995024D01*
X96454680Y-71010930D01*
X96438774Y-71025346D01*
X96421531Y-71038134D01*
X96403118Y-71049170D01*
X96383712Y-71058349D01*
X96363500Y-71065581D01*
X96342676Y-71070797D01*
X96321441Y-71073947D01*
X96300000Y-71075000D01*
X95787500Y-71075000D01*
X95766059Y-71073947D01*
X95744824Y-71070797D01*
X95724000Y-71065581D01*
X95703788Y-71058349D01*
X95684382Y-71049170D01*
X95665969Y-71038134D01*
X95648726Y-71025346D01*
X95632820Y-71010930D01*
X95618404Y-70995024D01*
X95605616Y-70977781D01*
X95594580Y-70959368D01*
X95585401Y-70939962D01*
X95578169Y-70919750D01*
X95572953Y-70898926D01*
X95569803Y-70877691D01*
X95568750Y-70856250D01*
X95568750Y-70418750D01*
X95569803Y-70397309D01*
X95572953Y-70376074D01*
X95578169Y-70355250D01*
X95585401Y-70335038D01*
X95594580Y-70315632D01*
X95605616Y-70297219D01*
X95618404Y-70279976D01*
X95632820Y-70264070D01*
X95648726Y-70249654D01*
X95665969Y-70236866D01*
X95684382Y-70225830D01*
X95703788Y-70216651D01*
X95724000Y-70209419D01*
X95744824Y-70204203D01*
X95766059Y-70201053D01*
X95787500Y-70200000D01*
X96300000Y-70200000D01*
X96321441Y-70201053D01*
G37*
G36*
X96321441Y-68626053D02*
G01*
X96342676Y-68629203D01*
X96363500Y-68634419D01*
X96383712Y-68641651D01*
X96403118Y-68650830D01*
X96421531Y-68661866D01*
X96438774Y-68674654D01*
X96454680Y-68689070D01*
X96469096Y-68704976D01*
X96481884Y-68722219D01*
X96492920Y-68740632D01*
X96502099Y-68760038D01*
X96509331Y-68780250D01*
X96514547Y-68801074D01*
X96517697Y-68822309D01*
X96518750Y-68843750D01*
X96518750Y-69281250D01*
X96517697Y-69302691D01*
X96514547Y-69323926D01*
X96509331Y-69344750D01*
X96502099Y-69364962D01*
X96492920Y-69384368D01*
X96481884Y-69402781D01*
X96469096Y-69420024D01*
X96454680Y-69435930D01*
X96438774Y-69450346D01*
X96421531Y-69463134D01*
X96403118Y-69474170D01*
X96383712Y-69483349D01*
X96363500Y-69490581D01*
X96342676Y-69495797D01*
X96321441Y-69498947D01*
X96300000Y-69500000D01*
X95787500Y-69500000D01*
X95766059Y-69498947D01*
X95744824Y-69495797D01*
X95724000Y-69490581D01*
X95703788Y-69483349D01*
X95684382Y-69474170D01*
X95665969Y-69463134D01*
X95648726Y-69450346D01*
X95632820Y-69435930D01*
X95618404Y-69420024D01*
X95605616Y-69402781D01*
X95594580Y-69384368D01*
X95585401Y-69364962D01*
X95578169Y-69344750D01*
X95572953Y-69323926D01*
X95569803Y-69302691D01*
X95568750Y-69281250D01*
X95568750Y-68843750D01*
X95569803Y-68822309D01*
X95572953Y-68801074D01*
X95578169Y-68780250D01*
X95585401Y-68760038D01*
X95594580Y-68740632D01*
X95605616Y-68722219D01*
X95618404Y-68704976D01*
X95632820Y-68689070D01*
X95648726Y-68674654D01*
X95665969Y-68661866D01*
X95684382Y-68650830D01*
X95703788Y-68641651D01*
X95724000Y-68634419D01*
X95744824Y-68629203D01*
X95766059Y-68626053D01*
X95787500Y-68625000D01*
X96300000Y-68625000D01*
X96321441Y-68626053D01*
G37*
G36*
X101083941Y-70201053D02*
G01*
X101105176Y-70204203D01*
X101126000Y-70209419D01*
X101146212Y-70216651D01*
X101165618Y-70225830D01*
X101184031Y-70236866D01*
X101201274Y-70249654D01*
X101217180Y-70264070D01*
X101231596Y-70279976D01*
X101244384Y-70297219D01*
X101255420Y-70315632D01*
X101264599Y-70335038D01*
X101271831Y-70355250D01*
X101277047Y-70376074D01*
X101280197Y-70397309D01*
X101281250Y-70418750D01*
X101281250Y-70856250D01*
X101280197Y-70877691D01*
X101277047Y-70898926D01*
X101271831Y-70919750D01*
X101264599Y-70939962D01*
X101255420Y-70959368D01*
X101244384Y-70977781D01*
X101231596Y-70995024D01*
X101217180Y-71010930D01*
X101201274Y-71025346D01*
X101184031Y-71038134D01*
X101165618Y-71049170D01*
X101146212Y-71058349D01*
X101126000Y-71065581D01*
X101105176Y-71070797D01*
X101083941Y-71073947D01*
X101062500Y-71075000D01*
X100550000Y-71075000D01*
X100528559Y-71073947D01*
X100507324Y-71070797D01*
X100486500Y-71065581D01*
X100466288Y-71058349D01*
X100446882Y-71049170D01*
X100428469Y-71038134D01*
X100411226Y-71025346D01*
X100395320Y-71010930D01*
X100380904Y-70995024D01*
X100368116Y-70977781D01*
X100357080Y-70959368D01*
X100347901Y-70939962D01*
X100340669Y-70919750D01*
X100335453Y-70898926D01*
X100332303Y-70877691D01*
X100331250Y-70856250D01*
X100331250Y-70418750D01*
X100332303Y-70397309D01*
X100335453Y-70376074D01*
X100340669Y-70355250D01*
X100347901Y-70335038D01*
X100357080Y-70315632D01*
X100368116Y-70297219D01*
X100380904Y-70279976D01*
X100395320Y-70264070D01*
X100411226Y-70249654D01*
X100428469Y-70236866D01*
X100446882Y-70225830D01*
X100466288Y-70216651D01*
X100486500Y-70209419D01*
X100507324Y-70204203D01*
X100528559Y-70201053D01*
X100550000Y-70200000D01*
X101062500Y-70200000D01*
X101083941Y-70201053D01*
G37*
G36*
X101083941Y-68626053D02*
G01*
X101105176Y-68629203D01*
X101126000Y-68634419D01*
X101146212Y-68641651D01*
X101165618Y-68650830D01*
X101184031Y-68661866D01*
X101201274Y-68674654D01*
X101217180Y-68689070D01*
X101231596Y-68704976D01*
X101244384Y-68722219D01*
X101255420Y-68740632D01*
X101264599Y-68760038D01*
X101271831Y-68780250D01*
X101277047Y-68801074D01*
X101280197Y-68822309D01*
X101281250Y-68843750D01*
X101281250Y-69281250D01*
X101280197Y-69302691D01*
X101277047Y-69323926D01*
X101271831Y-69344750D01*
X101264599Y-69364962D01*
X101255420Y-69384368D01*
X101244384Y-69402781D01*
X101231596Y-69420024D01*
X101217180Y-69435930D01*
X101201274Y-69450346D01*
X101184031Y-69463134D01*
X101165618Y-69474170D01*
X101146212Y-69483349D01*
X101126000Y-69490581D01*
X101105176Y-69495797D01*
X101083941Y-69498947D01*
X101062500Y-69500000D01*
X100550000Y-69500000D01*
X100528559Y-69498947D01*
X100507324Y-69495797D01*
X100486500Y-69490581D01*
X100466288Y-69483349D01*
X100446882Y-69474170D01*
X100428469Y-69463134D01*
X100411226Y-69450346D01*
X100395320Y-69435930D01*
X100380904Y-69420024D01*
X100368116Y-69402781D01*
X100357080Y-69384368D01*
X100347901Y-69364962D01*
X100340669Y-69344750D01*
X100335453Y-69323926D01*
X100332303Y-69302691D01*
X100331250Y-69281250D01*
X100331250Y-68843750D01*
X100332303Y-68822309D01*
X100335453Y-68801074D01*
X100340669Y-68780250D01*
X100347901Y-68760038D01*
X100357080Y-68740632D01*
X100368116Y-68722219D01*
X100380904Y-68704976D01*
X100395320Y-68689070D01*
X100411226Y-68674654D01*
X100428469Y-68661866D01*
X100446882Y-68650830D01*
X100466288Y-68641651D01*
X100486500Y-68634419D01*
X100507324Y-68629203D01*
X100528559Y-68626053D01*
X100550000Y-68625000D01*
X101062500Y-68625000D01*
X101083941Y-68626053D01*
G37*
G36*
X96321441Y-89251053D02*
G01*
X96342676Y-89254203D01*
X96363500Y-89259419D01*
X96383712Y-89266651D01*
X96403118Y-89275830D01*
X96421531Y-89286866D01*
X96438774Y-89299654D01*
X96454680Y-89314070D01*
X96469096Y-89329976D01*
X96481884Y-89347219D01*
X96492920Y-89365632D01*
X96502099Y-89385038D01*
X96509331Y-89405250D01*
X96514547Y-89426074D01*
X96517697Y-89447309D01*
X96518750Y-89468750D01*
X96518750Y-89906250D01*
X96517697Y-89927691D01*
X96514547Y-89948926D01*
X96509331Y-89969750D01*
X96502099Y-89989962D01*
X96492920Y-90009368D01*
X96481884Y-90027781D01*
X96469096Y-90045024D01*
X96454680Y-90060930D01*
X96438774Y-90075346D01*
X96421531Y-90088134D01*
X96403118Y-90099170D01*
X96383712Y-90108349D01*
X96363500Y-90115581D01*
X96342676Y-90120797D01*
X96321441Y-90123947D01*
X96300000Y-90125000D01*
X95787500Y-90125000D01*
X95766059Y-90123947D01*
X95744824Y-90120797D01*
X95724000Y-90115581D01*
X95703788Y-90108349D01*
X95684382Y-90099170D01*
X95665969Y-90088134D01*
X95648726Y-90075346D01*
X95632820Y-90060930D01*
X95618404Y-90045024D01*
X95605616Y-90027781D01*
X95594580Y-90009368D01*
X95585401Y-89989962D01*
X95578169Y-89969750D01*
X95572953Y-89948926D01*
X95569803Y-89927691D01*
X95568750Y-89906250D01*
X95568750Y-89468750D01*
X95569803Y-89447309D01*
X95572953Y-89426074D01*
X95578169Y-89405250D01*
X95585401Y-89385038D01*
X95594580Y-89365632D01*
X95605616Y-89347219D01*
X95618404Y-89329976D01*
X95632820Y-89314070D01*
X95648726Y-89299654D01*
X95665969Y-89286866D01*
X95684382Y-89275830D01*
X95703788Y-89266651D01*
X95724000Y-89259419D01*
X95744824Y-89254203D01*
X95766059Y-89251053D01*
X95787500Y-89250000D01*
X96300000Y-89250000D01*
X96321441Y-89251053D01*
G37*
G36*
X96321441Y-87676053D02*
G01*
X96342676Y-87679203D01*
X96363500Y-87684419D01*
X96383712Y-87691651D01*
X96403118Y-87700830D01*
X96421531Y-87711866D01*
X96438774Y-87724654D01*
X96454680Y-87739070D01*
X96469096Y-87754976D01*
X96481884Y-87772219D01*
X96492920Y-87790632D01*
X96502099Y-87810038D01*
X96509331Y-87830250D01*
X96514547Y-87851074D01*
X96517697Y-87872309D01*
X96518750Y-87893750D01*
X96518750Y-88331250D01*
X96517697Y-88352691D01*
X96514547Y-88373926D01*
X96509331Y-88394750D01*
X96502099Y-88414962D01*
X96492920Y-88434368D01*
X96481884Y-88452781D01*
X96469096Y-88470024D01*
X96454680Y-88485930D01*
X96438774Y-88500346D01*
X96421531Y-88513134D01*
X96403118Y-88524170D01*
X96383712Y-88533349D01*
X96363500Y-88540581D01*
X96342676Y-88545797D01*
X96321441Y-88548947D01*
X96300000Y-88550000D01*
X95787500Y-88550000D01*
X95766059Y-88548947D01*
X95744824Y-88545797D01*
X95724000Y-88540581D01*
X95703788Y-88533349D01*
X95684382Y-88524170D01*
X95665969Y-88513134D01*
X95648726Y-88500346D01*
X95632820Y-88485930D01*
X95618404Y-88470024D01*
X95605616Y-88452781D01*
X95594580Y-88434368D01*
X95585401Y-88414962D01*
X95578169Y-88394750D01*
X95572953Y-88373926D01*
X95569803Y-88352691D01*
X95568750Y-88331250D01*
X95568750Y-87893750D01*
X95569803Y-87872309D01*
X95572953Y-87851074D01*
X95578169Y-87830250D01*
X95585401Y-87810038D01*
X95594580Y-87790632D01*
X95605616Y-87772219D01*
X95618404Y-87754976D01*
X95632820Y-87739070D01*
X95648726Y-87724654D01*
X95665969Y-87711866D01*
X95684382Y-87700830D01*
X95703788Y-87691651D01*
X95724000Y-87684419D01*
X95744824Y-87679203D01*
X95766059Y-87676053D01*
X95787500Y-87675000D01*
X96300000Y-87675000D01*
X96321441Y-87676053D01*
G37*
G36*
X101083941Y-89251053D02*
G01*
X101105176Y-89254203D01*
X101126000Y-89259419D01*
X101146212Y-89266651D01*
X101165618Y-89275830D01*
X101184031Y-89286866D01*
X101201274Y-89299654D01*
X101217180Y-89314070D01*
X101231596Y-89329976D01*
X101244384Y-89347219D01*
X101255420Y-89365632D01*
X101264599Y-89385038D01*
X101271831Y-89405250D01*
X101277047Y-89426074D01*
X101280197Y-89447309D01*
X101281250Y-89468750D01*
X101281250Y-89906250D01*
X101280197Y-89927691D01*
X101277047Y-89948926D01*
X101271831Y-89969750D01*
X101264599Y-89989962D01*
X101255420Y-90009368D01*
X101244384Y-90027781D01*
X101231596Y-90045024D01*
X101217180Y-90060930D01*
X101201274Y-90075346D01*
X101184031Y-90088134D01*
X101165618Y-90099170D01*
X101146212Y-90108349D01*
X101126000Y-90115581D01*
X101105176Y-90120797D01*
X101083941Y-90123947D01*
X101062500Y-90125000D01*
X100550000Y-90125000D01*
X100528559Y-90123947D01*
X100507324Y-90120797D01*
X100486500Y-90115581D01*
X100466288Y-90108349D01*
X100446882Y-90099170D01*
X100428469Y-90088134D01*
X100411226Y-90075346D01*
X100395320Y-90060930D01*
X100380904Y-90045024D01*
X100368116Y-90027781D01*
X100357080Y-90009368D01*
X100347901Y-89989962D01*
X100340669Y-89969750D01*
X100335453Y-89948926D01*
X100332303Y-89927691D01*
X100331250Y-89906250D01*
X100331250Y-89468750D01*
X100332303Y-89447309D01*
X100335453Y-89426074D01*
X100340669Y-89405250D01*
X100347901Y-89385038D01*
X100357080Y-89365632D01*
X100368116Y-89347219D01*
X100380904Y-89329976D01*
X100395320Y-89314070D01*
X100411226Y-89299654D01*
X100428469Y-89286866D01*
X100446882Y-89275830D01*
X100466288Y-89266651D01*
X100486500Y-89259419D01*
X100507324Y-89254203D01*
X100528559Y-89251053D01*
X100550000Y-89250000D01*
X101062500Y-89250000D01*
X101083941Y-89251053D01*
G37*
G36*
X101083941Y-87676053D02*
G01*
X101105176Y-87679203D01*
X101126000Y-87684419D01*
X101146212Y-87691651D01*
X101165618Y-87700830D01*
X101184031Y-87711866D01*
X101201274Y-87724654D01*
X101217180Y-87739070D01*
X101231596Y-87754976D01*
X101244384Y-87772219D01*
X101255420Y-87790632D01*
X101264599Y-87810038D01*
X101271831Y-87830250D01*
X101277047Y-87851074D01*
X101280197Y-87872309D01*
X101281250Y-87893750D01*
X101281250Y-88331250D01*
X101280197Y-88352691D01*
X101277047Y-88373926D01*
X101271831Y-88394750D01*
X101264599Y-88414962D01*
X101255420Y-88434368D01*
X101244384Y-88452781D01*
X101231596Y-88470024D01*
X101217180Y-88485930D01*
X101201274Y-88500346D01*
X101184031Y-88513134D01*
X101165618Y-88524170D01*
X101146212Y-88533349D01*
X101126000Y-88540581D01*
X101105176Y-88545797D01*
X101083941Y-88548947D01*
X101062500Y-88550000D01*
X100550000Y-88550000D01*
X100528559Y-88548947D01*
X100507324Y-88545797D01*
X100486500Y-88540581D01*
X100466288Y-88533349D01*
X100446882Y-88524170D01*
X100428469Y-88513134D01*
X100411226Y-88500346D01*
X100395320Y-88485930D01*
X100380904Y-88470024D01*
X100368116Y-88452781D01*
X100357080Y-88434368D01*
X100347901Y-88414962D01*
X100340669Y-88394750D01*
X100335453Y-88373926D01*
X100332303Y-88352691D01*
X100331250Y-88331250D01*
X100331250Y-87893750D01*
X100332303Y-87872309D01*
X100335453Y-87851074D01*
X100340669Y-87830250D01*
X100347901Y-87810038D01*
X100357080Y-87790632D01*
X100368116Y-87772219D01*
X100380904Y-87754976D01*
X100395320Y-87739070D01*
X100411226Y-87724654D01*
X100428469Y-87711866D01*
X100446882Y-87700830D01*
X100466288Y-87691651D01*
X100486500Y-87684419D01*
X100507324Y-87679203D01*
X100528559Y-87676053D01*
X100550000Y-87675000D01*
X101062500Y-87675000D01*
X101083941Y-87676053D01*
G37*
D11*
X98175000Y-65638750D03*
X98675000Y-65638750D03*
X99175000Y-65638750D03*
X97675000Y-65638750D03*
X99675000Y-65638750D03*
X97175000Y-65638750D03*
X100175000Y-65638750D03*
X96675000Y-65638750D03*
D12*
X95975000Y-65638750D03*
X100875000Y-65638750D03*
X95200000Y-65638750D03*
X101650000Y-65638750D03*
D11*
X98175000Y-84876300D03*
X98675000Y-84876300D03*
X99175000Y-84876300D03*
X97675000Y-84876300D03*
X99675000Y-84876300D03*
X97175000Y-84876300D03*
X100175000Y-84876300D03*
X96675000Y-84876300D03*
D12*
X95975000Y-84876300D03*
X100875000Y-84876300D03*
X95200000Y-84876300D03*
X101650000Y-84876300D03*
D13*
X217487500Y-144650000D03*
X217487500Y-147450000D03*
X326009000Y-70106250D03*
X326009000Y-72906250D03*
D14*
X318900000Y-75406250D03*
X316100000Y-75406250D03*
X299850000Y-75406250D03*
X297050000Y-75406250D03*
X280800000Y-75406250D03*
X278000000Y-75406250D03*
X261750000Y-75406250D03*
X258950000Y-75406250D03*
X242700000Y-75406250D03*
X239900000Y-75406250D03*
X223650000Y-75406250D03*
X220850000Y-75406250D03*
X204600000Y-75406250D03*
X201800000Y-75406250D03*
X185550000Y-75406250D03*
X182750000Y-75406250D03*
X166500000Y-75406250D03*
X163700000Y-75406250D03*
X147450000Y-75406250D03*
X144650000Y-75406250D03*
X128400000Y-75406250D03*
X125600000Y-75406250D03*
X109350000Y-75406250D03*
X106550000Y-75406250D03*
X90300000Y-75406250D03*
X87500000Y-75406250D03*
X337950000Y-151606250D03*
X335150000Y-151606250D03*
X318900000Y-151606250D03*
X316100000Y-151606250D03*
X299850000Y-151606250D03*
X297050000Y-151606250D03*
X280800000Y-151606250D03*
X278000000Y-151606250D03*
X261750000Y-151606250D03*
X258950000Y-151606250D03*
X233175000Y-151606250D03*
X230375000Y-151606250D03*
D13*
X211137500Y-144650000D03*
X211137500Y-147450000D03*
X214312500Y-144650000D03*
X214312500Y-147450000D03*
D14*
X156975000Y-151606250D03*
X154175000Y-151606250D03*
X128400000Y-151606250D03*
X125600000Y-151606250D03*
X109350000Y-151606250D03*
X106550000Y-151606250D03*
X90300000Y-151606250D03*
X87500000Y-151606250D03*
X337950000Y-132556250D03*
X335150000Y-132556250D03*
X318900000Y-132556250D03*
X316100000Y-132556250D03*
X299850000Y-132556250D03*
X297050000Y-132556250D03*
X280800000Y-132556250D03*
X278000000Y-132556250D03*
X261750000Y-132556250D03*
X258950000Y-132556250D03*
X242700000Y-132556250D03*
X239900000Y-132556250D03*
X223650000Y-132556250D03*
X220850000Y-132556250D03*
X204600000Y-132556250D03*
X201800000Y-132556250D03*
X185550000Y-132556250D03*
X182750000Y-132556250D03*
X166500000Y-132556250D03*
X163700000Y-132556250D03*
X147450000Y-132556250D03*
X144650000Y-132556250D03*
X128400000Y-132556250D03*
X125600000Y-132556250D03*
X109350000Y-132556250D03*
X106550000Y-132556250D03*
X90300000Y-132556250D03*
X87500000Y-132556250D03*
X337950000Y-113506250D03*
X335150000Y-113506250D03*
X318900000Y-113506250D03*
X316100000Y-113506250D03*
X299850000Y-113506250D03*
X297050000Y-113506250D03*
X280800000Y-113506250D03*
X278000000Y-113506250D03*
X261750000Y-113506250D03*
X258950000Y-113506250D03*
X242700000Y-113506250D03*
X239900000Y-113506250D03*
X223650000Y-113506250D03*
X220850000Y-113506250D03*
X204600000Y-113506250D03*
X201800000Y-113506250D03*
X185550000Y-113506250D03*
X182750000Y-113506250D03*
X166500000Y-113506250D03*
X163700000Y-113506250D03*
X147450000Y-113506250D03*
X144650000Y-113506250D03*
X128400000Y-113506250D03*
X125600000Y-113506250D03*
X109350000Y-113506250D03*
X106550000Y-113506250D03*
X90300000Y-113506250D03*
X87500000Y-113506250D03*
D13*
X326009000Y-89156250D03*
X326009000Y-91956250D03*
D14*
X318900000Y-94456250D03*
X316100000Y-94456250D03*
X299850000Y-94456250D03*
X297050000Y-94456250D03*
X280800000Y-94456250D03*
X278000000Y-94456250D03*
X261750000Y-94456250D03*
X258950000Y-94456250D03*
X242700000Y-94456250D03*
X239900000Y-94456250D03*
X223650000Y-94456250D03*
X220850000Y-94456250D03*
X204600000Y-94456250D03*
X201800000Y-94456250D03*
X185550000Y-94456250D03*
X182750000Y-94456250D03*
X166500000Y-94456250D03*
X163700000Y-94456250D03*
X147450000Y-94456250D03*
X144650000Y-94456250D03*
X128400000Y-94456250D03*
X125600000Y-94456250D03*
X109350000Y-94456250D03*
X106550000Y-94456250D03*
X90300000Y-94456250D03*
X87500000Y-94456250D03*
M02*
