G04 #@! TF.GenerationSoftware,KiCad,Pcbnew,(5.1.5)-3*
G04 #@! TF.CreationDate,2020-12-30T13:43:59+08:00*
G04 #@! TF.ProjectId,45ortho,34356f72-7468-46f2-9e6b-696361645f70,rev?*
G04 #@! TF.SameCoordinates,Original*
G04 #@! TF.FileFunction,Legend,Top*
G04 #@! TF.FilePolarity,Positive*
%FSLAX46Y46*%
G04 Gerber Fmt 4.6, Leading zero omitted, Abs format (unit mm)*
G04 Created by KiCad (PCBNEW (5.1.5)-3) date 2020-12-30 13:43:59*
%MOMM*%
%LPD*%
G04 APERTURE LIST*
%ADD10C,0.120000*%
%ADD11C,2.102000*%
%ADD12R,2.102000X3.002000*%
%ADD13R,2.102000X3.302000*%
%ADD14R,2.102000X2.102000*%
%ADD15C,1.854600*%
%ADD16R,1.854600X1.854600*%
%ADD17C,1.852000*%
%ADD18C,4.089800*%
%ADD19C,1.802000*%
%ADD20O,1.802000X1.802000*%
%ADD21O,1.100000X1.700000*%
%ADD22O,1.100000X2.200000*%
%ADD23C,0.750000*%
%ADD24C,3.150000*%
%ADD25R,1.802000X1.802000*%
%ADD26R,1.702000X1.702000*%
%ADD27C,1.702000*%
%ADD28C,0.889400*%
%ADD29O,6.102000X0.889400*%
G04 APERTURE END LIST*
D10*
X150445000Y-98425000D02*
X150445000Y-97095000D01*
X150445000Y-97095000D02*
X151775000Y-97095000D01*
X153045000Y-97095000D02*
X160725000Y-97095000D01*
X160725000Y-99755000D02*
X160725000Y-97095000D01*
X153045000Y-99755000D02*
X160725000Y-99755000D01*
X153045000Y-99755000D02*
X153045000Y-97095000D01*
%LPC*%
D11*
X334050000Y-81650000D03*
X339050000Y-81650000D03*
D12*
X330950000Y-88650000D03*
D13*
X342150000Y-88650000D03*
D11*
X334050000Y-96150000D03*
X336550000Y-96150000D03*
D14*
X339050000Y-96150000D03*
X339050000Y-77100000D03*
D11*
X336550000Y-77100000D03*
X334050000Y-77100000D03*
D13*
X342150000Y-69600000D03*
D12*
X330950000Y-69600000D03*
D11*
X339050000Y-62600000D03*
X334050000Y-62600000D03*
D15*
X179705000Y-153670000D03*
X207645000Y-138430000D03*
X182245000Y-153670000D03*
X184785000Y-153670000D03*
X187325000Y-153670000D03*
X189865000Y-153670000D03*
X192405000Y-153670000D03*
X194945000Y-153670000D03*
X197485000Y-153670000D03*
X200025000Y-153670000D03*
X202565000Y-153670000D03*
X205105000Y-153670000D03*
X207645000Y-153670000D03*
X205105000Y-138430000D03*
X202565000Y-138430000D03*
X200025000Y-138430000D03*
X197485000Y-138430000D03*
X194945000Y-138430000D03*
X192405000Y-138430000D03*
X189865000Y-138430000D03*
X187325000Y-138430000D03*
X184785000Y-138430000D03*
X182245000Y-138430000D03*
D16*
X179705000Y-138430000D03*
D17*
X227330000Y-88900000D03*
X217170000Y-88900000D03*
D18*
X222250000Y-88900000D03*
D17*
X151130000Y-69850000D03*
X140970000Y-69850000D03*
D18*
X146050000Y-69850000D03*
D19*
X222250000Y-144800000D03*
D20*
X222250000Y-147340000D03*
D21*
X102745000Y-60543750D03*
X94105000Y-60543750D03*
D22*
X102745000Y-64723750D03*
X94105000Y-64723750D03*
D23*
X95535000Y-64193750D03*
X101315000Y-64193750D03*
D21*
X102745000Y-79781300D03*
X94105000Y-79781300D03*
D22*
X102745000Y-83961300D03*
X94105000Y-83961300D03*
D23*
X95535000Y-83431300D03*
X101315000Y-83431300D03*
D17*
X208280000Y-146050000D03*
X198120000Y-146050000D03*
D18*
X203200000Y-146050000D03*
X193675000Y-146050000D03*
D17*
X188595000Y-146050000D03*
X198755000Y-146050000D03*
D24*
X146050000Y-153035000D03*
X241300000Y-153035000D03*
D18*
X146050000Y-137795000D03*
X241300000Y-137795000D03*
D20*
X159395000Y-98425000D03*
X156855000Y-98425000D03*
X154315000Y-98425000D03*
D25*
X151775000Y-98425000D03*
D26*
X217487500Y-149950000D03*
D27*
X217487500Y-142150000D03*
D17*
X189230000Y-146050000D03*
X179070000Y-146050000D03*
D18*
X184150000Y-146050000D03*
X167481250Y-137795000D03*
X143668750Y-137795000D03*
D24*
X167481250Y-153035000D03*
X143668750Y-153035000D03*
D17*
X160655000Y-146050000D03*
X150495000Y-146050000D03*
D18*
X155575000Y-146050000D03*
D17*
X113030000Y-146050000D03*
X102870000Y-146050000D03*
D18*
X107950000Y-146050000D03*
D17*
X132080000Y-146050000D03*
X121920000Y-146050000D03*
D18*
X127000000Y-146050000D03*
D28*
X328930000Y-79375000D03*
X344170000Y-79375000D03*
D29*
X332740000Y-79375000D03*
X340360000Y-79375000D03*
D28*
X327660000Y-79375000D03*
X345440000Y-79375000D03*
X326390000Y-79375000D03*
X308610000Y-79375000D03*
D29*
X321310000Y-79375000D03*
X313690000Y-79375000D03*
D28*
X325120000Y-79375000D03*
X309880000Y-79375000D03*
X290830000Y-79375000D03*
X306070000Y-79375000D03*
D29*
X294640000Y-79375000D03*
X302260000Y-79375000D03*
D28*
X289560000Y-79375000D03*
X307340000Y-79375000D03*
X288290000Y-79375000D03*
X270510000Y-79375000D03*
D29*
X283210000Y-79375000D03*
X275590000Y-79375000D03*
D28*
X287020000Y-79375000D03*
X271780000Y-79375000D03*
X252730000Y-79375000D03*
X267970000Y-79375000D03*
D29*
X256540000Y-79375000D03*
X264160000Y-79375000D03*
D28*
X251460000Y-79375000D03*
X269240000Y-79375000D03*
X250190000Y-79375000D03*
X232410000Y-79375000D03*
D29*
X245110000Y-79375000D03*
X237490000Y-79375000D03*
D28*
X248920000Y-79375000D03*
X233680000Y-79375000D03*
X214630000Y-79375000D03*
X229870000Y-79375000D03*
D29*
X218440000Y-79375000D03*
X226060000Y-79375000D03*
D28*
X213360000Y-79375000D03*
X231140000Y-79375000D03*
X212090000Y-79375000D03*
X194310000Y-79375000D03*
D29*
X207010000Y-79375000D03*
X199390000Y-79375000D03*
D28*
X210820000Y-79375000D03*
X195580000Y-79375000D03*
X176530000Y-79375000D03*
X191770000Y-79375000D03*
D29*
X180340000Y-79375000D03*
X187960000Y-79375000D03*
D28*
X175260000Y-79375000D03*
X193040000Y-79375000D03*
X173990000Y-79375000D03*
X156210000Y-79375000D03*
D29*
X168910000Y-79375000D03*
X161290000Y-79375000D03*
D28*
X172720000Y-79375000D03*
X157480000Y-79375000D03*
X138430000Y-79375000D03*
X153670000Y-79375000D03*
D29*
X142240000Y-79375000D03*
X149860000Y-79375000D03*
D28*
X137160000Y-79375000D03*
X154940000Y-79375000D03*
X135890000Y-79375000D03*
X118110000Y-79375000D03*
D29*
X130810000Y-79375000D03*
X123190000Y-79375000D03*
D28*
X134620000Y-79375000D03*
X119380000Y-79375000D03*
X100330000Y-79375000D03*
X115570000Y-79375000D03*
D29*
X104140000Y-79375000D03*
X111760000Y-79375000D03*
D28*
X99060000Y-79375000D03*
X116840000Y-79375000D03*
D17*
X246380000Y-69850000D03*
X236220000Y-69850000D03*
D18*
X241300000Y-69850000D03*
D28*
X97790000Y-79375000D03*
X80010000Y-79375000D03*
D29*
X92710000Y-79375000D03*
X85090000Y-79375000D03*
D28*
X96520000Y-79375000D03*
X81280000Y-79375000D03*
D17*
X341630000Y-69850000D03*
X331470000Y-69850000D03*
D18*
X336550000Y-69850000D03*
D17*
X322580000Y-69850000D03*
X312420000Y-69850000D03*
D18*
X317500000Y-69850000D03*
D17*
X303530000Y-69850000D03*
X293370000Y-69850000D03*
D18*
X298450000Y-69850000D03*
D17*
X284480000Y-69850000D03*
X274320000Y-69850000D03*
D18*
X279400000Y-69850000D03*
D17*
X265430000Y-69850000D03*
X255270000Y-69850000D03*
D18*
X260350000Y-69850000D03*
D17*
X227330000Y-69850000D03*
X217170000Y-69850000D03*
D18*
X222250000Y-69850000D03*
D17*
X208280000Y-69850000D03*
X198120000Y-69850000D03*
D18*
X203200000Y-69850000D03*
D17*
X189230000Y-69850000D03*
X179070000Y-69850000D03*
D18*
X184150000Y-69850000D03*
D17*
X170180000Y-69850000D03*
X160020000Y-69850000D03*
D18*
X165100000Y-69850000D03*
D17*
X132080000Y-69850000D03*
X121920000Y-69850000D03*
D18*
X127000000Y-69850000D03*
D17*
X113030000Y-69850000D03*
X102870000Y-69850000D03*
D18*
X107950000Y-69850000D03*
D17*
X93980000Y-69850000D03*
X83820000Y-69850000D03*
D18*
X88900000Y-69850000D03*
D26*
X326009000Y-75406250D03*
D27*
X326009000Y-67606250D03*
D26*
X313600000Y-75406250D03*
D27*
X321400000Y-75406250D03*
D26*
X294550000Y-75406250D03*
D27*
X302350000Y-75406250D03*
D26*
X275500000Y-75406250D03*
D27*
X283300000Y-75406250D03*
D26*
X256450000Y-75406250D03*
D27*
X264250000Y-75406250D03*
D26*
X237400000Y-75406250D03*
D27*
X245200000Y-75406250D03*
D26*
X218350000Y-75406250D03*
D27*
X226150000Y-75406250D03*
D26*
X199300000Y-75406250D03*
D27*
X207100000Y-75406250D03*
D26*
X180250000Y-75406250D03*
D27*
X188050000Y-75406250D03*
D26*
X161200000Y-75406250D03*
D27*
X169000000Y-75406250D03*
D26*
X142150000Y-75406250D03*
D27*
X149950000Y-75406250D03*
D26*
X123100000Y-75406250D03*
D27*
X130900000Y-75406250D03*
D26*
X104050000Y-75406250D03*
D27*
X111850000Y-75406250D03*
D26*
X85000000Y-75406250D03*
D27*
X92800000Y-75406250D03*
D18*
X243681250Y-137795000D03*
X219868750Y-137795000D03*
D24*
X243681250Y-153035000D03*
X219868750Y-153035000D03*
D17*
X236855000Y-146050000D03*
X226695000Y-146050000D03*
D18*
X231775000Y-146050000D03*
D17*
X341630000Y-146050000D03*
X331470000Y-146050000D03*
D18*
X336550000Y-146050000D03*
D17*
X322580000Y-146050000D03*
X312420000Y-146050000D03*
D18*
X317500000Y-146050000D03*
D17*
X303530000Y-146050000D03*
X293370000Y-146050000D03*
D18*
X298450000Y-146050000D03*
D17*
X284480000Y-146050000D03*
X274320000Y-146050000D03*
D18*
X279400000Y-146050000D03*
D17*
X265430000Y-146050000D03*
X255270000Y-146050000D03*
D18*
X260350000Y-146050000D03*
D17*
X93980000Y-146050000D03*
X83820000Y-146050000D03*
D18*
X88900000Y-146050000D03*
D17*
X341630000Y-127000000D03*
X331470000Y-127000000D03*
D18*
X336550000Y-127000000D03*
D17*
X322580000Y-127000000D03*
X312420000Y-127000000D03*
D18*
X317500000Y-127000000D03*
D17*
X303530000Y-127000000D03*
X293370000Y-127000000D03*
D18*
X298450000Y-127000000D03*
D17*
X284480000Y-127000000D03*
X274320000Y-127000000D03*
D18*
X279400000Y-127000000D03*
D17*
X265430000Y-127000000D03*
X255270000Y-127000000D03*
D18*
X260350000Y-127000000D03*
D17*
X246380000Y-127000000D03*
X236220000Y-127000000D03*
D18*
X241300000Y-127000000D03*
D17*
X227330000Y-127000000D03*
X217170000Y-127000000D03*
D18*
X222250000Y-127000000D03*
D17*
X208280000Y-127000000D03*
X198120000Y-127000000D03*
D18*
X203200000Y-127000000D03*
D17*
X189230000Y-127000000D03*
X179070000Y-127000000D03*
D18*
X184150000Y-127000000D03*
D17*
X170180000Y-127000000D03*
X160020000Y-127000000D03*
D18*
X165100000Y-127000000D03*
D17*
X151130000Y-127000000D03*
X140970000Y-127000000D03*
D18*
X146050000Y-127000000D03*
D17*
X132080000Y-127000000D03*
X121920000Y-127000000D03*
D18*
X127000000Y-127000000D03*
D17*
X113030000Y-127000000D03*
X102870000Y-127000000D03*
D18*
X107950000Y-127000000D03*
D17*
X93980000Y-127000000D03*
X83820000Y-127000000D03*
D18*
X88900000Y-127000000D03*
D17*
X341630000Y-107950000D03*
X331470000Y-107950000D03*
D18*
X336550000Y-107950000D03*
D17*
X322580000Y-107950000D03*
X312420000Y-107950000D03*
D18*
X317500000Y-107950000D03*
D17*
X303530000Y-107950000D03*
X293370000Y-107950000D03*
D18*
X298450000Y-107950000D03*
D17*
X284480000Y-107950000D03*
X274320000Y-107950000D03*
D18*
X279400000Y-107950000D03*
D17*
X265430000Y-107950000D03*
X255270000Y-107950000D03*
D18*
X260350000Y-107950000D03*
D17*
X246380000Y-107950000D03*
X236220000Y-107950000D03*
D18*
X241300000Y-107950000D03*
D17*
X227330000Y-107950000D03*
X217170000Y-107950000D03*
D18*
X222250000Y-107950000D03*
D17*
X208280000Y-107950000D03*
X198120000Y-107950000D03*
D18*
X203200000Y-107950000D03*
D17*
X189230000Y-107950000D03*
X179070000Y-107950000D03*
D18*
X184150000Y-107950000D03*
D17*
X170180000Y-107950000D03*
X160020000Y-107950000D03*
D18*
X165100000Y-107950000D03*
D17*
X151130000Y-107950000D03*
X140970000Y-107950000D03*
D18*
X146050000Y-107950000D03*
D17*
X132080000Y-107950000D03*
X121920000Y-107950000D03*
D18*
X127000000Y-107950000D03*
D17*
X113030000Y-107950000D03*
X102870000Y-107950000D03*
D18*
X107950000Y-107950000D03*
D17*
X93980000Y-107950000D03*
X83820000Y-107950000D03*
D18*
X88900000Y-107950000D03*
D17*
X341630000Y-88900000D03*
X331470000Y-88900000D03*
D18*
X336550000Y-88900000D03*
D17*
X322580000Y-88900000D03*
X312420000Y-88900000D03*
D18*
X317500000Y-88900000D03*
D17*
X303530000Y-88900000D03*
X293370000Y-88900000D03*
D18*
X298450000Y-88900000D03*
D17*
X284480000Y-88900000D03*
X274320000Y-88900000D03*
D18*
X279400000Y-88900000D03*
D17*
X265430000Y-88900000D03*
X255270000Y-88900000D03*
D18*
X260350000Y-88900000D03*
D17*
X246380000Y-88900000D03*
X236220000Y-88900000D03*
D18*
X241300000Y-88900000D03*
D17*
X208280000Y-88900000D03*
X198120000Y-88900000D03*
D18*
X203200000Y-88900000D03*
D17*
X189230000Y-88900000D03*
X179070000Y-88900000D03*
D18*
X184150000Y-88900000D03*
D17*
X170180000Y-88900000D03*
X160020000Y-88900000D03*
D18*
X165100000Y-88900000D03*
D17*
X151130000Y-88900000D03*
X140970000Y-88900000D03*
D18*
X146050000Y-88900000D03*
D17*
X132080000Y-88900000D03*
X121920000Y-88900000D03*
D18*
X127000000Y-88900000D03*
D17*
X113030000Y-88900000D03*
X102870000Y-88900000D03*
D18*
X107950000Y-88900000D03*
D17*
X93980000Y-88900000D03*
X83820000Y-88900000D03*
D18*
X88900000Y-88900000D03*
D26*
X332650000Y-151606250D03*
D27*
X340450000Y-151606250D03*
D26*
X313600000Y-151606250D03*
D27*
X321400000Y-151606250D03*
D26*
X294550000Y-151606250D03*
D27*
X302350000Y-151606250D03*
D26*
X275500000Y-151606250D03*
D27*
X283300000Y-151606250D03*
D26*
X256450000Y-151606250D03*
D27*
X264250000Y-151606250D03*
D26*
X227875000Y-151606250D03*
D27*
X235675000Y-151606250D03*
D26*
X211137500Y-149950000D03*
D27*
X211137500Y-142150000D03*
D26*
X214312500Y-149950000D03*
D27*
X214312500Y-142150000D03*
D26*
X151675000Y-151606250D03*
D27*
X159475000Y-151606250D03*
D26*
X123100000Y-151606250D03*
D27*
X130900000Y-151606250D03*
D26*
X104050000Y-151606250D03*
D27*
X111850000Y-151606250D03*
D26*
X85000000Y-151606250D03*
D27*
X92800000Y-151606250D03*
D26*
X332650000Y-132556250D03*
D27*
X340450000Y-132556250D03*
D26*
X313600000Y-132556250D03*
D27*
X321400000Y-132556250D03*
D26*
X294550000Y-132556250D03*
D27*
X302350000Y-132556250D03*
D26*
X275500000Y-132556250D03*
D27*
X283300000Y-132556250D03*
D26*
X256450000Y-132556250D03*
D27*
X264250000Y-132556250D03*
D26*
X237400000Y-132556250D03*
D27*
X245200000Y-132556250D03*
D26*
X218350000Y-132556250D03*
D27*
X226150000Y-132556250D03*
D26*
X199300000Y-132556250D03*
D27*
X207100000Y-132556250D03*
D26*
X180250000Y-132556250D03*
D27*
X188050000Y-132556250D03*
D26*
X161200000Y-132556250D03*
D27*
X169000000Y-132556250D03*
D26*
X142150000Y-132556250D03*
D27*
X149950000Y-132556250D03*
D26*
X123100000Y-132556250D03*
D27*
X130900000Y-132556250D03*
D26*
X104050000Y-132556250D03*
D27*
X111850000Y-132556250D03*
D26*
X85000000Y-132556250D03*
D27*
X92800000Y-132556250D03*
D26*
X332650000Y-113506250D03*
D27*
X340450000Y-113506250D03*
D26*
X313600000Y-113506250D03*
D27*
X321400000Y-113506250D03*
D26*
X294550000Y-113506250D03*
D27*
X302350000Y-113506250D03*
D26*
X275500000Y-113506250D03*
D27*
X283300000Y-113506250D03*
D26*
X256450000Y-113506250D03*
D27*
X264250000Y-113506250D03*
D26*
X237400000Y-113506250D03*
D27*
X245200000Y-113506250D03*
D26*
X218350000Y-113506250D03*
D27*
X226150000Y-113506250D03*
D26*
X199300000Y-113506250D03*
D27*
X207100000Y-113506250D03*
D26*
X180250000Y-113506250D03*
D27*
X188050000Y-113506250D03*
D26*
X161200000Y-113506250D03*
D27*
X169000000Y-113506250D03*
D26*
X142150000Y-113506250D03*
D27*
X149950000Y-113506250D03*
D26*
X123100000Y-113506250D03*
D27*
X130900000Y-113506250D03*
D26*
X104050000Y-113506250D03*
D27*
X111850000Y-113506250D03*
D26*
X85000000Y-113506250D03*
D27*
X92800000Y-113506250D03*
D26*
X326009000Y-94456250D03*
D27*
X326009000Y-86656250D03*
D26*
X313600000Y-94456250D03*
D27*
X321400000Y-94456250D03*
D26*
X294550000Y-94456250D03*
D27*
X302350000Y-94456250D03*
D26*
X275500000Y-94456250D03*
D27*
X283300000Y-94456250D03*
D26*
X256450000Y-94456250D03*
D27*
X264250000Y-94456250D03*
D26*
X237400000Y-94456250D03*
D27*
X245200000Y-94456250D03*
D26*
X218350000Y-94456250D03*
D27*
X226150000Y-94456250D03*
D26*
X199300000Y-94456250D03*
D27*
X207100000Y-94456250D03*
D26*
X180250000Y-94456250D03*
D27*
X188050000Y-94456250D03*
D26*
X161200000Y-94456250D03*
D27*
X169000000Y-94456250D03*
D26*
X142150000Y-94456250D03*
D27*
X149950000Y-94456250D03*
D26*
X123100000Y-94456250D03*
D27*
X130900000Y-94456250D03*
D26*
X104050000Y-94456250D03*
D27*
X111850000Y-94456250D03*
D26*
X85000000Y-94456250D03*
D27*
X92800000Y-94456250D03*
M02*
